<?xml version="1.0" encoding="utf-8"?>
<!-- Generator: Adobe Illustrator 27.0.1, SVG Export Plug-In . SVG Version: 6.00 Build 0)  -->
<svg version="1.1" id="Capa_1" xmlns="http://www.w3.org/2000/svg" xmlns:xlink="http://www.w3.org/1999/xlink" x="0px" y="0px"
	 viewBox="0 0 750 500" style="enable-background:new 0 0 750 500;" xml:space="preserve">
<style type="text/css">
	.st0{fill:#E0E0E0;}
	.st1{fill:#EBEBEB;}
	.st2{fill:#FAFAFA;}
	.st3{fill:#0F2830;}
	.st4{fill:#014751;}
	.st5{opacity:0.3;}
	.st6{fill:#CD5B45;}
	.st7{fill:#FFBF9D;}
	.st8{fill:#EB996E;}
	.st9{fill:#FF9A6C;}
	.st10{fill:#FFFFFF;}
	.st11{fill:#AE7461;}
	.st12{fill:#6F4439;}
	.st13{opacity:0.6;}
</style>
<g id="freepik--background-complete--inject-6">
	<path class="st0" d="M694.5,321.7c0-0.1,0-0.2,0-0.2c0-0.2,0-0.4,0-0.7c0-0.6,0-1.5,0-2.5c0-2.2,0-5.4-0.1-9.4l0.2,0.1l-48.7,0.1
		l0.2-0.2l0,0v12.9l-0.2-0.2l34.7,0.1l10.2,0.1h2.8h0.7L694.5,321.7l-0.2-0.1h-0.7h-2.7l-10.2,0.1l-34.8,0.1h-0.2v-12.9l0,0l0.2-0.2
		l48.7,0.1h0.2v0.1c0,4.1-0.1,7.3-0.1,9.5c0,1.1,0,1.9,0,2.5c0,0.3,0,0.5,0,0.6C694.6,321.6,694.6,321.7,694.5,321.7z"/>
	<path class="st0" d="M701.1,308.9c0,0,0-0.1,0-0.2s0-0.4,0-0.7c0-0.6,0-1.5,0-2.6c0-2.3,0-5.5-0.1-9.4l0.2,0.2l-29.2,0.1
		c-0.2,0.2,0.3-0.3,0.2-0.2l0,0v6.6c0,2.1,0,4.2,0,6.2l-0.2-0.2l20.9,0.1l6.1,0.1h1.7H701.1c-0.1-0.1-0.3-0.1-0.5-0.1H699l-6,0.1
		l-21,0.1h-0.2v-6.5c0-1.1,0-2.2,0-3.3V296l0,0l0.2-0.2l29.2,0.1h0.2v0.2c0,4-0.1,7.2-0.1,9.5c0,1.1,0,1.9,0,2.5
		C701.2,308.3,701.2,308.6,701.1,308.9z"/>
	<path class="st0" d="M694.5,321.7c0-0.1,0-0.2,0-0.2c0-0.2,0-0.4,0-0.7c0-0.6,0-1.5,0-2.5c0-2.2,0-5.4-0.1-9.4l0.2,0.1l-48.7,0.1
		l0.2-0.2l0,0v12.9l-0.2-0.2l34.7,0.1l10.2,0.1h2.8h0.7L694.5,321.7l-0.2-0.1h-0.7h-2.7l-10.2,0.1l-34.8,0.1h-0.2v-12.9l0,0l0.2-0.2
		l48.7,0.1h0.2v0.1c0,4.1-0.1,7.3-0.1,9.5c0,1.1,0,1.9,0,2.5c0,0.3,0,0.5,0,0.6C694.6,321.6,694.6,321.7,694.5,321.7z"/>
	<path class="st0" d="M701.1,308.9c0,0,0-0.1,0-0.2s0-0.4,0-0.7c0-0.6,0-1.5,0-2.6c0-2.3,0-5.5-0.1-9.4l0.2,0.2l-29.2,0.1
		c-0.2,0.2,0.3-0.3,0.2-0.2l0,0v6.6c0,2.1,0,4.2,0,6.2l-0.2-0.2l20.9,0.1l6.1,0.1h1.7H701.1c-0.1-0.1-0.3-0.1-0.5-0.1H699l-6,0.1
		l-21,0.1h-0.2v-6.5c0-1.1,0-2.2,0-3.3V296l0,0l0.2-0.2l29.2,0.1h0.2v0.2c0,4-0.1,7.2-0.1,9.5c0,1.1,0,1.9,0,2.5
		C701.2,308.3,701.2,308.6,701.1,308.9z"/>
	<rect x="89.6" y="99" class="st1" width="48.7" height="12.9"/>
	<path class="st0" d="M117.7,125.4c0-0.1,0-0.2,0-0.2v-0.7c0-0.6,0-1.4,0-2.5c0-2.2,0-5.4-0.1-9.4l0.2,0.2l-48.7,0.1l0.2-0.2l0,0
		v12.9l-0.2-0.2l34.7,0.1l10.2,0.1h2.8h0.7L117.7,125.4l-0.2-0.1h-0.7h-2.7l-10.2,0.1l-34.8,0.1h-0.2v-13l0,0
		c0.5-0.5,0.1-0.1,0.2-0.2l48.7,0.1h0.2v0.2c0,4.1-0.1,7.3-0.1,9.5c0,1.1,0,1.9,0,2.5c0,0.3,0,0.5,0,0.6
		C117.8,125.3,117.8,125.3,117.7,125.4z"/>
	<rect x="445.1" y="343.6" class="st1" width="48.6" height="12.9"/>
	<path class="st0" d="M473.2,370.1c0-0.1,0-0.2,0-0.2v-0.7c0-0.6,0-1.5,0-2.5c0-2.2,0-5.4-0.1-9.4l0.1,0.1l-48.6,0.1l0.2-0.2l0,0
		V370l-0.2-0.2l34.7,0.1l10.2,0.1h2.8h0.7L473.2,370.1L473,370h-0.7h-2.7l-10.2,0.1l-34.9,0.1h-0.2v-12.9l0,0l0.2-0.2l48.6,0.1h0.1
		v0.1c0,4.1-0.1,7.3-0.1,9.5c0,1.1,0,1.9,0,2.5c0,0.3,0,0.5,0,0.6C473.3,369.9,473.2,370,473.2,370.1z"/>
	<rect x="440.4" y="119.2" class="st1" width="48.6" height="12.9"/>
	<rect x="663.5" y="183.1" class="st1" width="48.7" height="12.9"/>
	<path class="st0" d="M228.2,60.4c0-0.1,0-0.2,0-0.2v-0.7c0-0.6,0-1.5,0-2.5c0-2.2-0.1-5.4-0.1-9.4l0.1,0.2l-48.7,0.1
		c0.1-0.1-0.2,0.2,0.2-0.2l0,0v12.9l-0.2-0.2l34.7,0.1l10.2,0.1h2.8h0.7L228.2,60.4l-0.2-0.1h-0.7h-2.7l-10.2,0.1l-34.8,0.1h-0.2
		v-13l0,0l0.2-0.2l48.7,0.1h0.1v0.2c0,4.1-0.1,7.3-0.1,9.5c0,1.1,0,1.9,0,2.5v0.6C228.3,60.2,228.2,60.3,228.2,60.4z"/>
	<path class="st0" d="M234.8,47.5c0,0,0-0.1,0-0.2s0-0.4,0-0.7c0-0.6,0-1.5-0.1-2.6c0-2.3,0-5.4-0.1-9.4l0.2,0.2l-29.2,0.1
		c-0.2,0.2,0.3-0.3,0.2-0.2l0,0v6.6c0,2.2,0,4.2,0,6.2l-0.2-0.2l20.9,0.1l6.1,0.1h1.6L234.8,47.5c-0.1-0.1-0.3-0.1-0.5-0.1h-1.6
		l-6,0.1l-21.1,0.1h-0.2v-0.2c0-2,0-4.1,0-6.2c0-1.1,0-2.2,0-3.3v-3.2l0,0l0.2-0.2l29.2,0.1h0.1v0.2c0,4-0.1,7.2-0.1,9.5
		c0,1.1,0,1.9-0.1,2.5C234.9,46.9,234.8,47.2,234.8,47.5z"/>
	<path class="st0" d="M624.9,67.1c0-0.1,0-0.2,0-0.2v-0.7c0-0.6,0-1.4,0-2.5c0-2.2,0-5.4-0.1-9.4l0.2,0.2l-48.7,0.1
		c0.1-0.1-0.2,0.2,0.2-0.2l0,0v12.9l-0.2-0.2l34.7,0.1l10.2,0.1h2.8h0.7L624.9,67.1l-0.2-0.1H624h-2.7l-10.2,0.1l-34.8,0.1H576v-13
		l0,0l0.2-0.2l48.7,0.1h0.1v0.2c0,4.1-0.1,7.3-0.1,9.5c0,1.1,0,1.9,0,2.5v0.6C624.9,66.9,624.9,67,624.9,67.1z"/>
	<path class="st0" d="M631.5,54.2c0-0.1,0-0.2,0-0.2c0-0.2,0-0.4,0-0.7c0-0.6,0-1.5,0-2.6c0-2.3,0-5.4-0.1-9.4l0.2,0.2l-29.2,0.1
		l0.2-0.2l0,0V48c0,2.2,0,4.2,0,6.2l-0.2-0.2l20.9,0.1l6.1,0.1h1.6L631.5,54.2c-0.1-0.1-0.3-0.1-0.5-0.1h-1.6l-6,0.1l-21.1,0.1H602
		V54c0-2,0-4.1,0-6.2v-6.5l0,0l0.2-0.2l29.2,0.1h0.2v0.2c0,4-0.1,7.2-0.1,9.5c0,1.1,0,1.9,0,2.5S631.5,54.2,631.5,54.2z"/>
	<path class="st0" d="M334.6,134.7c0-0.1,0-0.2,0-0.2v-0.7c0-0.6,0-1.4,0-2.5c0-2.2,0-5.4-0.1-9.4l0.1,0.2l-48.6,0.1l0.2-0.2l0,0
		v3.3c0,1.1,0,2.2,0,3.3v6.3l-0.2-0.2l34.7,0.1l10.2,0.1h2.8h0.7L334.6,134.7c0.1-0.1,0-0.1-0.1-0.1h-0.7h-2.7l-10.2,0.1l-34.8,0.1
		h-0.2v-0.2c0-2.1,0-4.2,0-6.3v-6.5l0,0c0.5-0.5,0.1-0.1,0.2-0.2l48.6,0.1h0.1v0.2c0,4.1-0.1,7.3-0.1,9.5c0,1.1,0,1.9,0,2.5v0.6
		C334.6,134.6,334.6,134.7,334.6,134.7z"/>
	<path class="st0" d="M341.2,121.8c0-0.1,0-0.2,0-0.2c0-0.2,0-0.4,0-0.7c0-0.6,0-1.5,0-2.6c0-2.2-0.1-5.4-0.1-9.4l0.2,0.2l-29.2,0.1
		c-0.2,0.2,0.3-0.3,0.2-0.2l0,0v6.6c0,2.2,0,4.2,0,6.2l-0.2-0.2l20.9,0.1l6.1,0.1h1.6H341.2c-0.1-0.1-0.3-0.1-0.4-0.1h-1.6l-6,0.1
		L312,122h-0.2v-0.2c0-2,0-4.1,0-6.2V109l0,0c-0.1,0,0.5-0.5,0.2-0.2l29.2,0.1h0.2v0.2c0,4-0.1,7.2-0.1,9.5c0,1.1,0,1.9,0,2.5
		S341.2,121.8,341.2,121.8z"/>
	<path class="st0" d="M84.5,294.6c0-0.1,0-0.2,0-0.2c0-0.2,0-0.4,0-0.7c0-0.6,0-1.5,0-2.5c0-2.2,0-5.4-0.1-9.4l0.2,0.1L35.9,282
		l0.2-0.2l0,0v12.9l-0.2-0.2l34.7,0.1l10.2,0.1h2.8h0.7L84.5,294.6l-0.2-0.1h-0.7h-2.7l-10.2,0.1l-34.8,0.1h-0.2v-13l0,0l0.2-0.2
		l48.7,0.1h0.2v0.2c0,4.1-0.1,7.3-0.1,9.5c0,1.1,0,1.9,0,2.5v0.6C84.6,294.5,84.5,294.6,84.5,294.6z"/>
	<path class="st0" d="M91.1,281.8c0,0,0-0.1,0-0.2s0-0.4,0-0.7c0-0.6,0-1.5,0-2.6c0-2.3-0.1-5.5-0.1-9.4l0.2,0.2H62
		c-0.2,0.2,0.3-0.3,0.2-0.2l0,0v6.6c0,2.2,0,4.2,0,6.2l-0.2-0.2l20.9,0.1l6.1,0.1h1.7L91.1,281.8l-0.4-0.1h-1.6l-6,0.1L61.9,282
		h-0.2v-6.5c0-1.1,0-2.2,0-3.3v-3.3l0,0l0.2-0.2l29.2,0.1h0.2v0.2c0,4-0.1,7.2-0.1,9.5c0,1.1,0,1.9,0,2.5
		C91.2,281.2,91.2,281.5,91.1,281.8z"/>
	<path class="st0" d="M251.3,358.7c-4-2.5-8.5-4-13.1-4.5c-2.1-0.2-4.5-0.2-6.2,1.1c-0.4,0.2-0.6,0.7-0.6,1.1
		c0.1,0.3,0.3,0.6,0.6,0.8C237.6,361.3,245.1,361.8,251.3,358.7"/>
	<path class="st0" d="M251,358.3c-3-2.2-5.9-4.7-8.5-7.5s-4.4-6.1-5.3-9.8c-0.3-1.1-0.2-2.3,0.4-3.3
		C244.4,343,249.7,349.8,251,358.3"/>
	<path class="st0" d="M251.2,358.6c-0.6-3.7-0.6-7.5,0.1-11.1c0.8-3.7,2.9-7,5.9-9.2c1.2,2.7,0.7,5.9-0.1,8.7
		c-1.3,4.4-3.3,8.6-5.9,12.4"/>
	<path class="st0" d="M257.9,370.5c-4,0.6-7.7,2.5-10.5,5.3c-3,2.8-5.1,6.4-6,10.3c3.9-0.2,7.3-3,9.7-6.1S255.2,373.5,257.9,370.5"
		/>
	<path class="st0" d="M259.3,372.4c-3.2-8.2-2.1-17.4,3-24.6C264.6,356,263.7,365.2,259.3,372.4"/>
	<path class="st0" d="M268,382.8c-7.5-0.5-14.6,3.6-18,10.3c-0.2,0.4-0.4,1-0.1,1.4c0.3,0.3,0.8,0.4,1.2,0.4
		c3.5-0.2,6.7-2.4,9.3-4.8S265.2,384.9,268,382.8"/>
	<path class="st0" d="M267.8,382.3c-1.9-6.1-2-12.5-0.3-18.7c0.7-2.4,1.8-4.9,4-6.1c0.2-0.1,0.4-0.2,0.6-0.1s0.3,0.2,0.4,0.4
		c0.7,1.7,1.1,3.5,0.9,5.4c-0.1,1.8-0.4,3.6-0.8,5.4c-0.7,3.3-1.1,6.9-2.9,9.7c-0.4,0.7-0.8,1.4-1.1,2.1c-0.4,0.7-0.4,1-0.7,1.6"/>
	<path class="st0" d="M290.9,385.7c-1.6-6.9,0-14.1,4.2-19.8c0.3-0.4,0.7-0.8,1.2-0.8c0.8,0.1,1,1.1,0.9,1.9
		C297,373.7,294.8,380.2,290.9,385.7"/>
	<path class="st0" d="M293,387.1c8.2,1.9,16.8,0.2,23.6-4.8c-4-2-8.5-2.5-12.8-1.6C299.6,381.8,295.7,383.7,293,387.1"/>
	<path class="st0" d="M294.8,382.8c4.5-7.2,13-12,21.5-12.4c-1,3.5-3.8,6.1-7,7.8c-3.3,1.5-6.7,2.5-10.3,3
		C297.6,381.4,295.7,381.7,294.8,382.8"/>
	<path class="st0" d="M291.4,361.7c1.4-4.1,2.3-8.3,2.8-12.6c0.5-4.3-0.4-8.6-2.5-12.4c-4.2,8-4.6,17.4-0.4,25.4"/>
	<path class="st0" d="M305.4,354.6c4.9-8.8,14.8-15.9,24.8-16.9C326.3,347.4,315.7,354.8,305.4,354.6"/>
	<path class="st0" d="M302.3,356.4c7.2,1.1,13.4,5.7,20.2,8.5c1.4,0.7,3,1,4.6,0.9c2,0,3.5-1.6,3.5-3.6c0-1-0.5-2-1.3-2.7
		c-1-0.9-2.1-1.6-3.3-2c-7.4-3.1-15.3-3.1-23-1.3"/>
	<path class="st0" d="M298.1,361.4c1.6,0.5,2.2,1.3,3.5,2.4c4.4,3.8,9.7,6.5,15.3,7.9c0.6,0.1,1.4,0.2,1.6-0.3s-0.1-1-0.4-1.4
		c-2.5-2.9-5.7-5.1-9.2-6.3c-3.5-1.3-6.6-2.9-10.8-2.6"/>
	<path class="st0" d="M293.4,330.8c6,5.5,14.1,8.3,22.2,7.5c0.4,0,0.7-0.1,1-0.4c0.6-0.6-0.1-1.5-0.8-2
		C309.3,330.8,301.4,328.7,293.4,330.8"/>
	<path class="st0" d="M299,328.7c8-5.9,18.3-7.6,27.7-4.6c-3.6,3.4-8.3,5.4-13.2,5.8C308.6,330.4,303.7,330,299,328.7"/>
	<path class="st0" d="M296.8,314.6c-0.6-6.5-0.2-11.7-0.7-18.2c0-0.5-0.1-1.1-0.6-1.3c-0.7-0.3-1.2,0.6-1.5,1.3
		c-1.9,6.1-0.9,12.8,2.8,18.1"/>
	<path class="st0" d="M296.3,315.3c4.3-2.8,7.9-6.3,10.8-10.5c2.1-2.9,3.9-6.4,3.4-10c-3,0.1-5.9,1.5-7.8,3.9s-3.2,5.1-4,8
		C297.9,309.6,297.3,312.5,296.3,315.3"/>
	<path class="st0" d="M306.9,312.4c9.7-3.6,18.7-8.9,26.5-15.6c-3.2-1.3-6.8-0.5-10,0.8c-7.2,2.7-13.1,8-16.7,14.8"/>
	<path class="st0" d="M299.3,318.9c4.9,0.7,9.8,0.7,14.7,0.1c4.8-0.8,9.3-2.7,13.8-4.6c0.4-0.1,0.7-0.4,0.9-0.7
		c0.1-0.4,0-0.9-0.3-1.2c-0.3-0.3-0.8-0.5-1.2-0.5c-4.9-1.4-10.1-0.7-14.9,0.9C307.8,314.4,303.4,316.4,299.3,318.9"/>
	<path class="st0" d="M271.3,331c-3.4-6.8-3.1-14.6-0.2-21.6c2,3.1,2.3,7,1.9,10.7s-1.5,7.5-1.6,11.2"/>
	<path class="st0" d="M257.9,324.2c-8.5-0.1-16.6,3.3-22.4,9.5c4.2,0.5,8.5-0.3,12.2-2.3s7.2-4.3,10.5-7"/>
	<path class="st0" d="M249,321.2c-4.1-0.3-8-0.8-11.9,0.4c-4,1.1-7.3,3.9-9.1,7.7c3.9,0.3,7.7-0.4,11.2-2.1
		C242.6,325.5,245.9,323.5,249,321.2"/>
	<path class="st0" d="M262.2,321.4c-3.7-2.4-7.4-4.9-11.7-5.9s-9.2-0.3-12.2,3c3.5,2,7.7,2.3,11.7,2.3s8.9,0,12.7,1.3"/>
	<path class="st0" d="M262.3,321.6c-6.3-6.2-8.7-17.2-6.1-25.7C261.1,303.5,263.3,312.6,262.3,321.6"/>
	<path class="st0" d="M279.5,304.1c1.2-2.8,2-5.6,3.1-8.5c1-2.8,2.5-5.5,4.4-7.8c2-2.3,4.8-3.7,7.8-4c-2,8.6-7.4,16-15.1,20.3"/>
	<path class="st0" d="M276.4,307.7c-2-2.7-4.2-6.4-6.9-8.4s-6.1-3.2-9.4-2.5C263.6,302.9,269.6,306.9,276.4,307.7"/>
	<path class="st0" d="M277,304.3c-1.4-3.2-2.4-6.6-3.1-10c-0.6-3.5-0.1-7.1,1.6-10.2c3.5,6.5,4.6,13.5,1.7,20.3"/>
	<path class="st0" d="M279.6,284.1c2-6.5,7.9-11.2,14.3-13.4c0.8-0.3,1.6-0.5,2.5-0.4s1.6,0.7,1.8,1.5c0.2,1.1-0.7,2.1-1.5,2.8
		C291.7,278.9,285.8,282.1,279.6,284.1"/>
	<path class="st0" d="M279.6,278.8c0.2-4.2,0.5-8.4,1.9-12.3s4-7.6,7.8-9.4c0.6,4.2-1.2,8.4-3.5,12s-4.9,7-6.3,11.1"/>
	<path class="st0" d="M279.5,281.7c-1.6-4.7-1.8-10.7-4.6-14.8c-2-2.9-5.1-4.8-6.8-7.9c-1,2.9-0.9,6.1,0.4,8.9s3,5.3,5.2,7.5
		C275.8,277.6,277.6,279.3,279.5,281.7"/>
	<path class="st0" d="M279.6,420.4c-0.1,0-0.2-31.4-0.2-70.2s0.1-70.2,0.2-70.2s0.2,31.4,0.2,70.2S279.7,420.4,279.6,420.4z"/>
	<path class="st0" d="M307,326.2c-0.4,0.2-0.8,0.3-1.2,0.5l-3.2,1.1c-2.8,0.9-6.5,2.3-10.6,4s-7.9,3.1-10,5c-0.9,0.7-1.5,1.6-2,2.7
		c-0.3,0.7-0.4,1.2-0.4,1.2c0-0.1,0-0.2,0-0.3c0-0.3,0.1-0.6,0.2-0.9c0.4-1.1,1.1-2.1,2-2.9c1.3-1.1,2.8-2,4.4-2.7
		c1.7-0.8,3.7-1.7,5.7-2.5c4.1-1.7,7.9-3,10.7-3.8c1.4-0.4,2.5-0.8,3.3-1C306.2,326.4,306.6,326.3,307,326.2z"/>
	<path class="st0" d="M316,304.1c-0.1,0.1-0.2,0.2-0.3,0.4l-1,1l-3.8,3.4L298.4,320c-4.9,4.4-9.1,8.5-12,11.6
		c-1.5,1.6-2.6,2.9-3.4,3.8l-0.9,1c-0.1,0.1-0.2,0.2-0.3,0.3c0,0,0.1-0.1,0.3-0.4s0.5-0.6,0.9-1.1c0.8-0.9,1.9-2.3,3.3-3.9
		c3.8-4.1,7.8-8.1,12-11.8c4.9-4.3,9.4-8.2,12.6-11l3.9-3.3l1.1-0.9C315.8,304.3,315.9,304.2,316,304.1z"/>
	<path class="st0" d="M293.1,324.4c-0.1-0.1,0.9-2.4,1.9-5.4s1.5-5.5,1.6-5.5c-0.1,1.9-0.5,3.8-1.2,5.6c-0.4,1.3-0.9,2.5-1.5,3.8
		C293.7,323.5,293.5,324,293.1,324.4z"/>
	<path class="st0" d="M279.6,343.5c-0.3-0.3-0.5-0.6-0.8-0.9l-1.9-2.5c-1.6-2.1-3.9-5-6.4-8.1s-4.8-6-6.5-8.1c-0.8-1-1.5-1.8-2-2.4
		c-0.3-0.3-0.5-0.6-0.7-0.9c0.3,0.2,0.6,0.5,0.8,0.8c0.5,0.5,1.2,1.4,2.1,2.4c1.7,2,4.1,4.8,6.6,8s4.7,6.1,6.3,8.2
		c0.8,1.1,1.4,2,1.8,2.6C279.2,342.8,279.4,343.1,279.6,343.5z"/>
	<path class="st0" d="M273.6,335.7c-1.2-1.3-2.1-3-2.5-4.7c-0.5-1.5-0.7-3.2-0.6-4.8h0.2c-0.1,0.4-0.2,0.6-0.2,0.5s0-0.2,0-0.6h0.2
		c0.1,1.6,0.4,3.1,0.8,4.6C272.1,332.5,272.8,334.1,273.6,335.7z"/>
	<path class="st0" d="M265.8,326c-0.5-0.4-1.1-0.7-1.8-1c-1.6-0.5-3.3-0.6-4.9-0.4c-1.7,0.1-3.3,0.4-4.9,0.8c-0.7,0.2-1.3,0.4-2,0.5
		c0.6-0.4,1.3-0.6,1.9-0.8c1.6-0.5,3.3-0.8,5-0.9c1.7-0.2,3.4,0,5,0.5C264.9,324.9,265.4,325.4,265.8,326z"/>
	<path class="st0" d="M264,323.6c0,0.1-1-0.4-2.7-1c-2.2-0.7-4.4-1.2-6.7-1.4c-2.3-0.2-4.6,0-6.9,0.4c-1.7,0.3-2.8,0.6-2.8,0.6
		c0.2-0.1,0.5-0.2,0.7-0.3c0.7-0.2,1.3-0.4,2-0.6c2.3-0.5,4.7-0.7,7-0.5s4.6,0.7,6.8,1.5c0.7,0.2,1.3,0.5,1.9,0.9
		C263.6,323.3,263.8,323.4,264,323.6z"/>
	<path class="st0" d="M279.5,313.6c-0.8-2.2-1.5-4.5-2-6.8c-0.7-2.3-1.2-4.6-1.5-7c0.8,2.2,1.5,4.5,2,6.8
		C278.7,308.9,279.2,311.2,279.5,313.6z"/>
	<path class="st0" d="M279.7,313.6c-0.6-1.4-1.4-2.8-2.2-4.1c-0.9-1.2-2-2.3-3.2-3.3c0.5,0.1,0.9,0.3,1.2,0.6
		c0.9,0.7,1.7,1.5,2.3,2.4C278.8,310.5,279.5,312,279.7,313.6z"/>
	<path class="st0" d="M279.6,403.6c0,0-0.1-0.8-0.5-2.1c-0.5-1.9-1.2-3.7-2.1-5.4c-3-5.7-6.8-11-11.1-15.7c-2.5-2.8-4.9-5.5-7-8.1
		c-1.8-2.3-3.5-4.6-5-7.2c-1-1.7-1.8-3.5-2.5-5.3c-0.2-0.6-0.4-1.2-0.5-1.5c-0.1-0.2-0.1-0.4-0.1-0.5c0,0,0.3,0.7,0.8,2
		c0.8,1.8,1.6,3.6,2.7,5.2c1.5,2.5,3.2,4.8,5,7.1c2,2.5,4.5,5.2,7,8c4.4,4.8,8.1,10.1,11.1,15.9c0.9,1.8,1.5,3.6,2,5.5
		c0.1,0.5,0.2,1,0.3,1.6C279.6,403.3,279.6,403.4,279.6,403.6z"/>
	<path class="st0" d="M304.4,375.6c-0.4,0.3-0.8,0.5-1.3,0.7c-1.2,0.7-2.3,1.4-3.4,2.2c-1.6,1.2-3.1,2.6-4.4,4
		c-1.5,1.6-3.2,3.5-4.8,5.6c-3.3,4.1-6.3,7.7-8.1,10.6c-0.9,1.4-1.6,2.6-2,3.5c-0.2,0.5-0.4,0.9-0.7,1.3c0-0.1,0.1-0.3,0.1-0.4
		c0.1-0.2,0.2-0.6,0.4-1c0.6-1.2,1.2-2.4,1.9-3.6c2.5-3.7,5.2-7.3,8.1-10.7c1.6-2,3.2-4,4.8-5.6c1.4-1.5,2.9-2.8,4.5-4
		c1.1-0.8,2.3-1.5,3.5-2.1c0.4-0.2,0.8-0.3,1-0.4S304.3,375.6,304.4,375.6z"/>
	<path class="st0" d="M304.9,384.7c-0.9,0.2-1.8,0.3-2.8,0.4c-2.2,0.2-4.4,0.7-6.5,1.3c-2.1,0.7-4.1,1.7-5.8,3.1c-1.4,1-2,1.9-2,1.9
		c0.1-0.2,0.2-0.5,0.4-0.6c0.4-0.5,0.9-1,1.4-1.5c1.7-1.4,3.7-2.6,5.9-3.2c2.2-0.6,4.4-1,6.6-1.2C303,384.6,304,384.6,304.9,384.7z"
		/>
	<path class="st0" d="M288.5,390.3c-0.1-0.1,1.1-2,2-4.5s1.1-4.8,1.3-4.8c0.1,0.5,0,1,0,1.5c-0.1,1.2-0.4,2.4-0.8,3.5
		s-1,2.2-1.6,3.2C289.2,389.5,288.9,389.9,288.5,390.3z"/>
	<path class="st0" d="M312.4,351.2c-0.1,0.1-0.3,0.2-0.4,0.2l-1.3,0.6c-0.6,0.2-1.3,0.5-2,1s-1.7,0.8-2.6,1.4l-1.5,0.9
		c-0.5,0.3-1,0.6-1.6,1c-1.1,0.7-2.2,1.5-3.4,2.3c-5.1,3.8-9.5,8.3-13.1,13.5c-0.8,1.2-1.6,2.4-2.2,3.5c-0.3,0.6-0.7,1.1-0.9,1.6
		s-0.5,1-0.8,1.5c-0.5,1-0.9,1.9-1.3,2.7s-0.7,1.5-0.9,2s-0.4,1-0.5,1.3c-0.1,0.2-0.1,0.3-0.2,0.5c0-0.2,0.1-0.3,0.1-0.5
		c0.1-0.4,0.3-0.8,0.5-1.3s0.5-1.3,0.8-2.1s0.7-1.7,1.2-2.7l0.7-1.6c0.3-0.5,0.6-1.1,0.9-1.6c0.6-1.1,1.4-2.3,2.2-3.5
		c3.6-5.3,8-9.9,13.2-13.6c1.2-0.8,2.3-1.7,3.4-2.3c0.6-0.3,1.1-0.7,1.6-1l1.5-0.8c1-0.5,1.9-0.9,2.7-1.3c0.7-0.3,1.4-0.6,2.1-0.9
		l1.3-0.5C312.1,351.3,312.2,351.2,312.4,351.2z"/>
	<path class="st0" d="M292.8,364.3c0.2-0.6,0.6-1.2,1.1-1.6c1.2-1,2.8-1.6,4.4-1.7c1.6,0,3.1,0.3,4.6,0.9c0.6,0.2,1.2,0.5,1.7,0.8
		c-0.6-0.1-1.2-0.3-1.8-0.5c-1.4-0.5-2.9-0.7-4.5-0.7c-1.5,0-3,0.5-4.2,1.5C293.6,363.4,293.2,363.8,292.8,364.3z"/>
	<path class="st0" d="M289.9,367.4c1.3-2.5,1.7-5.4,1-8.2c0.3,0.3,0.4,0.7,0.5,1.2c0.3,1,0.3,2,0.2,3.1c-0.1,1-0.4,2-0.9,3
		C290.2,367,289.9,367.4,289.9,367.4z"/>
	<path class="st0" d="M257.9,408.1c0.7,12,4.3,24.2,9.9,36.6H292c5.3-12.2,8.7-24.4,9.3-36.6H257.9z"/>
	<path class="st2" d="M297.3,427.5c0,0.1-8,0.2-17.8,0.2s-17.8-0.1-17.8-0.2s8-0.2,17.8-0.2S297.3,427.4,297.3,427.5z"/>
	<path class="st2" d="M296.8,431.9c0,0.1-7.5,0.2-16.7,0.2s-16.7-0.1-16.7-0.2s7.5-0.2,16.7-0.2S296.8,431.8,296.8,431.9z"/>
	<path class="st2" d="M268.1,416c0.3,3.7,0.3,7.4,0,11.1C267.8,423.4,267.8,419.7,268.1,416z"/>
	<path class="st2" d="M281.1,416c0.3,3.8,0.3,7.7,0,11.5C280.8,423.7,280.8,419.8,281.1,416z"/>
	<path class="st2" d="M293.3,415.9c0.3,3.9,0.3,7.9,0,11.8C293,423.7,293,419.8,293.3,415.9z"/>
	<path class="st2" d="M300.4,416c0,0.1-9.4,0.2-20.9,0.2s-20.9-0.1-20.9-0.2s9.3-0.2,20.9-0.2S300.4,415.9,300.4,416z"/>
</g>
<g id="freepik--Floor--inject-6">
	<path class="st3" d="M703.5,444.4c0,0.1-147.6,0.3-329.5,0.3s-329.6-0.1-329.6-0.3s147.6-0.3,329.6-0.3S703.5,444.3,703.5,444.4z"
		/>
</g>
<g id="freepik--plant-2--inject-6">
	<path class="st4" d="M692.8,284c-8.4,4.3-14.8,11.8-19.4,20s-7.6,17.2-10.5,26.2l-2.6,46.2c9.7-16.6,17.5-36,19.7-55.1l-6.5-0.6
		c4.3-0.7,8-3.8,10.3-7.5s3.5-8,4.7-12.3l-7.9,1.2C686.8,297.8,691.2,291.3,692.8,284z"/>
	<g class="st5">
		<path d="M692.8,284c-8.4,4.3-14.8,11.8-19.4,20s-7.6,17.2-10.5,26.2l-2.6,46.2c9.7-16.6,17.5-36,19.7-55.1l-6.5-0.6
			c4.3-0.7,8-3.8,10.3-7.5s3.5-8,4.7-12.3l-7.9,1.2C686.8,297.8,691.2,291.3,692.8,284z"/>
	</g>
	<path class="st4" d="M658.8,387.1c0,0-21.1-25.3-20.8-49.4h8.5c0,0-9.3-6.1-8.5-9.5s1-16.3,1-16.3l7.8,2c0,0-5.8-2.9-6.6-7.6
		s1.7-26.1,1.7-26.1s9.5,10,12.4,20.2s10.6,22.2,8.4,53.4S658.8,387.1,658.8,387.1z"/>
	<path class="st4" d="M669.5,389.5c0,0,22.9-15.2,28-34.7l-6.9-1.8c0,0,8.8-2.9,8.9-5.8s2.8-13.4,2.8-13.4l-6.7-0.1
		c0,0,5.3-1.1,7-4.6s4.4-21.4,4.4-21.4s-9.8,6-14.4,13.5s-13.4,15.5-18.4,41.1S669.5,389.5,669.5,389.5z"/>
	<path class="st3" d="M647.6,302.2c0,0.1,0.1,0.2,0.1,0.3l0.2,0.8c0.2,0.7,0.4,1.7,0.7,3c0.6,2.6,1.4,6.4,2.3,11.1
		s1.9,10.3,2.8,16.5s1.9,13.1,2.8,20.4s1.5,14.2,2,20.5s0.8,12,1,16.7s0.3,8.6,0.3,11.3c0,1.3,0,2.3,0,3.1v0.8c0,0.1,0,0.2,0,0.3
		c0-0.1,0-0.2,0-0.3c0-0.2,0-0.5,0-0.8c0-0.8-0.1-1.8-0.1-3.1c-0.1-2.7-0.2-6.5-0.5-11.3s-0.6-10.4-1.1-16.7s-1.2-13.2-2-20.4
		s-1.8-14.1-2.7-20.3s-1.9-11.8-2.7-16.5s-1.6-8.5-2.1-11.1c-0.2-1.3-0.4-2.3-0.6-3c-0.1-0.3-0.1-0.6-0.1-0.8
		C647.7,302.4,647.7,302.3,647.6,302.2z"/>
	<path class="st4" d="M655.9,402.6c0,0-19.3-21.9-25.3-35.2l4.5-1.9c-3.3,0.5-6.7-0.9-9.2-3c-2.4-2.3-4.5-4.9-6.2-7.8l6-1
		c-5.5-1.6-10.1-5.2-13-10.1c7,1.2,13.4,5,18.7,9.9c4.2,4,8,8.4,11.3,13.1c1.7,2.3,3.2,4.7,4.4,7.2
		C650.2,380.5,655.9,394.6,655.9,402.6z"/>
	<path class="st3" d="M697.8,320.5c0,0,0,0.1-0.1,0.2s-0.2,0.4-0.3,0.6l-1.2,2.4c-1,2.1-2.5,5.2-4.3,9c-3.5,7.6-8.2,18.2-12.8,30.2
		s-8.3,23-10.8,31c-1.2,4-2.2,7.3-2.9,9.5l-0.8,2.6l-0.2,0.7c0,0.1,0,0.2-0.1,0.2c0-0.1,0-0.2,0-0.2c0-0.2,0.1-0.4,0.2-0.7
		c0.2-0.6,0.4-1.5,0.7-2.6c0.6-2.3,1.5-5.5,2.7-9.6c2.4-8,6-19.1,10.7-31s9.4-22.6,13-30.1c1.8-3.8,3.3-6.8,4.4-8.9
		c0.5-1,1-1.8,1.2-2.4l0.3-0.6C697.7,320.7,697.8,320.6,697.8,320.5z"/>
	<path class="st3" d="M657.5,412c-0.1-0.5-0.3-1-0.3-1.6c-0.2-1-0.4-2.5-0.8-4.3c-1.8-9.4-5.2-18.3-10-26.6
		c-0.9-1.6-1.7-2.9-2.2-3.7c-0.3-0.4-0.6-0.9-0.8-1.4c0.4,0.4,0.7,0.8,1,1.3c0.6,0.8,1.4,2.1,2.4,3.6c2.4,4.1,4.5,8.4,6.2,12.9
		s3,9.1,3.8,13.8c0.3,1.8,0.5,3.3,0.6,4.3C657.5,411,657.6,411.5,657.5,412z"/>
	<rect x="640.7" y="406.9" class="st6" width="42.3" height="8.6"/>
	<polygon class="st6" points="644.8,415.5 649.4,444.5 674.9,444.5 679.2,415.5 	"/>
	<path class="st3" d="M680.5,415.5c0,0.1-8,0.3-17.9,0.3s-17.9-0.1-17.9-0.3s8-0.3,17.9-0.3S680.5,415.4,680.5,415.5z"/>
</g>
<g id="freepik--plant-1--inject-6">
	<path class="st3" d="M88.1,418.7c0,0-3.8-26-3.5-41.1s0-32.1,0-32.1h1.7c0,0-1.2,30,0.1,48.1s4.7,25.1,4.7,25.1H88.1"/>
	<path class="st4" d="M99.3,316.3c-0.3-0.9-0.8-1.7-1.6-2.3c-1.2-0.6-2.6-0.6-3.8,0c-5.3,1.9-9.9,11.7-12,16.8l7,23.5
		C101.5,342.7,103.7,327.3,99.3,316.3z"/>
	<path class="st3" d="M97.3,314.9c0,0.1,0,0.2-0.1,0.3l-0.3,0.9c-0.3,0.7-0.7,1.8-1.2,3.1c-1,2.7-2.3,6.4-3.5,10.6s-2,8.1-2.5,10.9
		c-0.2,1.4-0.4,2.5-0.6,3.4c-0.1,0.4-0.1,0.7-0.2,0.9c0,0.1,0,0.2-0.1,0.3c0-0.1,0-0.2,0-0.3c0-0.2,0.1-0.5,0.1-0.9
		c0.1-0.8,0.2-2,0.5-3.4c1.2-7.4,3.2-14.6,6-21.5c0.5-1.3,1-2.4,1.3-3.1l0.4-0.8C97.2,315.1,97.3,315,97.3,314.9z"/>
	<path class="st4" d="M85.8,360c-6.5-3.7-10.5-10.5-10.8-17.9c-0.3-5.2,1.3-10.3,3.2-15.2c0.1-0.4,0.4-0.8,0.7-1.1
		c0.6-0.2,1.3-0.1,1.8,0.3c4.8,2.7,7.6,7.9,9.2,13.1c1.1,3.5,1.5,7.2,1.1,10.8C90.4,353.7,88.6,357.3,85.8,360"/>
	<path class="st3" d="M85.8,360c0-0.1,0-0.2,0-0.3c0-0.2,0-0.5,0-0.9c0-0.8,0-1.9-0.1-3.3c-0.2-3.6-0.6-7.3-1.2-10.9
		c-0.7-4.2-1.6-8-2.3-10.7l-0.8-3.2l-0.2-0.9c0-0.1,0-0.2,0-0.3c0,0.1,0.1,0.2,0.1,0.3c0.1,0.2,0.2,0.5,0.3,0.9
		c0.2,0.8,0.5,1.9,0.9,3.2c0.7,2.7,1.6,6.5,2.3,10.7c0.6,3.6,1,7.2,1.1,10.9c0,1.4,0,2.5,0,3.3c0,0.4,0,0.7,0,0.9
		C85.9,359.8,85.9,359.9,85.8,360z"/>
	<g class="st5">
		<path d="M85.8,360c-6.5-3.7-10.5-10.5-10.8-17.9c-0.3-5.2,1.3-10.3,3.2-15.2c0.1-0.4,0.4-0.8,0.7-1.1c0.6-0.2,1.3-0.1,1.8,0.3
			c4.8,2.7,7.6,7.9,9.2,13.1c1.1,3.5,1.5,7.2,1.1,10.8C90.4,353.7,88.6,357.3,85.8,360"/>
	</g>
	<path class="st4" d="M93.2,399.7c6.4,1.4,11.7,6,18,8.2c4.1,1.5,8.8,2,12,4.9c-0.8-2-2.7-3.3-4.5-4.5c-5.1-3.2-10.6-5.8-16.3-7.8
		c-2.9-1-6.1-1.9-9.1-1"/>
	<path class="st4" d="M83.9,405.4c-8.1-0.1-16.5-7-24.6-7.4C67.7,395.3,79.7,397.5,83.9,405.4"/>
	<path class="st4" d="M87,386.1c4.2-1.4,8.6-1.7,12.9-0.9c4.3,0.8,8.5,1.9,12.6,3.4c-0.4-2.8-2.7-4.9-4.8-6.8
		c-1.5-1.5-3.2-2.8-5-3.9s-3.9-1.7-6.1-1.7c-2.6,0.2-5,1.4-6.7,3.4C88.3,381.4,87.2,383.7,87,386.1"/>
	<path class="st4" d="M70.5,377.2c-5.1-4.3-12.8-3.9-19.4-3.8c10.7,5.1,20.8,11.4,30.1,18.8C81.5,387.5,76.9,382.7,70.5,377.2z"/>
	<g class="st5">
		<path d="M70.5,377.2c-5.1-4.3-12.8-3.9-19.4-3.8c10.7,5.1,20.8,11.4,30.1,18.8C81.5,387.5,76.9,382.7,70.5,377.2z"/>
	</g>
	<path class="st4" d="M89.3,371.2c2.5-1.7,5.1-3.2,7.8-4.5c2.7-1.2,5.2-3.1,7.8-4.5c3.3-1.8,6.2-4.3,9.3-6.6s6.4-4.3,10.2-4.9
		c-3.1-0.5-6.3-0.4-9.3,0.5s-5.9,2-8.7,3.4c-4,1.8-8,3.6-11.2,6.5S89,366.9,89.3,371.2"/>
	<path class="st3" d="M111,405.4c-0.1,0-0.2-0.1-0.3-0.1L110,405c-0.6-0.3-1.5-0.8-2.6-1.4c-0.5-0.3-1.1-0.6-1.8-0.9s-1.3-0.6-2.1-1
		c-1.6-0.7-3.3-1.3-5-1.7c-1.7-0.5-3.5-0.5-5.2-0.1c-0.7,0.2-1.5,0.4-2.2,0.6c-1.5,0.6-2.9,1.6-4,2.8c-0.5,0.5-0.7,0.8-0.7,0.8
		l0.2-0.2c0.2-0.2,0.3-0.4,0.5-0.6c0.6-0.7,1.4-1.4,2.2-1.9c0.6-0.4,1.2-0.7,1.8-1c0.7-0.3,1.5-0.5,2.2-0.7c1.7-0.4,3.6-0.4,5.3,0.1
		c1.7,0.4,3.4,1,5,1.8c0.7,0.3,1.4,0.7,2.1,1s1.2,0.6,1.8,0.9c1.1,0.6,1.9,1.1,2.5,1.4l0.7,0.4C110.8,405.3,110.9,405.4,111,405.4z"
		/>
	<path class="st3" d="M77.9,401.4c0.2,0,0.3,0.1,0.5,0.1c0.4,0.2,0.9,0.4,1.3,0.6c1.4,0.7,2.7,1.6,3.8,2.7c1.1,1.1,2.1,2.4,2.9,3.7
		c0.2,0.4,0.4,0.8,0.6,1.3c0.1,0.2,0.1,0.3,0.2,0.5c0,0-0.3-0.7-1-1.7c-0.8-1.3-1.8-2.6-2.9-3.6c-1.1-1.1-2.4-2-3.8-2.8
		C78.6,401.8,77.8,401.5,77.9,401.4z"/>
	<path class="st3" d="M60,376.8c0.1,0,0.2,0.1,0.3,0.1l1,0.3l1.5,0.6c0.6,0.2,1.2,0.5,2,0.9c3.8,1.7,7.3,4,10.5,6.7
		c1.7,1.5,3.4,3.1,4.9,4.8c1.2,1.4,2.4,2.9,3.5,4.4c0.9,1.3,1.6,2.4,2.1,3.1l0.6,0.9c0.1,0.1,0.1,0.2,0.2,0.3l-0.2-0.3
		c-0.1-0.2-0.3-0.5-0.6-0.8c-0.5-0.7-1.2-1.8-2.2-3.1s-2.1-2.8-3.5-4.4c-1.5-1.7-3.2-3.3-4.9-4.8c-3.2-2.7-6.7-4.9-10.4-6.7
		c-0.7-0.3-1.4-0.7-2-0.9l-1.5-0.6l-1-0.4L60,376.8z"/>
	<path class="st3" d="M99.1,381.6c-0.2,0-0.4,0-0.6-0.1l-0.7-0.1c-0.3,0-0.6,0-1-0.1c-3-0.3-6,0.8-8.1,3c-0.6,0.6-1.2,1.3-1.6,2
		s-0.8,1.4-1.1,2.1c0-0.2,0.1-0.4,0.2-0.6c0.2-0.6,0.5-1.1,0.8-1.6c0.4-0.8,1-1.5,1.6-2.1c0.7-0.8,1.6-1.4,2.6-1.9
		c1.8-0.9,3.7-1.2,5.7-1c0.4,0,0.7,0.1,1,0.1l0.7,0.2C98.7,381.4,98.9,381.5,99.1,381.6z"/>
	<path class="st3" d="M107.2,356.4l-0.3,0.2l-0.9,0.5c-0.8,0.4-1.9,1-3.3,1.9s-3,1.8-4.7,3c-1.9,1.3-3.6,2.8-5.2,4.4
		c-0.8,0.8-1.5,1.7-2.1,2.8c-0.5,1-1,2-1.5,2.9c-0.8,1.7-1.6,3.4-2.2,5.1c-0.4,1.2-0.8,2.4-1.1,3.6c-0.2,0.9-0.3,1.3-0.3,1.3
		c0-0.1,0-0.2,0-0.4c0-0.2,0.1-0.6,0.2-1c0.2-1.2,0.6-2.4,1-3.6c0.6-1.7,1.4-3.5,2.2-5.1c0.5-1,1-1.9,1.5-3c0.6-1,1.3-2,2.2-2.8
		c1.6-1.6,3.4-3.1,5.3-4.4c1.7-1.2,3.3-2.2,4.7-3s2.5-1.4,3.3-1.8l0.9-0.4C107,356.5,107.1,356.5,107.2,356.4z"/>
	<path class="st3" d="M84.6,380.8c-0.1-0.2-0.1-0.4-0.2-0.7l-0.3-1.9c-0.8-4.1-2-8.1-3.8-11.9l-0.8-1.7c-0.1-0.2-0.2-0.4-0.3-0.6
		c0.1,0.2,0.3,0.4,0.4,0.6c0.2,0.4,0.5,1,0.9,1.7c0.9,1.9,1.7,3.8,2.4,5.8c0.6,2,1.1,4,1.5,6.1c0.1,0.8,0.2,1.4,0.3,1.9
		C84.6,380.4,84.6,380.6,84.6,380.8z"/>
	<path class="st4" d="M84,362.5c-0.2-3.1-1.1-6-2.6-8.7c-4-7.5-11.2-12.8-19.5-14.5l18,26.9l2.3,4.8C83.7,368.4,84.3,365.4,84,362.5
		z"/>
	<rect x="68" y="415.5" class="st6" width="41.9" height="7.4"/>
	<polygon class="st6" points="71.1,421.4 74.7,444.5 102.5,444.5 106.8,421.4 	"/>
	<path class="st3" d="M109.9,422.9c0,0.1-9.5,0.1-21.1,0.1s-21.1-0.1-21.1-0.1s9.5-0.1,21.1-0.1S109.9,422.8,109.9,422.9z"/>
</g>
<g id="freepik--character-3--inject-6">
	<path class="st7" d="M618.3,251.9c0,0-7.1-0.2-11.1,3.9l5.8,10.3l10.9-2.2l1-3.5l1.8-6.6L618.3,251.9z"/>
	<path class="st4" d="M546.3,242.9c0,0,3.5,2.2,4.3,4.6s20.7,16.5,20.7,16.5l2.7-0.7l31.9-9.8l8,14.4l-39.5,14.8
		c-1.2,0.2-29.2-8.9-29.2-8.9L546.3,242.9z"/>
	<path class="st6" d="M622.1,275.9l-24.3-7.7l-10,31.3l-33.7-10.7l10-31.3l-80.3-25.6l7.4-23.2l100.5-72.2L628,148l-93.8,68.9
		l40,12.8l8.9-27.9l32.6,10.4l-8.9,27.9l24.3,7.7L622.1,275.9z"/>
	<g class="st5">
		<path d="M622.1,275.9l-24.3-7.7l-10,31.3l-33.7-10.7l10-31.3l-80.3-25.6l7.4-23.2l100.5-72.2L628,148l-93.8,68.9l40,12.8l8.9-27.9
			l32.6,10.4l-8.9,27.9l24.3,7.7L622.1,275.9z"/>
	</g>
	<path class="st6" d="M612.9,273.1l-24.3-7.7l-10,31.3L545,286l10-31.3L474.7,229l7.4-23.2l100.4-72.2l36.2,11.6L525,214.1l40,12.8
		l8.9-27.9l32.6,10.4l-8.9,27.9l24.3,7.7L612.9,273.1z"/>
	<g class="st5">
		<path d="M549.9,253l-0.3-9.8l0.8-4.8c0,0,9.2,0.3,11.2-3.1c1.5-2.8,2.7-5.7,3.6-8.6l-11.5-2.7l-8.4,13.2l-2.5,6.5l4,8.4L549.9,253
			z"/>
	</g>
	<path class="st3" d="M534.5,211.6c0.1-3.9,0.5-7.8,1.3-11.6s2.5-7.4,5-10.4c0.4-0.4,3.4-3.3,3.9-3c0.4,0.2-1.9,3-1.8,3.4
		c0.5,4-0.2,8.1-2.1,11.7C539.1,205.2,537,208.5,534.5,211.6"/>
	<path class="st7" d="M547.2,239.5c1-2.5,1.8-4.5,1.8-4.5s9.2,2.5,13.1-6c1.9-4.1,5.1-12.9,7.9-20.8c3-8.6-1-18-9.3-21.8l-0.8-0.4
		c-9.1-3.5-17.2,2.4-20.4,11.6l-12.2,31.9l3.3,9.8c1.6,4.6,6.6,7.1,11.2,5.5C544.3,243.9,546.2,242,547.2,239.5L547.2,239.5z"/>
	<g>
		<path class="st3" d="M565.4,213.9c-0.3,0.7-1.1,1-1.8,0.7c-0.7-0.2-1-1-0.8-1.7l0,0c0.3-0.7,1.1-1,1.8-0.7
			C565.3,212.5,565.7,213.2,565.4,213.9L565.4,213.9z"/>
		<path class="st3" d="M566.3,211.9c-0.2,0.1-0.9-1-2.2-1.6c-1.4-0.6-2.6-0.4-2.7-0.6c-0.1-0.2,0.3-0.3,0.8-0.4
			c0.8-0.1,1.6,0,2.3,0.3s1.3,0.8,1.7,1.5C566.4,211.5,566.4,211.8,566.3,211.9z"/>
		<path class="st3" d="M553.1,208.3c-0.3,0.7-1.1,1-1.8,0.7c-0.7-0.2-1-1-0.8-1.7l0,0c0.3-0.7,1.1-1,1.8-0.7
			C553,206.8,553.3,207.6,553.1,208.3L553.1,208.3z"/>
		<path class="st3" d="M553.7,206.4c-0.2,0.1-0.9-1-2.2-1.6s-2.6-0.4-2.7-0.6c-0.1-0.2,0.2-0.3,0.8-0.4c0.8-0.1,1.5,0,2.3,0.3
			c0.7,0.3,1.3,0.8,1.7,1.5C553.8,206,553.8,206.3,553.7,206.4z"/>
		<path class="st3" d="M553.4,218c0.8,0.1,1.6,0.3,2.4,0.6c0.3,0.2,0.7,0.2,0.9,0c0.2-0.3,0.3-0.7,0.2-1.1c0-1,0.1-2,0.2-3
			c0.3-4.3,0.6-7.7,0.8-7.7s0.1,3.5-0.1,7.8l-0.2,3c0,0.5-0.1,1-0.4,1.4c-0.2,0.2-0.5,0.3-0.8,0.2c-0.2,0-0.4-0.1-0.6-0.2
			C554.9,218.8,554.1,218.4,553.4,218z"/>
		<path class="st3" d="M548.3,199.5c0.2-0.4,1.6-0.1,3.4-0.2c1.7-0.1,3.2-0.5,3.4-0.1c0.1,0.2-0.2,0.5-0.8,0.9
			c-1.6,0.9-3.5,1-5.1,0.3C548.5,200,548.2,199.7,548.3,199.5z"/>
		<path class="st3" d="M564.7,205.6c0.4,0,0.8,1,1.7,1.9c0.8,0.9,1.7,1.5,1.6,1.9c-0.1,0.2-0.4,0.3-1,0.2c-0.7-0.2-1.3-0.6-1.8-1.2
			c-0.5-0.5-0.8-1.2-0.9-1.9C564.4,206,564.5,205.6,564.7,205.6z"/>
		<path class="st8" d="M546,209.6c-0.1,0-0.1-0.1-0.1-0.2l0,0c0-0.1,0.1-0.1,0.2-0.1c0.1,0,0.1,0.1,0.1,0.2
			C546.2,209.5,546.1,209.6,546,209.6z"/>
		<path class="st8" d="M548.8,210.2c-0.1,0-0.1-0.1-0.1-0.2c0-0.1,0.1-0.2,0.2-0.2l0,0c0.1,0,0.1,0.1,0.1,0.2
			C549,210.2,548.9,210.2,548.8,210.2z"/>
		<path class="st8" d="M550.6,210.9c-0.1,0-0.1-0.2-0.1-0.3s0.1-0.2,0.2-0.2c0.1,0,0.1,0.2,0.1,0.3
			C550.7,210.9,550.6,211,550.6,210.9z"/>
		<path class="st8" d="M546.5,211.7c-0.1,0-0.1-0.1-0.1-0.2c0-0.1,0.1-0.1,0.2,0c0.1,0,0.1,0.1,0.1,0.2
			C546.7,211.7,546.6,211.7,546.5,211.7z"/>
		<path class="st8" d="M549.1,212.3c-0.1,0-0.1-0.1-0.1-0.2l0,0c0-0.1,0.1-0.1,0.2-0.1c0.1,0,0.1,0.1,0.1,0.2l0,0
			C549.3,212.2,549.2,212.3,549.1,212.3L549.1,212.3z"/>
		<path class="st8" d="M562,216.5c-0.1,0-0.1-0.1-0.1-0.2c0-0.1,0.1-0.2,0.2-0.1c0.1,0,0.1,0.1,0.1,0.2l0,0
			C562.2,216.4,562.1,216.5,562,216.5L562,216.5z"/>
		<path class="st8" d="M563.9,217.1c-0.1,0-0.1-0.2-0.1-0.2c0-0.1,0.1-0.2,0.2-0.1c0.1,0,0.1,0.1,0.1,0.2
			C564.1,217.1,564,217.1,563.9,217.1z"/>
		<path class="st8" d="M560.5,215.8c-0.1,0-0.1-0.1-0.1-0.2l0,0c0-0.1,0.1-0.1,0.2-0.1l0,0c0.1,0,0.1,0.1,0.1,0.2l0,0
			C560.6,215.8,560.5,215.8,560.5,215.8L560.5,215.8z"/>
		<path class="st8" d="M560.9,218.1c-0.1,0-0.2-0.1-0.2-0.2c0-0.1,0.1-0.2,0.2-0.2l0,0c0.1,0,0.2,0.1,0.2,0.2l0,0
			C561.1,218,561.1,218.1,560.9,218.1C561,218.1,561,218.1,560.9,218.1z"/>
		<path class="st8" d="M562.6,218.5c-0.1,0-0.1-0.1,0-0.2c0.1-0.1,0.2-0.1,0.2,0c0.1,0,0.1,0.1,0,0.2
			C562.8,218.5,562.7,218.5,562.6,218.5z"/>
		<path class="st9" d="M552.6,222.3c-0.4-0.7-0.9-1.3-1.4-1.8c-0.4-0.3-0.9-0.5-1.4-0.3c-0.4,0.1-0.8,0.4-1,0.8
			c-0.3,0.4-0.4,1-0.3,1.5c0.2,0.6,0.5,1.1,1,1.4c0.3,0.4,0.8,0.6,1.2,0.7c0.5,0,1-0.2,1.3-0.6C552.3,223.5,552.5,222.9,552.6,222.3
			"/>
		<path class="st3" d="M549.8,224.1c-0.4-0.1-0.8-0.4-1-0.8c-0.3-0.4-0.5-0.9-0.5-1.4c0-0.7,0.3-1.3,0.8-1.6c0.3-0.2,0.6-0.3,1-0.2
			c0.3,0,0.6,0.1,0.9,0.3c0.4,0.3,0.7,0.7,1,1.1c0.4,0.7,0.8,1,0.7,1c0,0-0.5-0.2-1-0.9c-0.3-0.4-0.6-0.7-1-0.9
			c-0.4-0.3-1-0.3-1.4,0s-0.7,0.8-0.7,1.3c0,0.4,0.1,0.9,0.3,1.2C549.4,223.8,549.8,224,549.8,224.1z"/>
	</g>
	<path class="st9" d="M549,235c-3.9-1.8-7.3-4.6-9.7-8.3c0,0-0.1,7.4,8.8,10.5L549,235z"/>
	<path class="st7" d="M537.4,204.2c-0.1-0.1-5.1-4.4-7.5,1.6s4,7.1,4.1,7S537.4,204.2,537.4,204.2z"/>
	<path class="st9" d="M533,209.8c0,0-0.1,0-0.3,0c-0.3,0-0.6-0.1-0.8-0.3c-0.6-0.8-0.7-1.9-0.2-2.8c0.2-0.5,0.5-1,0.9-1.4
		c0.3-0.3,0.7-0.5,1.1-0.5c0.3,0,0.5,0.3,0.5,0.5s-0.1,0.3,0,0.3s0.2,0,0.2-0.3c0-0.2,0-0.3-0.1-0.5s-0.3-0.3-0.5-0.4
		c-0.5-0.1-1.1,0.1-1.5,0.5c-0.5,0.4-0.8,0.9-1,1.5c-0.5,1.1-0.3,2.3,0.5,3.2c0.3,0.2,0.6,0.3,1,0.2
		C533,209.9,533.1,209.8,533,209.8z"/>
	<path class="st3" d="M570.1,196.7c1.2-0.1-0.5-4.4-2.4-6.4c-2.9-3.1-8-6.2-11.7-6.6c-4.4-0.5-8.5,0.2-11.9,3
		c-3.4,2.9-5.9,6.7-7.4,10.9c-0.6,1.3-0.8,2.6-0.6,4c0.3,1.6,1.6,3.1,0.8,4.9c-0.3,0.6-0.3,1.4-0.1,2.1c0.6,1.6,2.4,1,3.4,0.2
		c2.2-1.8,3.5-4.5,4.7-7.2c0.9-1.8,1.6-3.8,1.9-5.8c0.1-1.1,0-2.2,0.2-3.3c0.1-1.1,0.7-2.2,1.6-2.8c0.2-0.1,0.4-0.2,0.7-0.3
		c2.3-0.8,4.8-0.3,6.6,1.3c2.9,2.5,7.9,6.6,9.8,6c1.3-0.3,2.6-0.8,3.7-1.6L570.1,196.7z"/>
	<path class="st9" d="M556.7,171.1c-1.1,2.2-2.3,4.2-3.7,6.2c-1.2,2.1-2.6,4.1-4.1,5.9c1.1-2.2,2.3-4.2,3.7-6.2
		C553.8,174.9,555.2,173,556.7,171.1z"/>
	<path class="st3" d="M530.7,355.4l18.6,17.7c0,0-9,60.3-7.4,60.4l22.2,1.6c0,0,13.4-69.8,12.4-73.9S543,324.9,543,324.9l-0.4-5.5
		l-9.2-1.2L530.7,355.4z"/>
	<path class="st3" d="M495.8,331.3c1.8,4.1,4.8,8.9,5.4,13l11.3,41.2l-40.4,49l18,15.1c0,0,48.6-52.5,50.3-58.9
		c1.3-5.1-4.1-57-4.1-57l1.8-14.8l-42-10v0.1C492.7,316,492.6,324.1,495.8,331.3z"/>
	<path class="st3" d="M499.5,435.8l-13,15c0,0,10,17.7,7.9,20.7l-28.4-23l19.4-24.2L499.5,435.8z"/>
	<path class="st0" d="M478.8,442.4c-0.7-0.3-1.6,0-1.9,0.7c-0.4,0.7-0.1,1.5,0.6,1.9c0.8,0.3,1.6-0.1,2-0.8c0.3-0.8-0.1-1.6-0.9-1.9
		l0,0"/>
	<path class="st4" d="M466,448.4l2-2.4l26.5,23c0,0,0.8,1.6-0.1,2.4L466,448.4z"/>
	<path class="st10" d="M487.1,451c-0.1,0.1-0.9-0.4-1.9-0.4s-1.9,0.2-2,0.1s0.8-0.8,2.1-0.7S487.2,450.9,487.1,451z"/>
	<path class="st10" d="M489,454.7c-0.1,0.2-0.9-0.1-1.9,0.2s-1.6,0.8-1.8,0.7s0.5-1,1.7-1.3S489.1,454.6,489,454.7z"/>
	<path class="st10" d="M487.7,459.9c-0.1-0.1,0.2-1,1.2-1.5s1.9-0.3,1.9-0.1s-0.8,0.3-1.6,0.7S487.8,460,487.7,459.9z"/>
	<path class="st10" d="M489.7,447.3c-0.2,0.1-0.6-0.6-1.5-1.2s-1.7-0.8-1.6-1s1-0.2,2,0.5S489.9,447.2,489.7,447.3z"/>
	<path class="st3" d="M563.2,422.9l-0.2,20.2c0,0,19.4,7.1,19.7,10.9l-37.2,0.8l-0.8-31.6L563.2,422.9z"/>
	<path class="st0" d="M551.4,441.7c-0.7,0.3-1.2,1.1-1,1.9s1,1.2,1.7,1.1c0.8-0.3,1.3-1.2,1.1-2c-0.3-0.8-1.1-1.2-1.9-0.9l0,0"/>
	<path class="st4" d="M545.5,454.8v-3.2l35.7,0.5c0,0,1.7,0.7,1.5,2L545.5,454.8z"/>
	<path class="st10" d="M563.6,442.9c0,0.2-0.9,0.3-1.8,0.9s-1.3,1.5-1.5,1.4s0.1-1.2,1.2-1.9S563.6,442.8,563.6,442.9z"/>
	<path class="st10" d="M567.5,444.5c0,0.2-0.7,0.5-1.3,1.4s-0.8,1.7-1,1.7s-0.3-1.1,0.5-2.1S567.5,444.4,567.5,444.5z"/>
	<path class="st10" d="M569.9,449.4c-0.2,0-0.4-0.9,0-2s1.3-1.5,1.4-1.3s-0.4,0.7-0.8,1.6S570,449.4,569.9,449.4z"/>
	<path class="st10" d="M563.2,438.3c-0.1,0.2-0.9-0.1-1.9,0s-1.8,0.5-1.9,0.3s0.7-0.9,1.9-1S563.2,438.1,563.2,438.3z"/>
	<path class="st4" d="M536.7,330.2c0,0.2,0.1,0.4,0.1,0.5c0,0.4,0.1,0.9,0.2,1.5c0.2,1.3,0.4,3.3,0.6,5.7c0.5,4.8,1,11.5,1.5,18.9
		s0.9,14,1.2,18.9c0.1,2.4,0.2,4.3,0.3,5.7l0.1,1.6c0,0.2,0,0.4,0,0.5c-0.1-0.2-0.1-0.4-0.1-0.5c0-0.4-0.1-0.9-0.2-1.5
		c-0.1-1.4-0.3-3.4-0.5-5.7c-0.4-4.8-0.8-11.5-1.3-18.9s-1-14-1.3-18.9c-0.2-2.4-0.3-4.3-0.4-5.7c0-0.6-0.1-1.1-0.1-1.6
		C536.7,330.6,536.7,330.4,536.7,330.2z"/>
	<path class="st7" d="M635,251.4c0.8,1.5-2.3,2.9-2.3,2.9c0.7,0.6,0,3.1-1.3,3.3c0.5,0.4,0.9,0.5,1.2,1.1s0.2,1.3-0.2,1.9
		s-1.1,0.8-1.8,0.6c0.7,0.8,0.7,2,0.2,2.9c-0.3,0.5-0.8,0.9-1.5,1.1c-0.3,0.1-0.6,0.1-0.9,0.1c-0.1,0-0.2,0-0.3,0L628,265
		c-0.2-0.2-0.3-0.4-0.5-0.6l-0.2-0.2c-0.3-0.3-0.7-0.5-1.1-0.7c-0.2-0.1-0.4-0.1-0.6-0.2c-0.1-0.1-0.2-0.2-0.3-0.3
		c-0.7-0.5-1.5-0.8-2.3-1c-0.9-0.2-1.8-0.7-2.4-1.3c-0.7-0.7-0.6-1.8,0.1-2.5c-0.6-0.1-1.1-0.7-1-1.3c0.1-0.6,0.5-1.1,1-1.4
		c0.5-0.2,1.2-0.3,1.8-0.3c-0.7-0.3-1-1-0.8-1.7c0.3-0.7,0.8-1.1,1.5-1.3c0.7-0.1,1.4-0.1,2.1,0.1c0.7,0.1,3.5,0.7,4.2,0.8l0.7-1.9
		l0.1-0.2c1.3-0.2,1.6-0.3,2.8-0.3C633.8,250.7,634.6,250.8,635,251.4z"/>
	<path class="st7" d="M628.2,267.7c-0.1,0.6-0.5,1.1-1,1.3c-0.8,0.1-1.7,0-2.5-0.3l0.5-1.9l0.1-0.5c-0.1-0.4-0.9-0.6-1.3-0.9
		c-0.6-0.5-0.7-1.5-0.2-2.1s1.4-0.8,2.1-0.6c0.8,0.3,1.4,0.8,1.8,1.5C628.4,265.2,628.5,266.5,628.2,267.7z"/>
	<path class="st9" d="M630.8,261.2c-1.6-0.7-3.3-1.3-5-1.7c-1.7-0.6-3.4-1-5.2-1.2c1.6,0.7,3.3,1.3,5.1,1.7
		C627.3,260.6,629.1,261,630.8,261.2z"/>
	<path class="st9" d="M631.5,257.5c-1.4-0.8-3-1.4-4.6-1.7c-1.6-0.5-3.2-0.7-4.8-0.6c1.5,0.5,3.1,0.9,4.7,1.2
		C628.4,256.9,630,257.3,631.5,257.5z"/>
	<path class="st9" d="M632.2,254c-1.2-0.6-2.5-1.1-3.8-1.2c-1.3-0.4-2.6-0.5-4-0.6c1.2,0.5,2.5,0.9,3.8,1.1
		C629.6,253.7,630.9,253.9,632.2,254z"/>
	<path class="st9" d="M628.2,266.5c0.1,0,0.3-0.3,0.2-0.9c-0.1-0.8-0.5-1.5-1.2-1.9c-0.6-0.5-1.3-0.8-2-1.1c-0.6-0.1-1,0.2-0.9,0.3
		s0.3-0.1,0.8,0.1c0.6,0.3,1.2,0.7,1.7,1.1s0.9,1,1.1,1.6C628.2,266.1,628.1,266.4,628.2,266.5z"/>
	<path class="st3" d="M544.9,284.3c0-0.5,0-1,0.1-1.5c0.1-1,0.2-2.4,0.4-4c0.3-3.4,0.7-8.1,0.9-13.4s0.2-10,0.2-13.4
		c0-1.6,0-3-0.1-4.1c0-0.5,0-1,0-1.5c0.1,0.5,0.2,1,0.2,1.5c0.1,1,0.2,2.3,0.2,4.1c0.2,3.4,0.2,8.2,0,13.4s-0.6,10-1,13.4
		c-0.2,1.7-0.4,3.1-0.5,4C545.2,283.3,545.1,283.8,544.9,284.3z"/>
	<path class="st4" d="M529.4,223.3c-0.9,0.5-17.9,8.8-21.5,12.9s-9.1,30.1-9.1,30.1l-4.1,23.1l-3.2,34.3l53.2,0.6
		c2.1-4.7,0.7-9.6-1.8-14.5l4.1-54.2l-0.7-12.7L529.4,223.3z"/>
	<path class="st4" d="M506.6,250.9c0,0-8.9-3.8-9.8-9.5s0.2-7.2,1.7-9.6s28.7-31.3,28.7-31.3l13.3,10.9L521.2,234c0,0,2.8,0.4,1.9,4
		"/>
	<path class="st3" d="M523.1,238.1c0.1-0.4,0.1-0.9,0.1-1.3c0-0.5-0.1-1-0.4-1.5c-0.4-0.6-1-1-1.7-1.1H521l0.1-0.1l19.1-22.7v0.3
		l-13.3-10.9h0.3l-5,5.4L506.5,223c-2.4,2.6-4.7,5.1-6.7,7.5c-0.5,0.6-1,1.2-1.4,1.8s-0.8,1.3-1.1,1.9c-0.5,1.3-0.8,2.6-0.7,4
		c0,1.3,0.2,2.5,0.5,3.8c0.3,1.1,0.8,2.1,1.5,2.9c1.1,1.4,2.5,2.6,4,3.6c0.9,0.6,1.9,1.2,3,1.8l0.8,0.4c0.1,0,0.2,0.1,0.3,0.1
		c-0.1,0-0.2-0.1-0.3-0.1l-0.8-0.4c-1-0.5-2-1.1-3-1.7c-1.6-1-2.9-2.2-4.1-3.6c-0.7-0.9-1.3-1.9-1.6-3c-0.3-1.3-0.5-2.5-0.5-3.8
		c-0.1-1.4,0.2-2.9,0.7-4.2c0.6-1.4,1.5-2.7,2.5-3.8c2.1-2.4,4.3-4.9,6.7-7.5c4.8-5.2,10.1-11,15.6-16.9l5-5.4l0.2-0.2l0.2,0.2
		l13.3,10.9l0.2,0.2l-0.2,0.2l-19.3,22.5l-0.1-0.2c0.7,0.1,1.4,0.6,1.8,1.3c0.3,0.5,0.4,1,0.3,1.6c0,0.3-0.1,0.7-0.1,1
		C523.1,237.9,523.1,238,523.1,238.1z"/>
	<path class="st7" d="M528.9,177.3c0,0-1.6-1.2-1.9,1.4s2.2,13,2.5,13s1.8,6,1.6,6.8s-2.5,3.3-2.5,3.3l10.6,8.7l3.3-5.9
		c2.5-1,4.6-2.7,6.2-4.8c2.4-3.5,11.5-16.9,11.7-18.7s-1.6-2.1-3-0.3s-4.5,6-5.1,6.3s-0.9-0.5-0.6-1s6.3-10,6.8-11.8
		c0.8-2.4-1.8-2.8-1.8-2.8s0.9-2.5-0.4-2.9s-2.6,0.8-4,2.9s-6.2,9-6.7,9.3s-0.9,0-0.5-0.9s6.2-9.4,6.2-10.6s-0.9-3.1-3.4-0.6
		s-8,13-8.8,13.9s-3.4,3.8-4.3,3.5s-3.3-3.3-3.8-5.5C530.7,179.2,529.9,178.1,528.9,177.3z"/>
	<path class="st9" d="M528.9,177.3c0.4,0.2,0.7,0.6,1,0.9c0.4,0.4,0.6,1,0.8,1.5c0.1,0.3,0.2,0.7,0.3,1c0.1,0.4,0.3,0.8,0.5,1.1
		c0.4,0.9,1,1.7,1.6,2.4s1.6,2.1,2.6,1c1-0.8,2-1.8,2.9-2.8c0.5-0.5,0.9-1.1,1.2-1.8l1.2-2c1.6-2.8,3.3-5.8,5.5-9
		c0.6-0.8,1.2-1.6,2-2.2c0.4-0.3,1-0.5,1.5-0.5c0.6,0.1,1.1,0.6,1.2,1.1c0.1,0.3,0.1,0.5,0.2,0.8c0,0.2,0,0.3-0.1,0.4l-0.2,0.4
		c-0.2,0.5-0.5,0.9-0.7,1.4c-0.5,0.9-1.1,1.8-1.7,2.7l-3.5,5.6c-0.1,0.2-0.2,0.4-0.2,0.7c0,0.1,0,0.1,0.1,0.1s0.1,0,0.2,0l0.1-0.1
		l0.1-0.2c0.1-0.1,0.2-0.2,0.3-0.3l0.5-0.7c0.7-0.9,1.4-1.9,2.1-2.9l4.2-6c0.4-0.5,0.8-1,1.3-1.4c0.5-0.5,1.1-0.8,1.8-0.8
		c0.4,0,0.7,0.1,1,0.4c0.3,0.3,0.4,0.6,0.4,1c0,0.7-0.1,1.4-0.3,2l-0.2-0.3c0.9,0.1,1.6,0.7,2,1.5c0.3,0.8,0.2,1.7-0.3,2.4
		c-0.7,1.4-1.5,2.8-2.3,4.2l-2.5,4.1l-1.3,2.1l-0.3,0.5l-0.2,0.2c0,0.1-0.1,0.1-0.1,0.2c0,0.1,0,0.3,0.1,0.4c0.1,0.1,0.2,0.1,0.3,0
		c0.2-0.1,0.3-0.3,0.5-0.4l0.5-0.5l0.9-1.1c0.6-0.8,1.2-1.5,1.8-2.3s1.1-1.5,1.8-2.3c0.4-0.4,0.8-0.7,1.3-0.8c0.6-0.2,1.2,0,1.5,0.4
		c0.3,0.5,0.4,1,0.2,1.6c-0.1,0.2-0.2,0.5-0.3,0.7s-0.2,0.4-0.3,0.6c-0.4,0.8-0.9,1.6-1.4,2.4c-0.9,1.6-1.9,3.1-2.9,4.6
		c-1.9,3-3.9,5.9-5.8,8.7c-0.5,0.7-0.9,1.4-1.4,2.1c-0.5,0.7-1.1,1.3-1.7,1.8c-1.2,1.1-2.7,1.9-4.2,2.6l0.1-0.1l-3.3,5.9l-0.1,0.2
		l-0.2-0.2l-10.5-8.7l-0.2-0.1l0.1-0.1c0.7-0.8,1.4-1.5,2-2.4c0.1-0.2,0.3-0.4,0.4-0.6c0.1-0.2,0.2-0.4,0.1-0.6c0-0.5-0.1-1-0.2-1.4
		c-0.2-0.9-0.4-1.8-0.6-2.7c-0.1-0.4-0.2-0.9-0.4-1.3c-0.1-0.2-0.1-0.4-0.2-0.6c0-0.1-0.1-0.2-0.1-0.2l0,0c0,0,0.1,0,0,0
		s-0.1,0-0.2-0.1l0,0l-0.1-0.2c-0.5-1.5-0.9-3-1.2-4.6c-0.3-1.4-0.5-2.7-0.7-3.9c-0.3-2.3-0.7-4.2-0.1-5.4c0.1-0.3,0.3-0.5,0.6-0.6
		c0.2-0.1,0.4-0.1,0.6,0C528.6,177,528.7,177.1,528.9,177.3c0-0.1-0.2-0.2-0.5-0.3c-0.2-0.1-0.4-0.1-0.6,0c-0.3,0.1-0.5,0.3-0.5,0.5
		c-0.5,1.1-0.2,3,0.2,5.4c0.5,2.8,1.2,5.6,2,8.4c0,0,0,0.1,0.1,0.1l0,0c0,0-0.1,0-0.1,0.1s0,0.2,0-0.1l0,0h0.1v0.1
		c0.1,0.1,0.1,0.2,0.2,0.3c0.1,0.2,0.2,0.4,0.2,0.6c0.1,0.4,0.3,0.8,0.4,1.3c0.2,0.9,0.5,1.8,0.6,2.7c0.1,0.5,0.2,1,0.2,1.5
		c0,0.1,0,0.3,0,0.4c0,0.1-0.1,0.3-0.2,0.4c-0.1,0.2-0.3,0.5-0.4,0.7c-0.6,0.8-1.3,1.6-2,2.4v-0.3l10.6,8.7l-0.3,0.1
		c1-1.9,2.1-3.9,3.3-5.9v-0.1h0.1c1.5-0.6,2.8-1.4,4-2.5c0.6-0.5,1.2-1.1,1.7-1.8c0.5-0.6,1-1.4,1.4-2.1c1.9-2.8,3.8-5.7,5.8-8.7
		c1-1.5,1.9-3,2.9-4.6c0.5-0.8,0.9-1.6,1.4-2.4c0.1-0.2,0.2-0.4,0.3-0.6c0.1-0.2,0.2-0.4,0.2-0.6c0.1-0.4,0.1-0.8-0.1-1.1
		c-0.2-0.3-0.7-0.4-1-0.2c-0.4,0.1-0.8,0.4-1.1,0.7c-0.6,0.6-1.2,1.5-1.7,2.2s-1.2,1.5-1.8,2.3c-0.3,0.4-0.6,0.8-0.9,1.1l-0.5,0.6
		c-0.2,0.2-0.4,0.4-0.6,0.5c-0.3,0.1-0.6,0.1-0.9-0.1c-0.2-0.2-0.3-0.5-0.3-0.8c0-0.1,0.1-0.3,0.1-0.4l0.2-0.3l0.3-0.5l1.4-1.9
		c0.8-1.4,1.7-2.8,2.5-4.1s1.6-2.7,2.3-4.1c0.4-0.6,0.5-1.3,0.3-2c-0.3-0.6-0.9-1-1.6-1.2l-0.3-0.1l0.1-0.3c0.2-0.6,0.3-1.2,0.3-1.8
		c0-0.3-0.1-0.5-0.3-0.7s-0.4-0.2-0.7-0.2c-0.6,0-1.1,0.3-1.5,0.7s-0.8,0.9-1.2,1.4l-4.2,6c-0.7,1-1.4,1.9-2.1,2.9l-0.5,0.7
		l-0.3,0.4l-0.1,0.2l-0.2,0.2c-0.2,0.1-0.4,0.1-0.6,0.1c-0.2-0.1-0.3-0.3-0.3-0.6s0.1-0.6,0.3-0.9c1.2-2,2.5-3.8,3.6-5.6
		c0.6-0.9,1.1-1.8,1.6-2.7c0.2-0.4,0.5-0.9,0.7-1.4l0.1-0.3c0-0.1,0-0.2,0-0.3c0-0.2,0-0.5-0.1-0.7c-0.1-0.4-0.4-0.8-0.8-0.9
		c-0.5,0-0.9,0.2-1.2,0.5c-0.7,0.6-1.3,1.2-1.9,2c-2.2,3.1-3.9,6.1-5.5,8.9c-0.4,0.7-0.8,1.4-1.2,2c-0.4,0.7-0.8,1.3-1.3,1.8
		c-0.9,1-1.9,2-3,2.8c-0.3,0.2-0.5,0.3-0.9,0.4c-0.2,0.1-0.4,0.1-0.5,0s-0.3-0.1-0.4-0.2c-0.4-0.4-0.8-0.8-1.2-1.2
		c-0.6-0.8-1.1-1.6-1.6-2.5c-0.2-0.4-0.3-0.8-0.5-1.2c-0.1-0.4-0.2-0.7-0.3-1c-0.2-0.5-0.4-1-0.8-1.5c-0.2-0.3-0.4-0.5-0.7-0.8
		C529,177.5,529,177.4,528.9,177.3z"/>
	<path class="st4" d="M521.2,234.1c-1.4,2.7-3.1,5.1-5.2,7.4c-2.1,2.2-4.9,3.6-8,3.8"/>
	<path class="st3" d="M508.1,245.3c0-0.1,1-0.1,2.5-0.6c2-0.7,3.8-1.9,5.2-3.4c1.5-1.5,2.8-3.2,3.9-5c0.4-0.8,0.9-1.5,1.5-2.2
		c-0.3,0.8-0.7,1.6-1.2,2.4c-1,1.9-2.3,3.6-3.8,5.2c-1.5,1.6-3.4,2.7-5.5,3.4c-0.6,0.2-1.3,0.3-1.9,0.3
		C508.6,245.4,508.3,245.3,508.1,245.3z"/>
	<path class="st3" d="M522.3,241.8c-0.4,0.7-0.9,1.4-1.5,2c-2.7,3-6.1,5.1-10,6.2c-0.8,0.3-1.6,0.4-2.4,0.4
		C513.8,249,518.7,246,522.3,241.8L522.3,241.8z"/>
	<g class="st5">
		<path d="M508.5,244.8c2.5,0.9,4.9,1.2,7.3,0.1c2.4-1.1,4.3-3.2,5.3-5.7c0.7-1.8,0.8-3.8,1.6-5.6c1.8-3.9,6.5-6.2,7.5-10.4
			c-3.7,4.1-7.2,7.7-10.1,12.6c-1.4,2.4-3.2,4.5-5.3,6.3c-1.8,1.6-4.1,2.5-6.5,2.6"/>
	</g>
	<g class="st5">
		<path d="M546,274l2.3,0.7c0,0,0.9-17.5-1.6-22.8L546,274z"/>
	</g>
</g>
<g id="freepik--character-2--inject-6">
	<path class="st11" d="M316.5,228.2l-6.7-37.3c-2-9.2,1.8-18.1,11-19.8l0.9-0.1c8.7-1.1,16.8,4.7,18.6,13.3c1.7,8,3.4,16.9,3.9,21.2
		c1,9-7.8,11.5-7.8,11.5s0.9,5.4,1.3,8.1l3.1,5.8l-7.6-0.6L316.5,228.2z"/>
	<path class="st3" d="M351.3,174.3c-0.2-0.3-0.5-0.6-0.8-0.7c-0.8-0.2-1.6-0.2-2.4,0c-2,0.3-3.9,0.1-5.8-0.5
		c0.6-0.4,1.1-0.9,1.5-1.4c0.9-1.1,1.1-2.7,0.5-4c-0.1-0.3-0.3-0.4-0.6-0.5c-0.4-0.1-0.7,0.4-0.9,0.7c-0.6,1.1-1.7,1.8-2.9,1.8
		c-0.8,0.1-1.7,0-2.4-0.3l-0.1-0.1l-1.1-0.8l0,0c-2.1-1.7-4.4-2.9-7-3.7c-3.8-0.7-7.6-0.5-11.2,0.9c-3,1.3-5.4,4.3-5.3,7.5
		c-2-1.2-4.6-0.8-6.6,0.4h-0.1c-2.2,1.2-3.2,3.9-3.5,6.4c0,0.1,0,0.3,0,0.4c-0.6,1.4-1.5,2.6-2.7,3.6c-0.2,0.2-0.4,0.4-0.4,0.6
		s0.3,0.4,0.5,0.6c0.6,0.3,1.3,0.5,2,0.5c-0.1,0.6-0.3,1.2-0.5,1.8c-0.2,0.5-0.4,1.1-0.1,1.5c0.3,0.3,0.7,0.4,1.1,0.3
		c0.4-0.2,0.7-0.4,1-0.7c-0.2,0.7-0.3,1.4-0.5,2c0.9,0,1.8-0.2,2.5-0.6c0.9,2.2,1.9,6.3,2.7,7.7c1.6-0.2,2-0.5,2.9-0.3
		c1.1,0.2,1,2.1,2.3,1.4c0.7-0.4,1.3-3.2,1.5-4c0.8-5,0.5-10.1-0.8-15c0.8-1.2,1.9-2.2,3.1-3l-0.1,0.1c2.4-1.2,5.1-2.6,7.6-1.7
		c2,0.6,3.4,2.4,5,3.7c2.8,2.4,6.4,3.6,10.1,3.2c0.8,2.6,1.6,7,2.1,9.5l1.4-5.4l0,0c0.1-0.3,0.2-0.7,0.3-1v-0.1l0,0
		c0.1-0.5,0.3-1,0.5-1.5l0,0c0.7,0.5,1.7,0.3,2.2-0.4c0.4-0.6,0.4-1.5-0.2-2.1c-0.3-0.3-0.6-0.5-0.9-0.6c0.7,0.5,1.7,0.6,2.5,0.2
		c0.8-0.4,1.2-1.3,1.1-2.1c-0.2-0.6-0.6-1-1.2-1.2c1.1-0.1,2.2-0.5,3.1-1.2C351.1,175.7,351.7,175,351.3,174.3z"/>
	<path class="st4" d="M315.7,173.6c-0.3,0.3-0.5,0.6-0.8,1c-0.6,1-0.9,2.1-0.9,3.2c0,0.8,0,1.5,0.1,2.3s0.3,1.7,0.5,2.6
		c0.2,1,0.4,1.9,0.5,2.9c0,0.5,0,1.1,0,1.6c0,0.6-0.1,1.1-0.4,1.6c-0.3,0.4-0.7,0.6-1.2,0.6s-0.9-0.2-1.2-0.5
		c-0.6-0.6-1-1.3-1.2-2.1h0.2c-0.2,0.7-0.4,1.4-0.8,2c-0.3,0.6-0.9,1-1.5,1.2c-0.3,0.1-0.6,0.1-1,0c-0.3-0.1-0.5-0.3-0.7-0.5
		s-0.3-0.5-0.3-0.8s0-0.5,0.2-0.7l0.1,0.1c-0.4,0.7-1,1.3-1.7,1.7c-0.2,0.1-0.4,0.2-0.6,0.3l-0.2,0.1c0.1,0,0.1-0.1,0.2-0.1
		c0.1-0.1,0.3-0.2,0.5-0.4c0.7-0.5,1.2-1.1,1.6-1.8l0.1,0.1c-0.2,0.4-0.2,1,0.1,1.3c0.2,0.2,0.4,0.4,0.6,0.5c0.3,0.1,0.6,0.1,0.9,0
		c0.6-0.2,1.2-0.6,1.5-1.1c0.3-0.6,0.6-1.3,0.8-2l0.1-0.3l0.1,0.3c0.2,0.8,0.6,1.4,1.2,2c0.3,0.3,0.7,0.4,1.1,0.4s0.8-0.2,1-0.5
		c0.3-0.5,0.4-1,0.4-1.5s0-1,0-1.6c-0.1-1-0.3-1.9-0.5-2.9c-0.2-0.9-0.4-1.8-0.5-2.6s-0.1-1.6-0.1-2.3c0-1.1,0.4-2.3,1-3.2
		C315.1,174.2,315.4,173.9,315.7,173.6z"/>
	<path class="st4" d="M344.7,178.1L344.7,178.1l-0.3,0.3c-0.1,0.1-0.2,0.2-0.3,0.3c-0.2,0.1-0.3,0.3-0.5,0.4
		c-1.1,0.7-2.4,1.2-3.7,1.3c-2,0.2-4-0.2-5.7-1.1c-2.1-1.2-4-2.7-5.5-4.6c-0.8-1-1.5-2-2.3-2.9c-0.7-0.9-1.5-1.7-2.4-2.4
		c-0.8-0.6-1.8-1-2.8-1.2c-0.5-0.1-0.9,0-1.4,0.1c-0.4,0.1-0.8,0.2-1.2,0.4c-1.2,0.6-2.1,1.6-2.5,2.9c-0.1,0.5-0.2,0.9-0.2,1.4
		c0,0,0,0,0-0.1v-0.3c0-0.4,0.1-0.7,0.2-1.1c0.2-0.5,0.4-1.1,0.8-1.5c0.5-0.6,1-1.1,1.7-1.5c0.4-0.2,0.8-0.4,1.2-0.5
		c0.5-0.1,1-0.1,1.4-0.1c1.1,0.1,2.1,0.5,2.9,1.2c0.9,0.7,1.8,1.5,2.5,2.4c0.8,0.9,1.5,2,2.3,2.9c1.5,1.9,3.3,3.4,5.4,4.6
		c1.7,0.9,3.7,1.3,5.6,1.2c1.3-0.1,2.6-0.5,3.7-1.2C344.4,178.4,344.7,178,344.7,178.1z"/>
	<path class="st4" d="M345,174c-0.1,0.1-0.2,0.2-0.3,0.3c-0.3,0.2-0.6,0.4-0.9,0.6c-0.5,0.3-0.9,0.5-1.4,0.7
		c-0.6,0.2-1.2,0.4-1.9,0.6c-0.7,0.1-1.3,0.2-2,0.2c-0.5,0-1.1-0.1-1.6-0.2c-0.4-0.1-0.7-0.1-1-0.3c-0.2-0.1-0.4-0.1-0.4-0.1
		s0.5,0.1,1.4,0.3c0.5,0.1,1,0.1,1.6,0.1s1.3-0.1,1.9-0.2c0.6-0.1,1.2-0.3,1.9-0.5c0.5-0.2,1-0.4,1.4-0.7
		C344.5,174.3,344.9,174,345,174z"/>
	<path class="st12" d="M336.4,217.1c-4.1,0.5-8.4-0.2-12.1-2c0,0,3.6,6.4,12.5,4.5L336.4,217.1z"/>
	<path class="st11" d="M311.4,197.5c-0.2,0-6.4-1-5.4,5.1s6.9,3.9,6.9,3.7S311.4,197.5,311.4,197.5z"/>
	<path class="st12" d="M310.6,204.2c0,0-0.1,0.1-0.3,0.2c-0.2,0.2-0.5,0.2-0.8,0.1c-0.9-0.4-1.5-1.2-1.6-2.2
		c-0.1-0.5-0.1-1.1,0.1-1.6c0-0.4,0.3-0.8,0.7-1c0.2-0.1,0.5,0,0.7,0.2c0.1,0.2,0.1,0.3,0.1,0.3s0.1-0.1,0-0.4
		c-0.1-0.1-0.2-0.3-0.3-0.3c-0.2-0.1-0.4-0.1-0.6-0.1c-0.5,0.2-0.9,0.6-1,1.1c-0.2,0.6-0.2,1.2-0.1,1.8c0.1,1.1,0.9,2.1,2,2.4
		c0.4,0.1,0.7-0.1,1-0.3C310.6,204.4,310.7,204.2,310.6,204.2z"/>
	<path class="st11" d="M429.1,287.5l3.5-0.5c1.1-1.1,2.3-2,3.6-2.8c2-1.2,3.7-1.2,4.2-0.2c0.5,1.1,0.2,2.4-0.8,3.1
		c-1,1-4.9,2-5.1,3.6s12.3,7,12.3,7l-9.9,11.3l-14.4-7.7l-0.7-1.2l-0.1-3.1L429.1,287.5z"/>
	<path class="st3" d="M328.6,318.6L333,370l-1.5,8.9c0,0-17.8,51.2-17.5,72.4l20.9-1c0,0,20.4-58,22-64.4s9.8-49.2,9.8-49.2
		l13.5,33.9l0.4,7.9l-7.8,49.1l24.2,1.3c0,0,9.9-55.8,8.9-63s-17-63.8-17-63.8l-8.3-7.2l-47.1,8L328.6,318.6z"/>
	<path class="st3" d="M394.8,413.9l-0.8,20.6c0,0,19.6,7.7,19.8,11.6l-37.9-0.1l-0.1-32.2L394.8,413.9z"/>
	<path class="st0" d="M382.3,432.7c-0.8,0.3-1.2,1.1-1.1,1.9c0.2,0.8,0.9,1.3,1.7,1.1c0.8-0.3,1.3-1.1,1.1-2c-0.3-0.8-1.3-1.4-1.9-1
		"/>
	<path class="st4" d="M375.9,446l0.1-3.2l36.3,1.2c0,0,1.7,0.8,1.5,2H375.9z"/>
	<path class="st10" d="M394.6,434.3c0,0.2-0.9,0.3-1.8,0.9s-1.4,1.4-1.6,1.4s0.1-1.2,1.2-1.9S394.7,434.1,394.6,434.3z"/>
	<path class="st10" d="M398.6,436.1c0,0.2-0.8,0.5-1.4,1.3s-0.8,1.7-1,1.7s-0.3-1.1,0.5-2.1S398.6,435.9,398.6,436.1z"/>
	<path class="st10" d="M400.9,441.1c-0.2,0-0.4-0.9,0-2s1.4-1.5,1.4-1.3s-0.5,0.7-0.8,1.6S401,441.1,400.9,441.1z"/>
	<path class="st10" d="M394.3,429.6c-0.1,0.2-0.9-0.1-2,0s-1.9,0.4-2,0.2s0.7-0.9,1.9-0.9S394.4,429.4,394.3,429.6z"/>
	<path class="st3" d="M332.9,435.6l0.1,23.7l5.5,18.7c0.4,1.3-0.4,2.6-1.6,3c-0.1,0-0.1,0-0.2,0l0,0c-0.8,0.2-1.6,0-2.1-0.6
		c-3.7-3.4-17.3-15.8-17.2-17.5c0.1-2-1.8-25-1.8-25L332.9,435.6z"/>
	<path class="st4" d="M336.8,481l-19.4-19.7v1c0,0.9,0.4,1.7,0.9,2.3c1.5,1.7,5.9,6.4,16.2,15.8C335.1,481,335.9,481.2,336.8,481
		L336.8,481z"/>
	<g class="st13">
		<path class="st10" d="M322,453.5c0.6,0.4,0.8,1.3,0.5,1.9c-0.4,0.6-1.2,0.8-1.9,0.5c-0.6-0.4-0.8-1.3-0.5-2c0.5-0.6,1.4-0.7,2-0.3
			"/>
	</g>
	<path class="st10" d="M331,470.8c0.1,0.1,0.6-1.2,2-1.9c0.9-0.4,1.8-0.6,2.7-0.6c0-0.1-0.3-0.2-0.8-0.3c-0.7-0.1-1.5,0.1-2.1,0.4
		s-1.2,0.9-1.5,1.5C331,470.5,331,470.8,331,470.8z"/>
	<path class="st10" d="M332.8,473.9c0.7-0.4,1.4-0.8,2.1-1.1c0.8-0.2,1.5-0.3,2.3-0.4c-0.8-0.4-1.7-0.5-2.5-0.1
		C333.4,472.8,332.7,473.9,332.8,473.9z"/>
	<path class="st10" d="M327.8,466.9c1-0.7,2-1.3,3.1-1.9c1.1-0.4,2.3-0.7,3.5-0.9C331.8,463.6,329.3,464.7,327.8,466.9L327.8,466.9z
		"/>
	<path class="st10" d="M327.1,459.7c0.1,0.1,1.4-0.5,3.1-0.6s3.1,0.3,3.1,0.1c-0.9-0.6-2.1-0.8-3.1-0.6
		C329.1,458.6,328,459,327.1,459.7z"/>
	<path class="st10" d="M326.9,452.7c1-0.4,2.1-0.6,3.2-0.7c1.1,0.1,2.1,0.3,3.2,0.7c0-0.1-0.2-0.3-0.8-0.6c-1.5-0.8-3.3-0.8-4.8,0
		C327.2,452.4,326.9,452.7,326.9,452.7z"/>
	<path class="st4" d="M305.5,229.4c0,0-12.7,7.6-3.5,25.9c11.2,22.4,21.9,53.9,25.6,56c1.5,0.9,8.5-2.7,8.5-2.7l5.6-10.4l-14.8-38.7
		l-9.7-22.4L305.5,229.4z"/>
	<path class="st4" d="M314.7,223.4l-9.2,5.9l24.5,43.3l-3.5,38.7l5.5,3.1l57.3-7.9l1.9-2.6l-6.3-18.2l-8.4-20.4
		c0,0-8.3-18.5-13.2-26.4S353.2,223,353.2,223l-14-1l-1.7-1.9c0,0-2.1,3.8-7.9,4.2c-4.7,0.3-14.6-2.2-14.6-2.2L314.7,223.4z"/>
	<path class="st4" d="M429.1,287.5c0,0-33.6-26.9-36.4-30.1s-26.1-27.8-26.1-27.8s-8.5-8.2-13.5-6.6c-6,2,6,30.9,6,30.9
		s24.7,20.5,28.7,24.4s28.1,19.4,28.1,19.4l5.7-0.8L429.1,287.5z"/>
	<path class="st3" d="M320.1,246.7c0.1,0.2,0.2,0.3,0.2,0.5c0.2,0.4,0.4,0.9,0.6,1.5c0.5,1.3,1.3,3.2,2.3,5.5c2,4.7,4.8,11,8,18.1
		s5.9,13.5,7.7,18.2c0.9,2.4,1.6,4.3,2.1,5.6c0.2,0.6,0.4,1.1,0.5,1.5c0.1,0.2,0.1,0.4,0.1,0.5c-0.1-0.2-0.2-0.3-0.2-0.5l-0.6-1.5
		c-0.5-1.3-1.3-3.2-2.2-5.6c-1.9-4.7-4.7-11.1-7.8-18.1s-6-13.5-7.9-18.1c-1-2.4-1.7-4.3-2.2-5.6c-0.2-0.6-0.4-1.1-0.5-1.5
		C320.2,247,320.1,246.9,320.1,246.7z"/>
	<path class="st3" d="M361.2,235.7c0,0,0.1,0.1,0.3,0.3c0.3,0.3,0.5,0.6,0.7,1c0.6,0.9,1.4,2.2,2.3,3.8c1.8,3.3,4.1,7.9,6.6,13
		c2.5,5.1,4.6,9.8,6.1,13.2c0.8,1.7,1.4,3.1,1.8,4.1c0.2,0.5,0.4,1,0.6,1.5c-0.3-0.4-0.6-0.9-0.8-1.4l-1.9-4l-6.3-13.2
		c-2.5-5.1-4.8-9.8-6.5-13.1c-0.9-1.7-1.6-3-2.1-3.9S361.2,235.8,361.2,235.7z"/>
	<g class="st5">
		<path d="M327.8,265c0,0-2.4-13.3-1-21.1s5.4-19.1,5.4-19.1l7-3l36.5,17.7l2.7,3.3l-4.8,15.3l3.6,28L327.8,265z"/>
	</g>
	<path class="st6" d="M336.5,241.6c2.7-50.1,30.9-77.1,66.6-75.2c36,2,60.8,31.8,58.1,82s-30.7,77.1-66.6,75.2
		C358.8,321.6,333.8,291.8,336.5,241.6z M427.3,246.6c1.9-34.5-9-49.5-25.8-50.4c-16.6-0.9-29,12.8-30.9,47.3s9,49.5,25.6,50.4
		C413,294.8,425.5,281.1,427.3,246.6L427.3,246.6z"/>
	<g class="st5">
		<path d="M336.5,241.6c2.7-50.1,30.9-77.1,66.6-75.2c36,2,60.8,31.8,58.1,82s-30.7,77.1-66.6,75.2
			C358.8,321.6,333.8,291.8,336.5,241.6z M427.3,246.6c1.9-34.5-9-49.5-25.8-50.4c-16.6-0.9-29,12.8-30.9,47.3s9,49.5,25.6,50.4
			C413,294.8,425.5,281.1,427.3,246.6L427.3,246.6z"/>
	</g>
	<path class="st6" d="M326.2,241.7c2.7-50.1,30.9-77.1,66.6-75.2c36,2,60.8,31.8,58.1,82s-30.7,77.1-66.6,75.2
		C348.5,321.7,323.5,291.8,326.2,241.7z M417,246.7c1.9-34.5-9-49.5-25.8-50.4c-16.6-0.9-29,12.8-30.9,47.3s9,49.5,25.6,50.4
		C402.7,294.8,415.2,281.1,417,246.7L417,246.7z"/>
	<path class="st11" d="M364,317.5l-6.2-3.8c0,0-6.4-4.2-6.7-4.8c-0.5-1-0.7-2.1-0.8-3.3c0-0.9,2.9-3,3.2-4.8s-1.6-3.5-2.2-3.8
		s-1.4,0.8-1.5,1.5s-1.3,1.9-3.1,2.3s-4.2,2.7-4.2,2.7l-5.4,10.1c0.9,1.7,11.9,5.9,12.3,6s12.1,0.4,13.3,0c1-0.2,1.7-1.2,1.5-2.2
		C364,317.6,364,317.6,364,317.5z"/>
	<path class="st11" d="M451.5,296.4c0.1,1.7-3.3,1.6-3.3,1.6c0.4,0.8-1.4,2.8-2.5,2.4c0.3,0.6,0.6,0.8,0.6,1.5s-0.4,1.3-1,1.7
		c-0.6,0.4-1.4,0.3-1.9-0.2c0.2,1-0.2,2.1-1.1,2.7c-0.5,0.3-1.2,0.5-1.8,0.4c-0.3-0.1-0.6-0.2-0.9-0.3c-0.1,0-0.2-0.1-0.3-0.2
		l-0.1-0.1c-0.1-0.2-0.1-0.5-0.2-0.7l-0.1-0.3c-0.2-0.4-0.4-0.8-0.7-1.1c-0.2-0.1-0.3-0.3-0.4-0.5c-0.1-0.1-0.1-0.2-0.1-0.4
		c-0.4-0.8-1-1.4-1.7-1.9c-0.7-0.6-1.3-1.4-1.6-2.2c-0.3-0.9,0.2-1.9,1.1-2.2c-0.5-0.4-0.6-1.1-0.3-1.6c0.3-0.5,0.9-0.8,1.5-0.8
		s1.2,0.2,1.7,0.5c-0.5-0.5-0.5-1.4,0-1.9s1.3-0.7,1.9-0.5c0.7,0.2,1.3,0.5,1.8,1c0.5,0.4,2.9,2.2,3.5,2.5l1.4-1.4l0.2-0.2
		c1.2,0.4,1.6,0.5,2.6,0.9C450.8,295.3,451.5,295.7,451.5,296.4z"/>
	<path class="st11" d="M438.4,308.2c-0.4,0.5-0.9,0.7-1.5,0.8c-0.8-0.2-1.6-0.7-2.1-1.4l1.2-1.6l0.3-0.4c0.1-0.5-0.6-1-0.8-1.4
		c-0.3-0.8,0-1.6,0.8-2c0.7-0.3,1.6-0.1,2.2,0.4s0.9,1.3,1,2.1C439.6,306,439.2,307.2,438.4,308.2z"/>
	<path class="st12" d="M443.6,303.5c-1.1-1.4-2.4-2.6-3.8-3.7c-1.3-1.2-2.7-2.4-4.2-3.3C438,299,440.7,301.4,443.6,303.5z"/>
	<path class="st12" d="M445.8,300.5c-0.9-1.3-2.1-2.5-3.4-3.5c-1.2-1.1-2.6-2-4.1-2.7c1.2,1.1,2.4,2.1,3.7,3.1
		C443.2,298.5,444.5,299.6,445.8,300.5z"/>
	<path class="st12" d="M447.9,297.6c-0.8-1.1-1.8-2-2.9-2.8c-1-0.9-2.1-1.6-3.3-2.2c0.9,1,1.9,1.9,3,2.6
		C445.7,296.1,446.8,296.9,447.9,297.6z"/>
	<path class="st12" d="M438.9,307.1c0,0,0.4-0.2,0.6-0.7c0.2-0.7,0.2-1.6-0.2-2.2c-0.3-0.7-0.8-1.3-1.3-1.8c-0.5-0.4-1-0.2-0.9-0.1
		s0.4,0,0.7,0.4c0.4,0.5,0.8,1.1,1.1,1.8c0.3,0.6,0.4,1.3,0.3,1.9C439,306.8,438.8,307,438.9,307.1z"/>
	<g>
		<path class="st3" d="M338.9,188.8c-0.1,0.2-1.3-0.4-2.8-0.2s-2.5,1.1-2.6,0.9c-0.2-0.2,0-0.4,0.5-0.8c0.6-0.5,1.3-0.9,2.1-1
			c0.8-0.1,1.5,0,2.2,0.4C338.8,188.4,339,188.7,338.9,188.8z"/>
		<path class="st3" d="M324.3,190.6c-0.1,0.2-1.3-0.4-2.8-0.3c-1.5,0.2-2.5,1-2.7,0.9c-0.2-0.2,0-0.4,0.5-0.8
			c0.6-0.5,1.3-0.8,2.1-0.9c0.8-0.1,1.5,0.1,2.2,0.4C324.2,190.2,324.4,190.5,324.3,190.6z"/>
		<path class="st3" d="M331.3,199.9c0.8-0.3,1.6-0.5,2.4-0.7c0.4-0.1,0.7-0.2,0.8-0.4c0-0.4-0.1-0.8-0.4-1.1
			c-0.4-0.9-0.9-1.8-1.4-2.7c-1.9-3.9-3.4-7.1-3.2-7.2s1.9,3,3.8,6.9c0.5,1,0.9,1.9,1.3,2.8c0.3,0.4,0.4,0.9,0.3,1.5
			c-0.1,0.3-0.3,0.5-0.6,0.6c-0.2,0.1-0.4,0.1-0.6,0.2C332.9,199.8,332.1,199.9,331.3,199.9z"/>
		<path class="st3" d="M324.8,187.1c-0.2,0.4-1.7,0.1-3.4,0.2c-1.8,0.1-3.2,0.5-3.4,0.1c-0.1-0.2,0.2-0.5,0.8-0.9
			c1.6-0.8,3.5-0.9,5.2-0.2C324.5,186.6,324.8,186.9,324.8,187.1z"/>
		<path class="st3" d="M338.9,185c-0.1,0.4-1.3,0.5-2.5,1s-2.2,1.1-2.6,0.9c-0.2-0.1-0.1-0.5,0.2-1c1-1.2,2.5-1.8,4.1-1.6
			C338.6,184.6,338.9,184.8,338.9,185z"/>
		<path class="st3" d="M326,203.8c0.1,0.1,0.4-0.2,0.9-0.4c0.7-0.3,1.5-0.4,2.2-0.3c0.8,0.1,1.5,0.4,2,0.9c0.5,0.4,0.7,0.7,0.8,0.6
			s0-0.5-0.4-1c-0.6-0.7-1.4-1.1-2.3-1.3c-0.9-0.1-1.8,0.1-2.6,0.6C326.2,203.4,326,203.7,326,203.8z"/>
		<path class="st3" d="M337.7,190.3c0.1,0.7-0.4,1.4-1.2,1.5c-0.7,0.1-1.4-0.3-1.5-1l0,0c-0.1-0.7,0.5-1.4,1.2-1.5
			C337,189.1,337.6,189.5,337.7,190.3L337.7,190.3z"/>
		<path class="st3" d="M323.1,191.9c0.1,0.7-0.5,1.4-1.2,1.5s-1.4-0.3-1.5-1l0,0c-0.1-0.7,0.5-1.4,1.2-1.5
			C322.3,190.7,323,191.2,323.1,191.9L323.1,191.9z"/>
	</g>
</g>
<g id="freepik--character-1--inject-6">
	<path class="st3" d="M217.8,424.6l-3.2,19c0,0,19.1,7.8,19.2,11.5l-37.1-0.6l4.6-31.3L217.8,424.6z"/>
	<path class="st0" d="M203.2,441.7c-0.8,0.3-1.2,1-1.1,1.8c0.2,0.8,0.9,1.3,1.7,1.1c0.8-0.3,1.3-1.1,1.1-1.9s-1.1-1.2-1.8-1l0,0"/>
	<path class="st4" d="M196.8,454.6l0.5-3.1l35.2,1.7c0,0,1.6,0.8,1.4,2L196.8,454.6z"/>
	<path class="st10" d="M215.2,443.4c0,0.2-0.9,0.3-1.8,0.9s-1.4,1.4-1.6,1.3s0.1-1.2,1.2-1.9S215.3,443.2,215.2,443.4z"/>
	<path class="st10" d="M219.1,445.2c0,0.2-0.8,0.5-1.4,1.3s-0.8,1.6-1,1.6s-0.3-1.1,0.5-2.1S219.1,445,219.1,445.2z"/>
	<path class="st10" d="M221.2,450.1c-0.2,0-0.4-0.9,0.1-2s1.3-1.4,1.4-1.3s-0.5,0.7-0.8,1.6S221.4,450.1,221.2,450.1z"/>
	<path class="st10" d="M215,438.8c-0.1,0.2-0.9-0.1-1.9,0s-1.8,0.4-1.9,0.2s0.7-0.8,1.9-0.9S215,438.6,215,438.8z"/>
	<path class="st3" d="M164.2,427.5l-9.8,17.6c0,0,13.6,15.5,12.1,18.9l-32.9-17l14.3-28L164.2,427.5z"/>
	<path class="st0" d="M145,438.4c-0.8-0.1-1.5,0.4-1.8,1.1c-0.2,0.8,0.2,1.5,1,1.8c0.8,0.1,1.6-0.4,1.9-1.2c0.1-0.8-0.5-1.7-1.2-1.7
		"/>
	<path class="st4" d="M133.5,447l1.5-2.8l31,17.4c0,0,1.1,1.4,0.4,2.4L133.5,447z"/>
	<path class="st10" d="M155,445.2c-0.1,0.2-0.9-0.2-2,0s-1.9,0.6-2,0.5s0.6-1,1.9-1.1S155.1,445.1,155,445.2z"/>
	<path class="st10" d="M157.7,448.5c-0.1,0.2-0.9,0.1-1.8,0.5s-1.5,1.1-1.6,1s0.2-1.1,1.4-1.6S157.8,448.4,157.7,448.5z"/>
	<path class="st10" d="M157.4,453.9c-0.2,0,0-1,0.9-1.7s1.8-0.7,1.8-0.5s-0.7,0.4-1.4,1S157.6,454,157.4,453.9z"/>
	<path class="st10" d="M156.8,441c-0.1,0.1-0.8-0.5-1.7-0.9s-1.8-0.5-1.8-0.6s1-0.5,2.1,0S157,440.9,156.8,441z"/>
	<path class="st3" d="M187.2,311.1c0,0,6.6,64.1,4.7,71.5s-33.7,64.1-33.7,64.1l-21.9-12.2c0,0,26.6-51.3,26.3-53.5s0.7-8.3,0.7-8.3
		l-14.7-49.2l2.9-21.1l26-2.6L187.2,311.1z"/>
	<path class="st3" d="M169.8,335.3c0.7,2,35.9,42.2,35.9,42.2c-0.1,0.9,0,1.7,0.4,2.5c0.8,1,1.8,1.7,3,2.1l-14,58l24.5,2.3
		c0,0,14.6-58,14-65.4s-35.5-64-35.5-64l-25-1.4L169.8,335.3z"/>
	<path class="st4" d="M187.8,325.1c0,0.5-0.1,1.1-0.2,1.6c-0.2,1.5-0.2,2.9-0.1,4.4c0.4,4.8,1.1,9.6,2.1,14.4s1.7,9.6,2.2,14.4
		c0.1,1.5,0.1,3-0.1,4.4c-0.1,0.5-0.2,1.1-0.3,1.6c0-0.5,0.1-1.1,0.1-1.6c0.1-1.5,0-2.9-0.1-4.4c-0.3-3.7-1.3-8.8-2.3-14.3
		c-1-4.8-1.7-9.6-2-14.4c-0.1-1.5,0-3,0.3-4.4C187.5,326.2,187.6,325.6,187.8,325.1z"/>
	<path class="st7" d="M240.1,226.4c0,0,4.5-7.2,8.6-7.8s11.2,0,11.2,0L256,234l-8.5,1.5L240.1,226.4z"/>
	<polygon class="st4" points="174.9,238.1 206.5,240.1 238.9,225 249,237.2 209.2,258.4 187.2,261.1 	"/>
	<path class="st6" d="M273.4,270.9l-25.1-4.4l-5.7,32.4l-34.8-6.1l5.7-32.4l-83-14.5l4.2-24l89.8-85.1l37.4,6.6l-83.6,80.9l41.4,7.2
		l5.1-28.9l33.7,5.9l-5.1,28.9l25.1,4.4L273.4,270.9z"/>
	<g class="st5">
		<path d="M273.4,270.9l-25.1-4.4l-5.7,32.4l-34.8-6.1l5.7-32.4l-83-14.5l4.2-24l89.8-85.1l37.4,6.6l-83.6,80.9l41.4,7.2l5.1-28.9
			l33.7,5.9l-5.1,28.9l25.1,4.4L273.4,270.9z"/>
	</g>
	<path class="st6" d="M264.9,269.7l-25.1-4.4l-5.7,32.4l-34.8-6.1l5.7-32.4l-83-14.5l4.2-24l89.8-85.1l37.4,6.6l-83.7,80.9l41.4,7.2
		l5-28.9l33.7,5.9l-5.1,28.9l25.1,4.4L264.9,269.7z"/>
	<g class="st5">
		<path d="M189.9,254.4c0,0-3.6-9.8-6.8-13.6c-2.4-3-4.7-6-6.8-9.2l16.2-7.1L184,218l-14.2,6.5l-0.9,12.8l17.2,17.9L189.9,254.4z"/>
	</g>
	<path class="st3" d="M178.1,189.6c3.3,2.8,5,6.9,4.7,11.2c-0.2,2-0.8,4.4,0.5,5.9s3.9,1.6,5.1,3.2c1.4,1.9,0.1,4.7,0.6,7
		s2.7,3.8,5,3.6c-2.7,2.1-5.9,3.4-9.2,3.8l-2.5-3.3c0.9,1.3,0.7,3-0.3,4.2c-1.1,1.1-2.4,1.9-3.9,2.2c-7,2-14.6,0.6-20.4-3.7"/>
	<path class="st3" d="M139.3,206.9c0.7-1.5,1.3-3,1.8-4.6c0.8-3.4-0.8-7.4,0.9-10.5c1.2-2.2,3.8-3.2,6.2-3.9s5-1.3,6.9-3
		c1.3-1.3,2.1-3,3.5-4.3c1.9-1.8,4.7-2.4,7.3-2.5c2.7-0.2,5.4,0.3,7.9,1.4c2.5,1.2,4.2,3.5,4.8,6.2c0,1.3,0.1,2.6,0.4,3.9
		c0.4,1.4,1.5,2.5,2.1,3.8c1.3,2.9,0.5,6.3-1.9,8.3l-19,23.6c-3.9,1.4-13.3-0.6-16.3-3.5S138,210.9,139.3,206.9z"/>
	<path class="st7" d="M178.8,198.7c-0.7-5.4-4.7-11.9-10.1-11.1l-16.8,5.3c-1.7,0.3-2.8,1.8-2.7,3.4l4.1,39.4c0,0-1.2,1-2.1,0.7
		c-0.1-0.1-0.2,0-0.3,0.1c0,0.1,0,0.2,0,0.2c1.9,3,11.1,15.8,21,12.1c2.2-0.8-0.1-7.7,0.2-10.3l-0.2-6.5c-0.1-3.3-0.2-4.7-0.2-4.6
		s6.9-1.6,7.9-10.8C180.1,212.2,179.5,204.8,178.8,198.7z"/>
	<path class="st3" d="M177.4,207c0,0.6-0.4,1.2-1.1,1.2c-0.6,0.1-1.2-0.3-1.3-0.9c0,0,0,0,0-0.1c0-0.6,0.4-1.2,1.1-1.2
		C176.8,205.9,177.3,206.3,177.4,207L177.4,207z"/>
	<path class="st3" d="M166.1,207.5c0,0.6-0.4,1.2-1.1,1.2c-0.6,0.1-1.2-0.4-1.3-1l0,0c0-0.6,0.4-1.2,1.1-1.2
		C165.4,206.4,166,206.9,166.1,207.5L166.1,207.5z"/>
	<path class="st3" d="M177.9,203.2c-0.1,0.2-1.2-0.5-2.6-0.3s-2.3,1.1-2.4,0.9s0-0.4,0.4-0.9c0.5-0.5,1.2-0.9,1.9-1s1.5,0.1,2.1,0.5
		C177.8,202.8,178,203.1,177.9,203.2z"/>
	<path class="st3" d="M165.7,204c-0.2,0.2-1.2-0.6-2.7-0.6s-2.5,0.8-2.7,0.6s0.1-0.4,0.5-0.8c0.6-0.5,1.4-0.7,2.1-0.8
		c0.8,0,1.5,0.2,2.1,0.7C165.6,203.5,165.8,203.9,165.7,204z"/>
	<path class="st3" d="M170.1,212.7c0.6-0.2,1.3-0.4,2-0.5c0.3-0.1,0.6-0.1,0.7-0.4c0-0.3-0.1-0.7-0.3-0.9l-1.1-2.4
		c-1-2-1.8-4.1-2.5-6.3c1.2,1.9,2.2,4,3,6.1l1.1,2.4c0.2,0.4,0.3,0.8,0.2,1.2c-0.1,0.2-0.3,0.4-0.5,0.5s-0.4,0.1-0.5,0.1
		C171.5,212.7,170.8,212.7,170.1,212.7z"/>
	<path class="st9" d="M171.8,227.5c-4.3,0.3-8.6-0.6-12.4-2.6c0,0,3.4,6.2,12.5,4.9L171.8,227.5z"/>
	<path class="st3" d="M165.7,200c-0.1,0.3-1.4,0.2-2.8,0.5s-2.6,0.7-2.9,0.4c-0.1-0.1,0.1-0.5,0.6-0.8c0.6-0.5,1.3-0.8,2.1-0.9
		c0.8-0.1,1.5-0.1,2.2,0.1C165.4,199.6,165.7,199.8,165.7,200z"/>
	<path class="st3" d="M177,197.8c-0.2,0.3-1.2,0.1-2.4,0.1s-2.2,0.3-2.4,0s0-0.4,0.5-0.7c0.6-0.4,1.3-0.6,2-0.6s1.4,0.1,2,0.5
		C176.9,197.4,177.1,197.7,177,197.8z"/>
	<path class="st3" d="M148.2,194.1c1-1.2,2.3-2.1,3.9-2.4c6.3-2.3,12.8-3.8,19.4-4.5c0.8,1.4,0,3.2-1.3,4.2
		c-1.3,0.8-2.8,1.5-4.4,1.8c-1.6,0.4-2.9,1.4-3.7,2.8c-0.7,1.5-0.2,3.4-0.8,5c-1,2.7-4.9,3.5-5.9,6.2c-0.8,2.1,0.4,4.3,0.6,6.5
		c0.5,4.3-2.5,8.2-6.8,8.7c-0.3,0-0.7,0.1-1,0.1c-0.3-7.8-0.6-15.7-0.9-23.5C147.3,197.2,147.3,195.5,148.2,194.1z"/>
	<path class="st3" d="M132,213.6c1.3-1.1,2.8-2,3.4-3.6c0.8-2.3-1-5,0.2-7.1c1.1-1.9,4.3-1.7,5.4-3.7c0.8-1.5-0.1-2.9,0.3-4.2
		c0.6-1.5,2.1-2.4,3.6-2.3l10.4,15.7c0.9,5.2,1.8,8,0.7,11c-0.8,1.6-1.3,3.3-1.8,5c-0.4,1.8,0.2,3.6,1.6,4.8
		c-6.4,0.4-12.3-3.1-17.8-6.4l-5.8-3.5c-0.6-0.3-1.2-0.8-1.6-1.4C129.7,216.5,130.8,214.7,132,213.6z"/>
	<path class="st4" d="M137.8,221.3c0.2,0.1,0.4,0.1,0.7,0.1c0.7,0.1,1.3,0,2-0.1c1-0.2,2-0.7,2.8-1.4c1-1,1.7-2.3,1.9-3.7
		c0.1-0.8,0.1-1.7-0.2-2.5s-0.7-1.7-1.1-2.4c-0.5-0.8-0.9-1.6-1.2-2.5s-0.1-1.9,0.4-2.7c0.6-0.8,1.7-0.9,2.7-1.3
		c0.6-0.2,1-0.5,1.4-1c0.3-0.5,0.5-1.1,0.5-1.7c-0.1-1.1-0.3-2.3-0.7-3.4c-0.1-0.5-0.1-1.1,0-1.6s0.5-1,0.9-1.3
		c1-0.5,2.1-0.8,3.2-0.8c1.2,0,2.3-0.3,3.3-0.9c1-0.6,1.8-1.4,2.3-2.4s0.8-2,0.9-3.1c0.1-1,0.4-1.9,0.7-2.9c0.3-0.8,0.9-1.6,1.5-2.2
		c2.3-2.1,5.7-2.5,8.4-1c0.9,0.5,1.7,1.1,2.4,1.9c0.6,0.7,1.1,1.4,1.5,2.2c0,0,0-0.1,0-0.2s-0.1-0.3-0.2-0.5
		c-0.3-0.6-0.7-1.2-1.1-1.7c-0.7-0.8-1.5-1.5-2.4-2c-1.2-0.7-2.6-1.1-4.1-1c-1.7,0.1-3.4,0.8-4.7,2c-0.7,0.7-1.3,1.5-1.6,2.3
		c-0.3,0.9-0.6,1.9-0.7,2.9c-0.1,1-0.4,2-0.9,2.9s-1.3,1.7-2.2,2.2c-1,0.5-2,0.8-3.1,0.9c-1.2,0-2.4,0.3-3.4,0.9
		c-0.5,0.3-0.9,0.9-1.1,1.5c-0.1,0.6-0.1,1.2,0,1.8c0.3,1.1,0.5,2.2,0.7,3.3c0,0.5-0.1,1-0.4,1.5c-0.3,0.4-0.7,0.7-1.2,0.9
		s-1,0.3-1.5,0.5s-1,0.5-1.3,0.9c-0.6,0.9-0.8,2-0.4,3c0.3,0.9,0.7,1.8,1.2,2.6c0.5,0.7,0.8,1.5,1.1,2.3c0.6,2.1,0,4.4-1.6,5.9
		c-0.8,0.7-1.7,1.2-2.7,1.5C139.6,221.4,138.7,221.4,137.8,221.3z"/>
	<path class="st3" d="M129.5,210.1c-0.1,0.2-0.2,0.3-0.2,0.5c-0.1,0.5,0,1.1,0.2,1.6c0.2,0.4,0.5,0.7,0.8,0.9
		c0.4,0.2,0.9,0.4,1.4,0.4c1.2,0,2.3-0.7,2.8-1.7c0.3-0.6,0.5-1.3,0.5-1.9c0-0.7-0.1-1.4-0.4-2.1c-0.5-1.4-1.4-2.8-1.4-4.4
		c0-0.8,0.2-1.6,0.8-2.2c0.7-0.5,1.5-0.8,2.3-0.7c0.9,0.1,1.9,0,2.8-0.2c0.5-0.2,0.9-0.5,1.1-0.9c0.3-0.4,0.4-0.9,0.5-1.4
		c0.1-1,0-1.9-0.2-2.8c-0.1-0.9-0.1-1.8,0.2-2.6c0.5-1.6,1.6-3,3.1-3.9c1.4-0.7,2.9-1,4.5-0.9c1.4,0,2.7-0.2,4.1-0.6
		c1.1-0.4,2.1-1,2.9-1.8c0.6-0.6,1.2-1.3,1.6-2c0.4-0.6,0.7-1.3,0.8-2c-0.2,0.7-0.5,1.3-0.9,1.9c-1,1.7-2.6,2.9-4.5,3.6
		c-1.3,0.4-2.6,0.5-4,0.5c-1.6-0.1-3.2,0.2-4.6,0.9c-1.5,0.9-2.7,2.3-3.2,4c-0.3,0.9-0.3,1.8-0.2,2.8c0.2,0.9,0.2,1.8,0.2,2.8
		c-0.1,0.9-0.6,1.7-1.4,2.1c-0.9,0.2-1.8,0.3-2.6,0.2c-0.9-0.1-1.9,0.2-2.6,0.8c-0.6,0.7-0.9,1.5-0.9,2.4c0,0.8,0.2,1.6,0.5,2.4
		c0.3,0.7,0.6,1.4,0.9,2.1c0.3,0.6,0.4,1.3,0.4,2c0,0.6-0.1,1.3-0.4,1.8c-0.5,1-1.5,1.6-2.6,1.6c-1.3,0-2.3-1-2.4-2.3
		c0-0.1,0-0.3,0-0.4C129.3,210.4,129.4,210.2,129.5,210.1z"/>
	<path class="st3" d="M196.8,215.2c0.2,0.5,0.2,1.1,0,1.7c-0.2,0.6-0.7,1.1-1.4,1.3c-0.8,0.2-1.7,0-2.3-0.7
		c-0.3-0.4-0.5-0.9-0.5-1.4s0.1-1.1,0.3-1.6c0.6-1.1,0.9-2.4,1-3.7c-0.1-1.5-0.8-2.8-1.9-3.7c-0.6-0.5-1.3-0.9-2-1.1
		c-0.7-0.2-1.5-0.3-2.3-0.4c-0.7,0-1.5-0.1-2.2-0.3s-1.3-0.5-1.7-1.1s-0.6-1.2-0.6-1.9s0-1.3,0.2-2c0.4-1.2,0.6-2.5,0.6-3.7
		c0-1.1-0.4-2.2-1.1-3.1c-0.6-0.7-1.3-1.3-2.1-1.8c-0.6-0.4-1.1-0.7-1.6-1.2c-0.4-0.4-0.8-0.8-1-1.4c0,0,0,0,0,0.1s0.1,0.2,0.1,0.3
		c0.2,0.4,0.5,0.8,0.8,1.1c0.5,0.5,1,0.9,1.6,1.2c0.8,0.5,1.4,1.1,1.9,1.8c0.6,0.9,1,1.9,1,3c-0.1,1.2-0.3,2.5-0.7,3.6
		c-0.2,0.7-0.2,1.4-0.2,2.1c0,0.7,0.2,1.5,0.6,2.1c0.5,0.6,1.1,1.1,1.9,1.2c0.7,0.2,1.5,0.3,2.3,0.3c0.7,0,1.5,0.1,2.2,0.4
		c0.7,0.2,1.3,0.6,1.9,1c1,0.9,1.7,2.1,1.8,3.5c0.1,1.3-0.6,2.4-1,3.5c-0.2,0.6-0.3,1.1-0.3,1.7c0,0.6,0.2,1.1,0.6,1.5
		c0.7,0.7,1.7,1,2.6,0.7c0.7-0.2,1.2-0.8,1.4-1.5c0.2-0.4,0.2-0.9,0.1-1.3C196.9,215.5,196.8,215.4,196.8,215.2z"/>
	<path class="st7" d="M262.1,217.8c0.9,1.3-1.9,2.9-1.9,2.9c0.7,0.5,0.3,3-0.9,3.2c0.5,0.3,0.9,0.3,1.2,0.9c0.3,0.6,0.3,1.3,0,1.8
		c-0.3,0.6-1,0.9-1.6,0.8c0.7,0.7,0.9,1.8,0.5,2.7c-0.3,0.5-0.7,1-1.3,1.2c-0.3,0.1-0.6,0.2-0.9,0.2c-0.1,0-0.2,0-0.3,0l-0.1-0.1
		c-0.2-0.1-0.3-0.3-0.5-0.5l-0.2-0.2c-0.4-0.2-0.7-0.4-1.1-0.5c-0.2,0-0.4-0.1-0.6-0.1c-0.1-0.1-0.2-0.2-0.3-0.2
		c-0.7-0.4-1.5-0.7-2.3-0.7c-0.9-0.1-1.7-0.4-2.4-1s-0.8-1.7-0.2-2.4c-0.6-0.1-1-0.5-1.1-1.1c0-0.6,0.3-1.1,0.8-1.4
		c0.5-0.3,1.1-0.4,1.6-0.4c-0.7-0.2-1.1-0.9-0.9-1.5c0.2-0.7,0.7-1.2,1.3-1.4s1.3-0.2,2-0.1c0.7,0.1,3.4,0.3,4.1,0.3l0.5-1.8
		l0.1-0.2c1.2-0.3,1.5-0.4,2.6-0.6C261,217.3,261.8,217.3,262.1,217.8z"/>
	<path class="st7" d="M257.4,234c-0.1,0.6-0.4,1.1-0.8,1.4c-0.8,0.2-1.6,0.2-2.4-0.1l0.2-1.9l0.1-0.5c-0.2-0.4-1-0.5-1.3-0.7
		c-0.6-0.5-0.8-1.3-0.4-2c0.5-0.6,1.2-0.9,2-0.8c0.7,0.2,1.4,0.6,1.8,1.2C257.3,231.6,257.6,232.8,257.4,234z"/>
	<path class="st9" d="M259.2,227.5c-3.3-0.9-6.6-1.5-10.1-1.7c1.6,0.5,3.3,0.9,5,1.1C255.8,227.3,257.5,227.5,259.2,227.5z"/>
	<path class="st9" d="M259.5,224c-1.4-0.6-2.9-1-4.5-1.1c-1.5-0.3-3.1-0.3-4.6-0.1c1.5,0.3,3,0.5,4.6,0.6
		C256.5,223.7,258,223.9,259.5,224z"/>
	<path class="st9" d="M259.8,220.6c-1.2-0.5-2.5-0.7-3.7-0.8c-1.3-0.2-2.5-0.2-3.8-0.1c1.2,0.4,2.5,0.6,3.8,0.6
		C257.3,220.5,258.5,220.6,259.8,220.6z"/>
	<path class="st9" d="M257.3,232.8c0.1,0,0.2-0.3,0.1-0.9c-0.2-0.7-0.7-1.3-1.3-1.7c-0.6-0.4-1.3-0.7-2-0.8
		c-0.6-0.1-0.9,0.3-0.8,0.4s0.3-0.1,0.8,0c0.6,0.2,1.2,0.5,1.8,0.9c0.5,0.3,1,0.8,1.2,1.4C257.2,232.5,257.2,232.8,257.3,232.8z"/>
	<path class="st4" d="M152,231.2c-5.8,5.3-9.7,7.3-10.4,12.7c-0.5,4.8,0,9.6,1.5,14.2c3.1,9.3,7.1,20.2,9.6,25.4c0.9,1.9,1,4,0.4,6
		c-1.4,4.5-5,13.2-4.4,30.8l54.1-3.8c0,0-9.4-21.7-11.5-32.5c-0.2-1.3,1.2-16.9,0.5-20c-2.6-11.5-15.1-22.9-19.2-29l-0.5-2
		l-19.8-3.3L152,231.2z"/>
	<g class="st5">
		<path d="M151.8,277.9c0,0,6.7,14,10.1,15.3s31.1-2.5,31.1-2.5l-1.7-6.6L151.8,277.9z"/>
	</g>
	<path class="st3" d="M176.1,239.6c0.3,0.2,0.6,0.5,0.9,0.8c0.6,0.6,1.3,1.4,2.2,2.5c1.8,2.1,4,5.4,6.5,8.8c2.2,2.9,4,6.2,5.2,9.6
		c0.4,1.1,0.6,2.1,0.9,3.2c0.1,0.4,0.1,0.8,0.1,1.2c-0.1,0-0.3-1.7-1.3-4.3c-1.3-3.4-3.1-6.6-5.3-9.5c-2.5-3.5-4.6-6.7-6.4-8.9
		c-0.9-1.1-1.6-2-2.1-2.6C176.6,240.3,176.3,240,176.1,239.6z"/>
	<path class="st4" d="M145,237.4c0,0-11.7,7.8-4.7,21.5c6.3,12.2,16.4,27.1,20.5,29.5s48.3-7.2,48.3-7.2l-1.4-17.1l-38,8l-10.9-20.4
		C158.9,251.7,154.6,234.4,145,237.4z"/>
	<path class="st7" d="M208,266.5c0,0,0.4-1.8,3.7-4c2-1.2,3.6-3,4.7-5c0.6-1,1.6-2.8,2.5-2.3s0.8,1.9,0.1,4.1s-2.5,4-1.8,4.8
		s10.7-0.2,13.6-0.8s4.3-0.3,3.9,1.1s-9.5,1.8-10.1,3.1s0.4,1.1,1.4,1.4s10.8-0.7,11,1.1s-1,1.9-1,1.9s0.3,2.1-1.3,2.7
		s-11.5-0.6-11.2,0.6s8,1.9,8.2,3.8s-1.7,1.2-3.7,0.8c-3.1-0.8-6.2-1.3-9.4-1.5c-3.3,0-9.7-0.6-9.7-0.6L208,266.5z"/>
	<path class="st6" d="M236.1,272.2c-2.2,0.2-4.4,0.2-6.6,0c-2.2,0-4.4-0.2-6.6-0.6c2.2-0.2,4.4-0.2,6.6,0
		C231.7,271.7,233.9,271.9,236.1,272.2z"/>
	<path class="st3" d="M167,277.9c-0.1-1.1,0.2-2.2,0.8-3.1c0.4-1,1.2-1.8,2.2-2.4c0.1,0.1-0.9,1.1-1.7,2.6S167.2,277.9,167,277.9z"
		/>
	<path class="st3" d="M156.6,247.7c0.1,0.1,0.2,0.3,0.3,0.4c0.2,0.3,0.4,0.7,0.8,1.2c0.6,1.1,1.6,2.7,2.7,4.8
		c2.3,4.2,5.6,10.3,9.6,17.8l-0.2-0.1l38-8.1l0.3-0.1v0.3c0.4,5.5,0.9,11.2,1.4,17v0.1v0.2h-0.2c-11.3,2.4-22.1,4.5-32,6.1
		c-2.5,0.4-4.9,0.7-7.2,1s-4.6,0.4-6.9,0.5c-0.6,0-1.1-0.1-1.7-0.2c-0.3-0.1-0.6-0.2-0.8-0.3L160,288c-0.4-0.3-0.8-0.7-1.2-1.1
		s-0.8-0.7-1.1-1.1c-0.7-0.8-1.4-1.5-1.9-2.3s-1.2-1.6-1.7-2.3c-4.4-6.2-7.4-11.5-9.5-15.2c-1-1.8-1.8-3.3-2.4-4.3
		c-0.2-0.5-0.4-0.9-0.6-1.1c-0.1-0.1-0.1-0.3-0.2-0.4c0.1,0.1,0.2,0.2,0.2,0.4l0.6,1.1l2.4,4.2c2.1,3.6,5.2,8.9,9.6,15.1
		c0.6,0.8,1.1,1.5,1.7,2.3s1.3,1.5,1.9,2.3c0.3,0.4,0.7,0.8,1.1,1.1c0.4,0.4,0.8,0.7,1.2,1l0.6,0.5c0.1,0.1,0.2,0.1,0.3,0.2
		s0.2,0.1,0.4,0.1c0.5,0.1,1.1,0.2,1.6,0.2c2.3,0,4.6-0.2,6.8-0.5c2.4-0.3,4.8-0.6,7.2-1c9.9-1.6,20.6-3.7,31.9-6.1l-0.2,0.3v-0.1
		c-0.5-5.8-0.9-11.5-1.4-17l0.3,0.2l-38,8h-0.1l-0.1-0.1c-3.9-7.6-7.2-13.7-9.4-17.9c-1.1-2.1-2-3.7-2.6-4.9l-0.7-1.3L156.6,247.7z"
		/>
	<path class="st9" d="M168.9,215.6c0.3-0.1,0.7,0.1,0.8,0.4c0.2,0.4,0.1,1-0.3,1.2c-0.4,0.2-1,0.1-1.2-0.3c-0.1-0.3-0.1-0.6,0-0.8
		c0.2-0.4,0.6-0.5,1-0.4"/>
	<path class="st3" d="M168.5,215.8c0-0.1,0.2-0.4,0.9-0.3c0.4,0.1,0.7,0.4,0.8,0.8c0.1,0.5,0,1.1-0.5,1.4c-0.4,0.3-1,0.3-1.5,0
		c-0.4-0.2-0.5-0.7-0.5-1.1c0.1-0.7,0.6-0.8,0.7-0.7c0,0.1-0.2,0.3-0.1,0.7c0,0.2,0.1,0.4,0.3,0.5s0.5,0.1,0.7,0
		c0.2-0.2,0.3-0.4,0.2-0.6c0-0.2-0.2-0.4-0.4-0.5C168.9,215.8,168.6,215.9,168.5,215.8z"/>
</g>
</svg>
