<?xml version="1.0" encoding="utf-8"?>
<!-- Generator: Adobe Illustrator 27.0.1, SVG Export Plug-In . SVG Version: 6.00 Build 0)  -->
<svg version="1.1" id="Capa_1" xmlns="http://www.w3.org/2000/svg" xmlns:xlink="http://www.w3.org/1999/xlink" x="0px" y="0px"
	 viewBox="0 0 96 96" style="enable-background:new 0 0 96 96;" xml:space="preserve">
<style type="text/css">
	.st0{opacity:0.1;}
	.st1{fill:#014751;}
	.st2{display:none;opacity:0.1;}
	.st3{display:inline;fill:#014751;}
	.st4{opacity:0.5;}
	.st5{fill:#00A99D;}
	.st6{fill:#0F2830;}
	.st7{fill:#CD5B45;}
</style>
<g class="st0">
	<path class="st1" d="M15.237,25.051C2.566,43.148,6.964,68.091,25.06,80.762s43.038,8.274,55.709-9.823
		c8.455-12.075,9.3-27.194,3.558-39.685l-11.09,5.111l-25.234,11.63l2.298-27.691l1.01-12.17
		C37.609,7.01,23.692,12.976,15.237,25.051z"/>
</g>
<g class="st2">
	<circle class="st3" cx="48" cy="48" r="40"/>
</g>
<g>
	<path class="st1" d="M48,26c12.15,0,22,9.85,22,22s-9.85,22-22,22s-22-9.85-22-22S35.85,26,48,26 M48,24c-13.234,0-24,10.766-24,24
		s10.766,24,24,24s24-10.766,24-24S61.234,24,48,24L48,24z"/>
</g>
<g class="st4">
	<path class="st5" d="M48.003,47.995l25.234-11.63l11.09-5.111c-2.864-6.23-7.359-11.81-13.381-16.026
		c-6.022-4.217-12.802-6.533-19.635-7.093l-1.01,12.17L48.003,47.995z"/>
</g>
<g>
	<path class="st6" d="M43.776,38.935c-5.005,2.334-7.171,8.284-4.837,13.289c2.334,5.005,8.284,7.171,13.289,4.837
		c4.385-2.045,6.589-6.863,5.5-11.392L85.1,32.905c1.001-0.467,1.434-1.657,0.967-2.658c-0.467-1.001-1.657-1.434-2.658-0.967
		L56.038,42.044C53.269,38.299,48.161,36.89,43.776,38.935z"/>
</g>
<circle class="st7" cx="48" cy="48" r="7"/>
</svg>
