<svg width="64" height="64" viewBox="0 0 64 64" fill="none" xmlns="http://www.w3.org/2000/svg">
<path opacity="0.1" d="M5.71832 13.4725C-4.29332 27.7713 -0.818366 47.4793 13.4797 57.491C27.7777 67.5026 47.485 64.0285 57.4966 49.7296C64.1771 40.1889 64.8447 28.243 60.3079 18.3736L51.5454 22.4119L31.6075 31.601L33.4232 9.72177L34.2212 0.105984C23.3949 -0.782113 12.3988 3.93176 5.71832 13.4725Z" fill="#FAFAFA"/>
<path d="M31.6051 14.2223C41.2051 14.2223 48.9878 22.005 48.9878 31.605C48.9878 41.205 41.2051 48.9877 31.6051 48.9877C22.0051 48.9877 14.2224 41.205 14.2224 31.605C14.2224 22.005 22.0051 14.2223 31.6051 14.2223ZM31.6051 12.6421C21.1486 12.6421 12.6422 21.1485 12.6422 31.605C12.6422 42.0615 21.1486 50.5679 31.6051 50.5679C42.0616 50.5679 50.568 42.0615 50.568 31.605C50.568 21.1485 42.0616 12.6421 31.6051 12.6421Z" fill="#FAFAFA"/>
<path opacity="0.7" d="M31.6075 31.6011L51.5454 22.4119L60.3079 18.3736C58.045 13.4512 54.4934 9.04227 49.7352 5.71112C44.9771 2.37917 39.6201 0.549249 34.2212 0.106781L33.4232 9.72257L31.6075 31.6011Z" fill="#2E9999"/>
<path d="M28.2676 24.4425C24.313 26.2867 22.6016 30.9879 24.4458 34.9425C26.2899 38.897 30.9912 40.6084 34.9457 38.7643C38.4104 37.1485 40.1518 33.3417 39.2914 29.7632L60.9186 19.6781C61.7095 19.3091 62.0517 18.3689 61.6827 17.578C61.3137 16.787 60.3734 16.4449 59.5825 16.8139L37.9561 26.899C35.7682 23.94 31.7323 22.8267 28.2676 24.4425Z" fill="#FAFAFA"/>
<path d="M31.6051 37.1359C34.6597 37.1359 37.1359 34.6596 37.1359 31.605C37.1359 28.5504 34.6597 26.0741 31.6051 26.0741C28.5505 26.0741 26.0742 28.5504 26.0742 31.605C26.0742 34.6596 28.5505 37.1359 31.6051 37.1359Z" fill="#CD5B45"/>
<path d="M46.6174 55.3087C48.7993 55.3087 50.568 53.5399 50.568 51.358C50.568 49.1762 48.7993 47.4074 46.6174 47.4074C44.4356 47.4074 42.6668 49.1762 42.6668 51.358C42.6668 53.5399 44.4356 55.3087 46.6174 55.3087Z" fill="#FAFAFA"/>
<path d="M56.889 55.3087C58.6345 55.3087 60.0495 53.8937 60.0495 52.1482C60.0495 50.4027 58.6345 48.9877 56.889 48.9877C55.1435 48.9877 53.7285 50.4027 53.7285 52.1482C53.7285 53.8937 55.1435 55.3087 56.889 55.3087Z" fill="#FAFAFA"/>
<path d="M54.5186 64H38.7162C38.28 64 37.9261 63.646 37.9261 63.2099C37.9261 59.2893 41.8253 56.0988 46.6174 56.0988C51.4095 56.0988 55.3088 59.2893 55.3088 63.2099C55.3088 63.646 54.9548 64 54.5186 64Z" fill="#FAFAFA"/>
<path d="M64.0001 61.6296C64.0001 62.0642 63.6446 62.4198 63.21 62.4198H56.8416C56.6125 60.1837 55.3641 58.1847 53.4994 56.7625C54.5107 56.3358 55.6643 56.0988 56.889 56.0988C60.808 56.0988 64.0001 58.5798 64.0001 61.6296Z" fill="#FAFAFA"/>
</svg>
