<svg width="544" height="544" viewBox="0 0 544 544" fill="none" xmlns="http://www.w3.org/2000/svg">
<path d="M205.688 69.2244L193.002 69.293L193.344 132.418L206.03 132.349L205.688 69.2244Z" fill="#E0E0E0"/>
<path d="M115.952 69.3948L83.1062 69.5725L83.2947 104.421L116.141 104.243L115.952 69.3948Z" fill="#EBEBEB"/>
<path d="M148.645 69.2179L115.799 69.3956L115.988 104.244L148.834 104.066L148.645 69.2179Z" fill="#F5F5F5"/>
<path d="M83.1558 79.1955C104.981 79.3805 126.872 79.1955 148.697 78.9018C148.893 78.9018 149.045 78.7495 149.045 78.5536C149.045 78.3578 148.893 78.2055 148.697 78.2055C126.861 78.0749 105.014 78.2055 83.1558 78.5971C82.9926 78.6298 82.8838 78.793 82.9164 78.9562C82.9382 79.0759 83.0361 79.1738 83.1558 79.1955Z" fill="#E0E0E0"/>
<path d="M122.318 103.665L62.6311 103.987L62.7847 132.384L122.472 132.061L122.318 103.665Z" fill="#EBEBEB"/>
<path d="M181.709 103.343L122.022 103.666L122.176 132.063L181.863 131.74L181.709 103.343Z" fill="#F5F5F5"/>
<path d="M62.6687 111.879C102.315 112.336 142.093 111.879 181.75 111.292C181.946 111.292 182.098 111.139 182.098 110.943C182.098 110.748 181.946 110.595 181.75 110.595C142.104 110.388 102.326 110.41 62.6687 111.281C62.5055 111.313 62.3967 111.476 62.4294 111.64C62.4511 111.759 62.5491 111.857 62.6687 111.879Z" fill="#E0E0E0"/>
<path d="M271.576 132.388H40.343V142.561H271.576V132.388Z" fill="#E0E0E0"/>
<path d="M87.5948 137.273H78.2053V171.991H87.5948V137.273Z" fill="#E0E0E0"/>
<path d="M227.718 137.273H218.329V171.991H227.718V137.273Z" fill="#E0E0E0"/>
<path d="M218.062 45.6784L205.376 45.747L205.845 132.557L218.531 132.489L218.062 45.6784Z" fill="#EBEBEB"/>
<path d="M238.169 60.7716L218.456 60.9678L219.155 131.314L238.869 131.118L238.169 60.7716Z" fill="#F5F5F5"/>
<path d="M237.75 75.4093C237.75 75.6051 233.332 75.7574 227.892 75.7574C222.452 75.7574 218.035 75.6051 218.035 75.4093C218.035 75.2134 222.452 75.072 227.892 75.072C233.332 75.072 237.75 75.2243 237.75 75.4093Z" fill="#E0E0E0"/>
<path d="M237.75 72.4608C237.75 72.6458 233.332 72.7981 227.892 72.7981C222.452 72.7981 218.035 72.6458 218.035 72.4608C218.035 72.2758 222.452 72.1126 227.892 72.1126C233.332 72.1126 237.75 72.265 237.75 72.4608Z" fill="#E0E0E0"/>
<path d="M237.75 121.628C237.75 121.812 233.332 121.965 227.892 121.965C222.452 121.965 218.035 121.812 218.035 121.628C218.035 121.443 222.452 121.279 227.892 121.279C233.332 121.279 237.75 121.432 237.75 121.628Z" fill="#E0E0E0"/>
<path d="M237.75 118.668C237.75 118.853 233.332 119.016 227.892 119.016C222.452 119.016 218.035 118.853 218.035 118.668C218.035 118.483 222.452 118.331 227.892 118.331C233.332 118.331 237.75 118.483 237.75 118.668Z" fill="#E0E0E0"/>
<path d="M228.208 112.216C228.023 112.216 227.871 105.123 227.871 96.3751C227.871 87.6275 228.023 80.512 228.208 80.512C228.393 80.512 228.556 87.6167 228.556 96.3751C228.556 105.133 228.404 112.216 228.208 112.216Z" fill="#E0E0E0"/>
<path d="M259.423 79.1302H237.967V132.236H259.423V79.1302Z" fill="#EBEBEB"/>
<path d="M211.529 64.1702C213.542 64.1702 215.174 62.5384 215.174 60.5254C215.174 58.5125 213.542 56.8806 211.529 56.8806C209.516 56.8806 207.884 58.5125 207.884 60.5254C207.884 62.5384 209.516 64.1702 211.529 64.1702Z" fill="#E0E0E0"/>
<path d="M212.66 70.5459H210.408V122.193H212.66V70.5459Z" fill="#E0E0E0"/>
<path d="M7.88794 379.331L11.9462 393.584L398.959 505.974L532.075 418.129V406.14L7.88794 379.331Z" fill="#E0E0E0"/>
<path d="M146.728 314.845L532.075 406.14L398.959 493.005L7.88794 379.331L146.728 314.845Z" fill="#EBEBEB"/>
<path d="M408.99 487C407.532 490.209 405.9 493.343 404.116 496.378C402.495 499.512 400.699 502.547 398.741 505.485C401.82 499.142 405.247 492.962 408.99 486.989V487Z" fill="#EBEBEB"/>
<path d="M421.709 478.72C420.251 481.93 418.619 485.063 416.834 488.099C415.213 491.232 413.418 494.268 411.46 497.205C414.539 490.862 417.966 484.682 421.709 478.709V478.72Z" fill="#EBEBEB"/>
<path d="M434.427 470.408C432.97 473.617 431.338 476.751 429.553 479.786C427.932 482.92 426.137 485.955 424.178 488.893C427.258 482.55 430.685 476.37 434.427 470.397V470.408Z" fill="#EBEBEB"/>
<path d="M447.168 462.117C445.71 465.327 444.078 468.46 442.294 471.496C440.673 474.629 438.877 477.665 436.919 480.602C439.998 474.259 443.425 468.079 447.168 462.106V462.117Z" fill="#EBEBEB"/>
<path d="M459.865 453.827C458.407 457.036 456.775 460.17 454.991 463.205C453.37 466.339 451.574 469.374 449.616 472.312C451.074 469.091 452.695 465.958 454.49 462.922C456.111 459.789 457.907 456.753 459.865 453.827Z" fill="#EBEBEB"/>
<path d="M472.584 445.525C471.126 448.735 469.494 451.868 467.709 454.904C466.088 458.037 464.293 461.073 462.335 464.01C465.414 457.667 468.841 451.487 472.584 445.514V445.525Z" fill="#EBEBEB"/>
<path d="M485.302 437.235C483.844 440.444 482.213 443.578 480.428 446.613C478.807 449.747 477.012 452.782 475.053 455.72C478.133 449.377 481.56 443.197 485.302 437.224V437.235Z" fill="#EBEBEB"/>
<path d="M498.021 428.944C496.552 432.154 494.931 435.276 493.147 438.323C491.526 441.456 489.73 444.492 487.772 447.418C489.23 444.209 490.851 441.075 492.646 438.04C494.267 434.906 496.063 431.871 498.021 428.944Z" fill="#EBEBEB"/>
<path d="M510.74 420.643C509.282 423.852 507.65 426.986 505.865 430.021C504.244 433.155 502.449 436.19 500.491 439.128C503.57 432.785 506.997 426.605 510.74 420.632V420.643Z" fill="#EBEBEB"/>
<path d="M523.458 412.352C522 415.562 520.369 418.695 518.584 421.731C516.963 424.864 515.168 427.91 513.209 430.848C514.667 427.628 516.288 424.494 518.084 421.459C519.705 418.325 521.5 415.29 523.458 412.352Z" fill="#EBEBEB"/>
<path d="M532.086 411.438C531.314 413.418 530.367 415.322 529.258 417.128C528.311 419.032 527.201 420.86 525.928 422.568C526.701 420.588 527.647 418.684 528.757 416.878C529.693 414.963 530.813 413.146 532.086 411.438Z" fill="#EBEBEB"/>
<path d="M395.553 504.832C394.737 504.179 393.987 503.45 393.301 502.656C391.963 501.231 390.179 499.207 388.296 496.911C386.414 494.616 384.771 492.472 383.629 490.895C382.965 490.079 382.389 489.197 381.899 488.262C382.639 489.002 383.324 489.807 383.944 490.655L388.732 496.552L393.595 502.384C394.313 503.146 394.966 503.962 395.553 504.832Z" fill="#EBEBEB"/>
<path d="M377.612 499.675C376.796 499.022 376.035 498.293 375.36 497.499C374.022 496.074 372.237 494.061 370.355 491.765C368.473 489.469 366.83 487.326 365.688 485.748C365.024 484.922 364.447 484.04 363.958 483.105C364.698 483.844 365.383 484.65 366.003 485.498L370.79 491.406C372.629 493.582 374.294 495.595 375.654 497.238C376.372 497.999 377.025 498.815 377.612 499.675Z" fill="#EBEBEB"/>
<path d="M359.671 494.572C358.855 493.919 358.093 493.19 357.419 492.396C356.081 490.971 354.296 488.958 352.414 486.662C350.532 484.367 348.889 482.223 347.747 480.646C347.083 479.83 346.506 478.938 346.017 478.002C346.767 478.742 347.442 479.547 348.062 480.396L352.849 486.303L357.713 492.135C358.431 492.897 359.083 493.713 359.671 494.572Z" fill="#EBEBEB"/>
<path d="M341.73 489.48C340.914 488.828 340.163 488.099 339.478 487.304C338.139 485.879 336.355 483.855 334.473 481.56C332.591 479.264 330.948 477.121 329.805 475.543C329.142 474.727 328.565 473.846 328.075 472.91C328.826 473.65 329.512 474.444 330.121 475.304L334.908 481.201L339.771 487.032C340.49 487.794 341.153 488.61 341.73 489.48Z" fill="#EBEBEB"/>
<path d="M323.789 484.378C322.973 483.725 322.211 482.996 321.537 482.202C320.198 480.776 318.414 478.764 316.532 476.468C314.649 474.172 313.007 472.029 311.864 470.451C311.201 469.624 310.624 468.743 310.134 467.807C310.885 468.547 311.56 469.352 312.18 470.201L316.967 476.109C318.806 478.285 320.47 480.298 321.83 481.94C322.548 482.691 323.212 483.507 323.789 484.378Z" fill="#EBEBEB"/>
<path d="M305.848 479.275C305.032 478.622 304.27 477.893 303.596 477.099C302.257 475.674 300.473 473.661 298.591 471.365C296.709 469.069 295.066 466.926 293.923 465.348C293.26 464.532 292.683 463.64 292.193 462.705C292.944 463.444 293.63 464.25 294.239 465.109L299.026 471.006L303.889 476.838C304.607 477.599 305.26 478.405 305.848 479.275Z" fill="#EBEBEB"/>
<path d="M287.907 474.183C287.091 473.53 286.329 472.801 285.654 472.007C284.316 470.582 282.532 468.569 280.65 466.262C278.767 463.956 277.125 461.823 275.982 460.246C275.318 459.43 274.742 458.548 274.252 457.613C275.003 458.353 275.688 459.147 276.298 460.006L281.085 465.903L285.948 471.735C286.666 472.497 287.33 473.313 287.907 474.183Z" fill="#EBEBEB"/>
<path d="M269.965 468.069C269.149 467.416 268.388 466.687 267.713 465.893C266.386 464.467 264.591 462.454 262.708 460.159C260.826 457.863 259.183 455.72 258.041 454.142C257.377 453.326 256.801 452.434 256.311 451.498C257.062 452.238 257.736 453.043 258.356 453.892L263.144 459.8L268.007 465.631C268.725 466.393 269.378 467.198 269.965 468.069Z" fill="#EBEBEB"/>
<path d="M250 462.52C249.174 461.878 248.412 461.149 247.737 460.344C246.41 458.918 244.626 456.906 242.733 454.61C240.84 452.314 239.208 450.171 238.076 448.593C237.412 447.766 236.836 446.885 236.335 445.949C237.086 446.689 237.771 447.494 238.392 448.343L243.168 454.251C245.017 456.427 246.682 458.451 248.042 460.083C248.76 460.844 249.413 461.66 250 462.52Z" fill="#EBEBEB"/>
<path d="M230.025 456.96C229.209 456.307 228.447 455.578 227.773 454.784C226.435 453.359 224.65 451.346 222.768 449.05C220.886 446.755 219.243 444.611 218.101 443.023C217.437 442.207 216.86 441.325 216.371 440.39C217.121 441.13 217.807 441.924 218.416 442.783C219.754 444.437 221.397 446.45 223.203 448.691L228.067 454.512C228.785 455.274 229.448 456.09 230.025 456.96Z" fill="#EBEBEB"/>
<path d="M209.984 450.519C209.168 449.866 208.406 449.137 207.732 448.343C206.405 446.918 204.609 444.905 202.727 442.609C200.845 440.314 199.104 438.138 198.016 436.56C197.352 435.733 196.776 434.852 196.286 433.916C197.037 434.656 197.711 435.461 198.332 436.31L203.119 442.218L207.982 448.049C208.722 448.811 209.386 449.638 209.984 450.519Z" fill="#EBEBEB"/>
<path d="M189.834 444.894C189.018 444.241 188.257 443.512 187.582 442.718C186.255 441.293 184.459 439.28 182.577 436.984C180.695 434.689 179.052 432.545 177.91 430.968C177.246 430.141 176.669 429.26 176.18 428.324C176.93 429.064 177.605 429.869 178.225 430.717C179.574 432.371 181.206 434.395 183.012 436.625L187.887 442.457C188.605 443.208 189.257 444.024 189.834 444.894Z" fill="#EBEBEB"/>
<path d="M169.619 438.986C168.803 438.333 168.042 437.605 167.367 436.81C166.029 435.385 164.244 433.372 162.351 431.076C160.458 428.781 158.837 426.637 157.695 425.049C157.031 424.222 156.454 423.341 155.954 422.416C156.705 423.156 157.401 423.95 158.01 424.81L162.797 430.717L167.661 436.538C168.379 437.3 169.032 438.116 169.619 438.986Z" fill="#EBEBEB"/>
<path d="M150.144 433.514C149.328 432.861 148.566 432.132 147.892 431.338C146.553 429.912 144.769 427.9 142.887 425.604C141.005 423.308 139.362 421.165 138.219 419.576C137.556 418.76 136.979 417.879 136.49 416.943C137.229 417.683 137.915 418.488 138.535 419.337C139.873 420.991 141.516 423.004 143.322 425.245L148.186 431.066C148.904 431.827 149.556 432.643 150.144 433.514Z" fill="#EBEBEB"/>
<path d="M130.168 428.291C129.352 427.638 128.591 426.909 127.916 426.115C126.589 424.69 124.804 422.677 122.911 420.381C121.018 418.086 119.386 415.942 118.244 414.354C117.58 413.538 117.004 412.657 116.514 411.721C117.265 412.461 117.95 413.266 118.57 414.115L123.347 420.022L128.221 425.854C128.939 426.605 129.592 427.421 130.168 428.291Z" fill="#EBEBEB"/>
<path d="M112.619 422.438C111.803 421.785 111.041 421.056 110.367 420.262C109.039 418.836 107.255 416.824 105.362 414.528C103.469 412.232 101.837 410.089 100.694 408.5C100.053 407.663 99.4868 406.771 99.0081 405.824C99.7588 406.564 100.455 407.358 101.064 408.218L105.841 414.125L110.715 419.946C111.422 420.719 112.064 421.556 112.619 422.438Z" fill="#EBEBEB"/>
<path d="M95.0694 416.584C94.2534 415.932 93.5027 415.203 92.8173 414.408C91.4899 412.983 89.7056 410.97 87.8125 408.664C85.9194 406.357 84.2874 404.225 83.145 402.647C82.4813 401.831 81.9046 400.95 81.415 400.014C82.1658 400.754 82.8621 401.548 83.4714 402.408L88.2477 408.305L93.1219 414.136C93.84 414.898 94.4928 415.714 95.0694 416.584Z" fill="#EBEBEB"/>
<path d="M79.1627 412.232C78.3467 411.58 77.5851 410.851 76.9105 410.056C75.5723 408.631 73.788 406.618 71.9057 404.323C70.0235 402.027 68.3806 399.884 67.2382 398.295C66.5745 397.479 65.9979 396.598 65.5083 395.662C66.2481 396.402 66.9336 397.207 67.5537 398.056L72.3409 403.953L77.2478 409.752C77.955 410.524 78.5969 411.351 79.1627 412.232Z" fill="#EBEBEB"/>
<path d="M60.9278 407.249C60.1118 406.596 59.3502 405.868 58.6757 405.073C57.3374 403.648 55.5531 401.635 53.6709 399.329C51.7886 397.022 50.1458 394.89 49.0034 393.312C48.3397 392.496 47.763 391.615 47.2734 390.679C48.0242 391.419 48.7096 392.213 49.3189 393.073L54.1061 398.97L58.9694 404.736C59.6984 405.519 60.3512 406.357 60.9278 407.249Z" fill="#EBEBEB"/>
<path d="M44.3359 402.429C43.5199 401.777 42.7583 401.048 42.0729 400.253C40.7455 398.839 38.9612 396.815 37.0681 394.52C35.175 392.224 33.543 390.081 32.4115 388.503C31.7478 387.676 31.1603 386.795 30.6707 385.859C31.4214 386.599 32.1068 387.404 32.727 388.264L37.5033 394.161L42.4319 399.949C43.1283 400.721 43.7702 401.548 44.3359 402.429Z" fill="#EBEBEB"/>
<path d="M25.5789 396.576C24.7629 395.923 24.0121 395.194 23.3267 394.4C21.9885 392.975 20.2041 390.962 18.311 388.666C16.4179 386.371 14.7968 384.227 13.6544 382.65C12.9907 381.823 12.4141 380.941 11.9136 380.006C12.6643 380.746 13.3497 381.551 13.9699 382.41L18.7571 388.307L23.6205 394.139C24.3385 394.9 24.9913 395.716 25.5789 396.576Z" fill="#EBEBEB"/>
<path d="M87.6494 388.209C82.3943 385.99 79.9355 379.919 82.155 374.664C82.9819 372.705 84.3963 371.041 86.2023 369.92C91.4574 366.776 97.3761 364.904 103.48 364.48C110.073 363.871 116.71 365.078 122.661 367.983C130.158 371.639 130.343 383.531 121.878 387.687C109.725 393.595 99.4542 393.268 87.6494 388.209Z" fill="#0F2830"/>
<path d="M100.205 242.036L101.293 241.917L104.851 241.579H104.927V241.656C105.253 255.919 106.08 307.414 106.961 368.68V369.322H106.7L102.707 369.648H102.414V369.354L100.749 279.05C100.553 267.583 100.401 258.313 100.292 251.85C100.292 248.673 100.216 246.203 100.194 244.506V242.646C100.194 243.081 100.194 243.734 100.259 244.582C100.259 246.291 100.357 248.782 100.444 251.992C100.586 258.422 100.803 267.713 101.064 279.192C101.598 302.246 102.272 334.016 103.001 369.387L102.696 369.104L106.679 368.778L106.417 369.06V368.691C105.536 307.425 104.894 255.919 104.807 241.656L104.883 241.721L101.358 241.971L100.205 242.036Z" fill="#0F2830"/>
<path d="M92.4802 254.091L93.046 253.7L94.7977 252.525L101.587 248.064L126.611 231.526L209.919 176.691L210.169 176.528L210.322 176.778L212.846 180.847L213.107 181.272L213.248 181.511L213.02 181.663C155.443 218.862 107.212 249.903 94.7215 257.823L94.6562 257.856V257.802L93.0351 254.995C92.6869 254.396 92.5455 254.102 92.5455 254.102C92.5455 254.102 92.7413 254.407 93.1004 255.005C93.4594 255.604 94.0252 256.507 94.765 257.736H94.678C107.038 249.598 155.171 218.394 212.737 181.195L212.65 181.587C212.574 181.446 212.487 181.304 212.389 181.163C211.529 179.759 210.67 178.378 209.865 177.083L210.267 177.17L126.97 231.668L101.794 248.064L94.9391 252.525L93.1439 253.678C92.7305 253.972 92.4802 254.091 92.4802 254.091Z" fill="#0F2830"/>
<path d="M108.147 251.252C108.256 254.603 105.634 257.41 102.283 257.519C98.932 257.627 96.125 255.005 96.0162 251.654C95.9074 248.303 98.5295 245.496 101.881 245.387C105.232 245.279 108.039 247.901 108.147 251.252Z" fill="#0F2830"/>
<path d="M205.523 186.44C205.523 186.44 190.977 194.698 201.052 229.459C201.052 229.459 240.796 228.959 255.658 206.263C255.658 206.263 241.514 176.702 223.617 179.618L205.523 186.44Z" fill="#CD5B45"/>
<path d="M205.98 180.271L202.792 171.904C201.465 168.444 203.206 164.56 206.666 163.233C206.894 163.146 207.123 163.069 207.351 163.015C210.659 162.134 214.108 163.885 215.348 167.073L218.917 176.278L205.98 180.271Z" fill="#CD5B45"/>
<path d="M205.523 186.44L205.773 179.748L218.22 174.493L223.617 179.618L205.523 186.44Z" fill="#0F2830"/>
<path d="M126.97 371.9C127.002 372.096 127.002 372.303 126.97 372.499C126.937 373.075 126.861 373.652 126.752 374.218C126.317 376.317 125.414 378.276 124.108 379.973C122.117 382.454 119.528 384.38 116.579 385.565C112.989 387.002 109.17 387.785 105.308 387.861C103.262 387.948 101.26 387.861 99.3344 387.807C97.4848 387.72 95.6352 387.513 93.8074 387.176C90.6522 386.686 87.7146 385.304 85.3319 383.183C83.7325 381.725 82.601 379.843 82.0679 377.743C81.9482 377.177 81.8829 376.6 81.872 376.024C81.8503 375.828 81.8503 375.621 81.872 375.425C81.9482 376.187 82.0787 376.938 82.2419 377.688C82.8186 379.69 83.9501 381.485 85.5059 382.878C87.8669 384.891 90.7392 386.196 93.8074 386.653C95.6026 386.969 97.4196 387.165 99.2474 387.241C101.151 387.339 103.142 387.372 105.155 387.241C108.952 387.176 112.706 386.436 116.253 385.065C119.147 383.933 121.693 382.095 123.673 379.701C124.979 378.069 125.914 376.176 126.415 374.141C126.872 372.727 126.904 371.9 126.97 371.9Z" fill="#014751"/>
<path d="M249.522 199.104C249.413 199.256 249.283 199.398 249.141 199.528L247.988 200.616C247.488 201.106 246.9 201.704 246.095 202.335C245.29 202.966 244.496 203.739 243.484 204.511C242.472 205.284 241.416 206.122 240.22 206.959C239.023 207.797 237.685 208.657 236.292 209.549C233.202 211.409 230.014 213.074 226.718 214.532C223.399 215.946 220.005 217.154 216.534 218.133C214.924 218.547 213.411 218.971 211.953 219.221C210.496 219.471 209.157 219.765 207.917 219.961C206.677 220.157 205.556 220.287 204.566 220.396C203.576 220.505 202.716 220.581 202.02 220.614L200.41 220.69C200.225 220.712 200.029 220.712 199.844 220.69C200.018 220.625 200.214 220.592 200.399 220.592L201.998 220.407C202.695 220.342 203.543 220.255 204.522 220.092C205.502 219.928 206.633 219.83 207.852 219.58C209.07 219.33 210.43 219.123 211.856 218.775C213.281 218.427 214.804 218.046 216.392 217.622C223.269 215.642 229.851 212.78 235.976 209.092C237.369 208.211 238.718 207.405 239.915 206.557C241.112 205.708 242.232 204.936 243.179 204.185C244.126 203.434 245.05 202.716 245.823 202.096C246.595 201.476 247.259 200.932 247.781 200.464L249 199.376C249.163 199.256 249.337 199.169 249.522 199.104Z" fill="white"/>
<path d="M337.65 474.792C344.885 474.705 351.642 471.126 355.776 465.185C357.615 462.509 359.04 459.267 361.847 457.7C366.449 455.176 371.933 458.255 376.644 460.55C386.327 465.261 398.262 466.632 407.739 461.519C412.635 458.875 416.671 454.653 421.883 452.815C426.648 451.117 431.882 451.574 436.919 452.097C441.956 452.619 447.146 453.185 451.988 451.694C456.829 450.204 461.236 446.069 461.356 441.01C461.453 436.332 457.852 432.208 453.565 430.337C449.279 428.465 444.448 428.443 439.791 428.661C413.756 429.891 388.198 438.094 362.163 436.941C357.082 436.712 351.565 436.223 347.29 438.986C341.697 442.577 340.457 450.127 340.261 456.775C340.065 463.423 340.141 470.723 335.855 475.804" fill="#E0E0E0"/>
<path d="M336.518 412.744C335.615 414.289 334.81 415.888 334.103 417.542C333.08 420.98 329.327 433.209 334.103 439.596C339.543 446.809 370.007 446.613 372.455 446.58H372.76L417.085 443.447C417.553 443.414 418.01 443.327 418.456 443.175L456.481 430.119C457.406 429.804 458.222 429.238 458.853 428.498C460.779 426.191 460.463 422.753 458.146 420.838C458.146 420.838 458.124 420.828 458.124 420.817L429.662 397.762C429.075 397.283 428.389 396.935 427.66 396.75C409.61 392.278 390.831 391.626 372.52 394.835C354.557 398.132 345.527 400.721 336.518 412.744Z" fill="#CD5B45"/>
<path d="M454.991 429.27C452.728 430.902 452.129 434.014 453.62 436.364C455.404 438.954 459.397 439.28 462.074 437.637C464.75 435.994 466.262 432.915 466.882 429.825C467.307 427.649 467.252 425.103 465.62 423.613C464.413 422.699 462.944 422.177 461.432 422.111C457.199 421.546 452.934 421.252 448.658 421.23" fill="#CD5B45"/>
<g opacity="0.3">
<path d="M441.282 422.514C444.241 423.602 450.574 425.517 453.707 425.615C456.884 425.854 460.006 424.625 462.182 422.296C462.476 421.861 462.846 421.469 463.27 421.154C463.706 420.817 464.304 420.817 464.739 421.154C465.229 421.622 465 422.438 464.739 423.047C462.857 426.55 459.267 428.792 455.295 428.944C451.4 429.042 443.327 425.865 441.336 422.503" fill="black"/>
</g>
<path d="M441.87 386.588C441.87 386.588 423.939 389.134 428.89 408.675C433.84 428.215 453.674 427.345 457.178 426.833C458.32 426.605 459.408 426.17 460.387 425.549C465.751 422.34 469.276 416.769 469.886 410.546L469.994 409.599L480.428 399.807C480.428 399.807 477.414 398.164 466.719 399.383L453.663 389.341C453.663 389.341 455.176 377.166 453.587 376.285C451.999 375.404 441.87 386.588 441.87 386.588Z" fill="#CD5B45"/>
<path d="M333.831 420.24C330.567 425.952 331.796 433.035 333.015 439.487C334.234 445.939 335.267 453.087 331.818 458.668C329.163 462.857 324.452 465.294 319.502 465.044C315.346 464.783 311.592 462.65 307.73 461.105C303.867 459.56 299.298 458.636 295.686 460.703C291.834 462.879 290.355 468.058 291.573 472.323C292.792 476.588 296.241 479.939 300.125 482.038C308.296 486.477 318.621 486.042 326.9 481.701C335.18 477.36 341.186 469.461 344.145 460.648C347.105 451.836 347.137 442.207 345.179 433.122" fill="#CD5B45"/>
<path d="M448.876 405.53L449.257 410.894L453.609 409.164C453.609 409.164 452.031 405.878 448.876 405.53Z" fill="#0F2830"/>
<g opacity="0.3">
<path d="M392.398 445.46C395.39 444.274 397.479 441.532 397.838 438.333C398.143 435.156 397.272 431.979 395.379 429.412C391.081 423.46 383.509 420.849 376.459 422.884C375.175 423.286 373.793 423.972 373.489 425.299C373.304 426.387 373.717 427.486 374.577 428.182C375.425 428.857 376.372 429.401 377.373 429.814C384.292 433.285 389.297 439.672 391.027 447.222" fill="black"/>
</g>
<path d="M368.495 421.317C379.995 419.359 390.897 427.094 392.866 438.584C393.29 441.097 393.268 443.676 392.768 446.189C395.521 447.048 398.491 446.396 401.32 445.873C404.148 445.351 407.26 445.003 409.795 446.374C412.33 447.745 413.701 451.52 411.71 453.598C410.568 454.556 409.164 455.132 407.684 455.263C399.677 456.775 391.364 458.287 383.466 456.351C378.755 455.187 374.446 452.836 370.192 450.519C365.47 447.951 365.894 448.898 361.183 446.33" fill="#CD5B45"/>
<g opacity="0.3">
<path d="M445.144 433.22L440.792 432.132C438.725 431.751 436.734 431.066 434.873 430.097C432.991 429.107 431.631 427.356 431.142 425.288C430.837 423.558 431.664 421.48 433.318 421.034C434.667 420.675 436.027 421.415 437.224 422.122C440.618 424.124 444.002 426.137 447.385 428.15C448.18 428.509 448.833 429.107 449.257 429.869C449.649 430.989 449.257 432.241 448.289 432.937C447.331 433.59 446.189 433.927 445.025 433.884" fill="black"/>
</g>
<path d="M413.081 427.66C413.484 432.415 415.932 436.756 419.783 439.552C423.646 442.316 428.28 443.763 433.024 443.708C437.724 443.708 442.566 442.62 447.048 443.991C449.953 444.905 452.488 446.842 455.317 447.843C458.146 448.844 461.954 448.561 463.542 445.971C465.011 443.588 463.88 440.303 461.769 438.475C459.658 436.647 456.84 435.907 454.153 435.211L441.728 432.11C439.139 431.642 436.658 430.652 434.46 429.194C432.382 427.595 430.968 424.842 431.762 422.307" fill="#CD5B45"/>
<path d="M454.197 414.125C453.478 414.452 452.673 414.506 451.923 414.278C451.063 414.115 450.291 413.69 449.692 413.048C449.322 412.635 449.116 412.08 449.137 411.525C449.159 410.883 449.551 410.317 450.138 410.056L450.367 410.568C450.258 410.568 450.149 410.676 450.019 410.72C448.963 411.123 447.788 411.09 446.755 410.644C445.917 410.274 445.231 409.632 444.807 408.816C444.361 408.109 444.241 407.26 444.459 406.455C444.568 407.217 444.796 407.946 445.155 408.631C445.58 409.316 446.2 409.86 446.95 410.176C447.864 410.535 448.887 410.535 449.801 410.176L450.106 410.056L450.323 410.568C449.942 410.753 449.692 411.133 449.681 411.558C449.66 411.982 449.801 412.385 450.084 412.7C450.595 413.277 451.27 413.69 452.01 413.897C452.728 414.049 453.457 414.125 454.197 414.125Z" fill="#0F2830"/>
<path d="M463.608 413.44C463.608 413.505 463.249 413.756 462.52 413.919C461.573 414.125 460.583 414.06 459.68 413.723C458.766 413.375 457.983 412.765 457.439 411.96C457.036 411.34 456.971 410.872 457.025 410.872C457.08 410.872 457.319 411.231 457.765 411.732C458.342 412.395 459.06 412.896 459.876 413.212C461.094 413.549 462.357 413.625 463.608 413.44Z" fill="#0F2830"/>
<path d="M429.096 388.644C429.096 388.644 432.611 392.55 436.843 397.457C441.075 402.364 444.459 406.379 444.459 406.422C444.459 406.466 440.945 402.516 436.712 397.61C432.48 392.703 429.042 388.688 429.096 388.644Z" fill="#0F2830"/>
<path d="M433.949 382.769C433.949 382.769 436.429 387.644 439.389 393.725C442.348 399.807 444.644 404.769 444.589 404.79C444.535 404.812 442.109 399.916 439.149 393.823C436.19 387.731 433.894 382.791 433.949 382.769Z" fill="#0F2830"/>
<path d="M411.667 453.892C411.59 453.446 411.449 453.021 411.264 452.608C410.72 451.661 409.839 450.954 408.805 450.617C407.75 450.301 406.64 450.193 405.541 450.291C404.703 450.291 404.181 450.399 404.17 450.367C404.159 450.334 404.301 450.312 404.529 450.269C404.758 450.225 405.106 450.171 405.53 450.127C406.64 449.975 407.772 450.073 408.849 450.399C409.948 450.758 410.851 451.542 411.373 452.575C411.525 452.88 411.623 453.217 411.656 453.555C411.677 453.663 411.677 453.783 411.667 453.892Z" fill="#0F2830"/>
<path d="M412.145 450.073C412.145 450.073 411.982 449.605 411.558 448.985C410.426 447.244 408.261 446.493 406.292 447.146C405.563 447.386 405.204 447.69 405.138 447.658C405.215 447.571 405.313 447.494 405.41 447.429C405.672 447.255 405.944 447.103 406.237 446.994C407.238 446.635 408.315 446.635 409.316 446.994C410.306 447.342 411.144 448.038 411.688 448.941C411.851 449.213 411.982 449.496 412.08 449.801C412.113 449.888 412.134 449.975 412.145 450.073Z" fill="#0F2830"/>
<path d="M346.615 422.797C345.908 423.635 345.396 424.625 345.124 425.68C344.842 426.833 344.755 428.019 344.874 429.205C345.048 430.652 345.353 432.077 345.799 433.459C346.234 434.95 346.669 436.375 346.887 437.702C347.137 438.877 347.213 440.096 347.115 441.293C347.05 442.098 346.854 442.892 346.55 443.643C346.441 443.915 346.3 444.176 346.136 444.426C346.136 444.426 346.267 444.143 346.463 443.61C346.735 442.86 346.898 442.076 346.952 441.282C347.028 440.096 346.931 438.91 346.68 437.746C346.43 436.429 345.984 435.015 345.592 433.524C345.146 432.11 344.842 430.652 344.678 429.172C344.57 427.976 344.678 426.757 344.983 425.593C345.211 424.81 345.571 424.07 346.071 423.417C346.234 423.189 346.408 422.982 346.615 422.797Z" fill="#0F2830"/>
<path d="M415.877 421.469C415.877 421.546 415.877 421.633 415.877 421.709C415.877 421.916 415.823 422.133 415.79 422.362C415.692 423.167 415.638 423.972 415.627 424.777C415.627 425.974 415.703 427.181 415.888 428.367C416.116 429.814 416.486 431.229 416.976 432.611C417.509 433.981 418.162 435.298 418.934 436.538C419.576 437.55 420.305 438.507 421.11 439.4C421.644 440.009 422.22 440.575 422.829 441.108L423.33 441.543L423.493 441.717C422.59 441.075 421.752 440.346 420.991 439.541C420.164 438.66 419.413 437.702 418.76 436.691C417.966 435.428 417.302 434.101 416.758 432.719C416.258 431.327 415.899 429.891 415.67 428.433C415.496 427.236 415.42 426.017 415.464 424.81C415.475 423.689 415.616 422.568 415.877 421.469Z" fill="#0F2830"/>
<path d="M451.379 434.667C451.379 434.667 451.052 434.536 450.443 434.319C449.594 434.003 448.713 433.753 447.832 433.546C445.601 432.959 442.392 432.687 439.019 431.566C437.43 431.055 435.951 430.239 434.667 429.162C433.633 428.248 432.828 427.116 432.328 425.832C431.98 424.973 431.827 424.059 431.871 423.134C431.882 422.797 431.947 422.46 432.045 422.144C431.849 423.373 432.001 424.635 432.48 425.778C432.991 427.029 433.786 428.15 434.808 429.042C436.07 430.097 437.528 430.892 439.095 431.403C442.435 432.491 445.623 432.806 447.875 433.437C448.767 433.655 449.638 433.938 450.486 434.275C450.791 434.384 451.085 434.515 451.379 434.667Z" fill="#0F2830"/>
<path d="M462.4 447.647C462.4 447.647 462.15 447.244 461.693 446.657C460.496 445.101 458.81 443.98 456.916 443.48C456.198 443.284 455.73 443.229 455.73 443.197C455.73 443.164 455.85 443.197 456.068 443.197C456.372 443.219 456.666 443.262 456.96 443.327C457.928 443.545 458.864 443.937 459.691 444.492C460.539 445.046 461.279 445.743 461.867 446.57C462.041 446.82 462.193 447.07 462.324 447.342C462.324 447.527 462.4 447.636 462.4 447.647Z" fill="#0F2830"/>
<path d="M464.696 444.307C464.696 444.307 464.532 443.882 464.152 443.273C463.162 441.652 461.312 440.76 459.419 440.988C458.701 441.064 458.331 441.249 458.266 441.206C458.353 441.14 458.451 441.086 458.548 441.053C458.82 440.945 459.103 440.868 459.397 440.825C460.355 440.662 461.345 440.803 462.215 441.228C463.096 441.652 463.814 442.337 464.293 443.197C464.435 443.447 464.543 443.719 464.63 443.991C464.663 444.089 464.685 444.198 464.696 444.307Z" fill="#0F2830"/>
<path d="M461.551 428.596C460.92 428.465 460.289 428.389 459.647 428.356C458.091 428.324 456.568 428.792 455.295 429.684C454.588 430.141 453.99 430.75 453.533 431.457C453.185 432.045 452.967 432.708 452.902 433.394C452.869 434.036 452.902 434.678 452.989 435.309C452.771 434.689 452.684 434.036 452.738 433.383C452.782 432.665 453 431.98 453.359 431.359C453.816 430.62 454.436 429.978 455.165 429.499C456.47 428.585 458.037 428.128 459.625 428.193C460.104 428.215 460.572 428.291 461.029 428.422C461.214 428.454 461.388 428.509 461.551 428.596Z" fill="#0F2830"/>
<path d="M460.311 431.697C460.104 431.969 459.821 432.175 459.506 432.295C458.744 432.632 457.885 432.654 457.112 432.36C456.351 432.034 455.752 431.414 455.448 430.641C455.295 430.337 455.241 429.988 455.285 429.651C455.372 429.967 455.469 430.271 455.589 430.576C456.242 432.056 457.95 432.752 459.452 432.143C460.006 431.936 460.289 431.664 460.311 431.697Z" fill="#0F2830"/>
<path d="M459.517 434.373C459.234 434.612 458.897 434.787 458.538 434.884C457.678 435.156 456.753 435.178 455.883 434.939C455.012 434.689 454.24 434.199 453.642 433.524C453.391 433.252 453.196 432.926 453.065 432.578C453.065 432.578 453.304 432.937 453.761 433.416C454.36 434.025 455.11 434.482 455.937 434.721C456.775 434.95 457.645 434.95 458.483 434.721C459.136 434.558 459.495 434.34 459.517 434.373Z" fill="#0F2830"/>
<path d="M464.043 441.554C463.684 440.901 463.227 440.303 462.694 439.78C461.312 438.627 459.734 437.735 458.037 437.137C456.068 436.364 454.24 435.755 452.934 435.287L451.39 434.732C451.194 434.678 451.009 434.602 450.824 434.504C451.02 434.525 451.215 434.58 451.411 434.645L452.989 435.135C454.305 435.559 456.133 436.157 458.113 436.93C459.843 437.528 461.443 438.464 462.814 439.672C463.205 440.063 463.542 440.509 463.804 440.999C463.902 441.173 463.989 441.358 464.043 441.554Z" fill="#0F2830"/>
<path d="M448.495 425.092C447.385 424.548 446.341 423.885 445.373 423.123C442.859 421.187 440.781 418.739 439.291 415.942L439.498 415.866C439.954 417.618 440.781 419.25 441.913 420.653L442.294 421.11L441.771 420.817L441.151 420.458C437.169 418.14 434.036 414.593 432.23 410.35C431.675 409.077 431.261 407.761 430.989 406.401C430.815 405.432 430.772 404.899 430.772 404.899C430.772 404.899 430.772 405.03 430.859 405.28C430.946 405.53 430.957 405.911 431.076 406.368C431.381 407.706 431.816 409.012 432.371 410.274C434.21 414.452 437.322 417.944 441.26 420.251L441.88 420.61L441.739 420.784C440.586 419.348 439.748 417.694 439.291 415.91L439.051 415.018L439.487 415.834C440.955 418.608 442.99 421.056 445.449 423.004C446.145 423.558 446.874 424.081 447.625 424.57L448.245 424.94L448.495 425.092Z" fill="#0F2830"/>
<path d="M393.007 416.856C392.866 416.835 392.714 416.791 392.583 416.726C392.311 416.628 391.93 416.465 391.495 416.247C390.277 415.67 389.134 414.974 388.068 414.158C387.002 413.342 386.022 412.417 385.152 411.405C384.88 411.101 384.63 410.785 384.401 410.448C384.227 410.22 384.14 410.089 384.162 410.078C384.184 410.067 384.575 410.557 385.25 411.297C386.153 412.276 387.132 413.179 388.188 413.984C389.243 414.789 390.364 415.496 391.539 416.106C392.442 416.573 393.018 416.824 393.007 416.856Z" fill="#0F2830"/>
<path d="M393.007 415.377C392.082 414.746 391.212 414.06 390.396 413.299C389.526 412.602 388.699 411.852 387.926 411.046C388.84 411.677 389.721 412.374 390.537 413.124C391.408 413.821 392.235 414.572 393.007 415.377Z" fill="#0F2830"/>
<path d="M395.096 414.811C394.433 414.561 393.813 414.191 393.279 413.723C392.703 413.299 392.213 412.765 391.822 412.167C391.822 412.167 392.518 412.809 393.432 413.549C394.346 414.289 395.129 414.756 395.096 414.811Z" fill="#0F2830"/>
<g opacity="0.3">
<path d="M394.367 392.768C397.631 392.703 395.368 398.208 393.987 400.797C392.572 403.409 390.026 405.204 387.1 405.672C384.293 406.085 381.398 405.215 378.602 405.726C372.792 406.814 369.55 413.266 364.154 415.67C360.367 417.292 356.005 416.78 352.708 414.31C349.509 411.862 348.704 405.345 349.324 401.374C349.324 401.472 360.204 393.497 394.367 392.768Z" fill="white"/>
</g>
<g opacity="0.3">
<path d="M416.41 427.66C417.803 426.572 420.001 426.833 421.774 427.149C423.537 427.53 425.179 428.302 426.605 429.412C428.117 430.326 429.194 431.805 429.597 433.524C429.858 435.526 428.509 437.365 427.29 438.964C426.811 439.639 426.235 440.237 425.582 440.738C424.918 441.249 424.07 441.445 423.243 441.293C422.394 440.977 421.665 440.401 421.176 439.628C419.5 437.463 418.064 435.124 416.911 432.643C416.171 431.076 415.572 429.183 416.41 427.671" fill="white"/>
</g>
<path d="M392.768 446.189C392.768 446.189 392.768 446.047 392.822 445.786C392.877 445.525 392.953 445.155 393.007 444.698C393.214 443.295 393.268 441.88 393.16 440.466C392.975 438.377 392.431 436.342 391.56 434.438C390.494 432.099 389.145 429.901 387.524 427.91C385.783 426.028 383.672 424.516 381.333 423.46C379.429 422.59 377.449 421.883 375.414 421.361C373.674 420.904 372.248 420.632 371.258 420.447L370.17 420.251C370.04 420.229 369.898 420.196 369.768 420.164C371.704 420.381 373.608 420.751 375.49 421.252C377.536 421.763 379.538 422.459 381.464 423.319C383.835 424.374 385.968 425.908 387.73 427.812C389.362 429.825 390.733 432.034 391.8 434.395C392.67 436.321 393.192 438.388 393.366 440.499C393.453 441.924 393.377 443.349 393.138 444.753C392.92 445.656 392.768 446.189 392.768 446.189Z" fill="#0F2830"/>
<path d="M448.158 401.842C448.158 401.907 447.658 402.016 446.853 401.842C445.797 401.646 444.818 401.156 444.046 400.406C443.284 399.655 442.751 398.708 442.511 397.664C442.348 396.87 442.424 396.358 442.511 396.358C442.598 396.358 442.653 396.837 442.903 397.555C443.23 398.48 443.752 399.318 444.448 400.003C445.155 400.678 446.015 401.178 446.95 401.472C447.669 401.711 448.158 401.755 448.158 401.842Z" fill="#0F2830"/>
<path d="M452.031 412.646C451.879 412.646 451.727 412.504 451.694 412.287C451.64 412.102 451.727 411.917 451.901 411.841C452.064 411.841 452.216 411.971 452.249 412.2C452.282 412.428 452.195 412.613 452.031 412.646Z" fill="#0F2830"/>
<path d="M453.631 412.145C453.468 412.221 453.272 412.156 453.185 411.993C453.065 411.862 453.065 411.656 453.185 411.525C453.348 411.449 453.544 411.514 453.631 411.677C453.761 411.808 453.761 412.015 453.631 412.145Z" fill="#0F2830"/>
<path d="M453.609 413.266C453.511 413.375 453.348 413.375 453.239 413.277C453.239 413.277 453.239 413.277 453.228 413.266C453.119 413.157 453.119 412.994 453.228 412.885C453.337 412.776 453.5 412.776 453.609 412.885C453.718 412.983 453.718 413.146 453.62 413.255C453.62 413.255 453.62 413.255 453.609 413.266Z" fill="#0F2830"/>
<path d="M446.852 408.316C446.765 408.446 446.526 408.435 446.308 408.316C446.091 408.196 445.993 407.946 446.08 407.815C446.167 407.684 446.417 407.706 446.624 407.815C446.831 407.924 446.939 408.185 446.852 408.316Z" fill="#0F2830"/>
<path d="M447.56 406.705C447.407 406.705 447.266 406.564 447.255 406.368C447.211 406.194 447.32 406.02 447.505 405.976C447.668 405.976 447.799 406.118 447.821 406.324C447.842 406.499 447.734 406.662 447.56 406.705Z" fill="#0F2830"/>
<path d="M447.875 408.827C447.712 408.827 447.603 408.707 447.614 408.598C447.625 408.49 447.766 408.435 447.919 408.457C448.071 408.479 448.191 408.577 448.18 408.675C448.169 408.773 448.027 408.838 447.875 408.827Z" fill="#0F2830"/>
<path d="M476.033 428.095C476.033 428.095 471.409 425.19 465.784 421.491C460.159 417.792 455.633 414.735 455.665 414.68C455.698 414.626 460.289 417.596 465.914 421.295C471.539 424.995 476.065 428.052 476.033 428.095Z" fill="#0F2830"/>
<path d="M483.072 424.07H482.789C482.604 424.07 482.332 423.994 481.995 423.917C481.309 423.787 480.319 423.548 479.112 423.199C476 422.231 472.943 421.1 469.951 419.805L460.909 416.084L458.179 414.931L457.439 414.604L457.188 414.484C457.286 414.495 457.373 414.528 457.46 414.572L458.211 414.854L460.975 415.942L470.038 419.609C473.563 421.056 476.772 422.329 479.166 423.058C480.352 423.428 481.342 423.689 482.017 423.841L482.8 424.037L483.072 424.07Z" fill="#0F2830"/>
<g opacity="0.3">
<path d="M446.08 386.675C447.451 386.49 448.746 385.892 449.768 384.956C450.693 383.999 451.302 382.791 451.531 381.485C451.759 380.191 451.846 378.874 451.803 377.558L448.104 381.072C447.309 381.823 446.526 382.573 445.808 383.379C445.416 383.781 445.112 384.271 444.916 384.793C444.72 385.326 444.829 385.924 445.199 386.36C445.59 386.773 446.232 386.784 446.646 386.392C446.657 386.381 446.667 386.371 446.678 386.36" fill="black"/>
</g>
<g opacity="0.3">
<path d="M470.364 408.794C470.495 404.04 474.314 400.221 479.068 400.09C477.295 403.768 472.867 405.345 470.364 408.566" fill="black"/>
</g>
<path d="M382.595 285.197L381.191 285.926C380.419 304.183 379.636 322.44 378.863 340.685C378.439 350.749 378.047 361.009 381.79 370.877L442.032 386.925C444.426 382.835 445.884 378.265 446.276 373.543C448.212 353.328 448.822 333.015 448.103 312.724C447.929 306.37 448.495 291.638 442.663 287.7C432.795 281.074 423.667 283.348 413.69 281.107C403.713 278.865 393.464 284.251 383.226 284.142" fill="#0F2830"/>
<path d="M353.6 349.585L335.844 321.471C335.104 321.471 283.467 331.829 283.467 331.829C283.467 331.829 247.498 334.941 246.617 335.528C245.735 336.116 234.779 356.396 234.779 356.396C242.025 357.582 244.985 348.258 244.985 348.258L252.242 344.113L261.12 345.201C258.585 346.354 256.441 347.507 255.789 348.312C253.863 350.673 252.829 355.265 254.015 355.417C255.201 355.569 257.355 352.153 262.937 351.413C268.518 350.673 282.673 347.714 282.673 347.714L287.754 348.312L353.6 349.585Z" fill="#B78876"/>
<path d="M269.987 341.523C268.344 342.339 266.669 343.057 264.95 343.699C263.307 344.515 261.62 345.244 259.901 345.875C261.37 344.755 263.002 343.852 264.732 343.21C266.386 342.383 268.159 341.817 269.987 341.523Z" fill="#A36957"/>
<path d="M309.144 178.65C310.885 198.614 312.408 219.874 302.975 237.565C305.075 237.13 306.947 235.911 308.187 234.159C307.414 240.785 306.642 247.498 307.73 254.07C308.818 260.641 312.082 267.126 317.663 270.727C317.74 269.9 317.827 269.073 317.903 268.257C320.079 282.336 332.46 294.195 346.626 295.74C352.74 296.415 359.769 294.837 363.011 289.615C365.481 285.633 365.187 280.595 364.774 275.939L357.158 184.993C356.451 176.528 355.58 167.639 350.739 160.676C343.112 149.643 327.988 146.869 316.956 154.496C311.571 158.217 307.915 163.962 306.816 170.413" fill="#0F2830"/>
<path d="M349.868 237.108C349.868 237.108 335.147 245.638 330.654 252.71C326.16 259.782 327.836 279.616 327.836 279.616C325.997 286.536 324.964 293.651 324.746 300.81C324.746 312.267 333.613 320.666 335.876 326.813C338.139 332.961 336.584 361.042 336.584 361.042L420.36 363.087V305.358L431.501 306.37C431.501 306.37 435.124 250.012 418.281 242.885C401.439 235.759 381.181 228.687 381.181 228.687L349.868 237.108Z" fill="#CD5B45"/>
<path d="M431.936 289.832C431.751 290.17 431.533 290.485 431.272 290.768C430.554 291.606 429.684 292.302 428.715 292.824C427.17 293.651 425.473 294.141 423.732 294.26C421.426 294.402 419.108 294.054 416.932 293.26C414.321 292.291 411.808 291.083 409.414 289.669C406.705 288.037 403.844 286.677 400.873 285.6C397.555 284.545 394.008 284.425 390.624 285.252C387.001 286.242 383.487 287.569 380.114 289.212C376.709 290.877 373.14 292.204 369.474 293.162C365.992 293.988 362.336 293.814 358.953 292.65C355.972 291.497 353.132 290.006 350.488 288.2C348.203 286.644 345.832 285.23 343.373 283.968C341.327 282.945 339.119 282.303 336.845 282.053C335.147 281.868 333.428 282.01 331.775 282.456C330.36 282.858 329.044 283.533 327.89 284.436C328.152 284.153 328.445 283.903 328.761 283.685C329.653 283.043 330.654 282.564 331.709 282.249C333.385 281.748 335.136 281.574 336.877 281.738C339.173 281.966 341.414 282.608 343.492 283.609C345.984 284.838 348.399 286.22 350.706 287.765C353.328 289.528 356.146 290.986 359.094 292.117C361.542 292.933 364.143 293.238 366.71 292.998C367.591 292.9 368.473 292.748 369.354 292.574C372.988 291.617 376.513 290.3 379.886 288.646C383.291 286.993 386.849 285.654 390.505 284.675C393.976 283.827 397.62 283.957 401.026 285.056C404.029 286.155 406.912 287.548 409.643 289.212C412.004 290.627 414.484 291.845 417.063 292.835C419.184 293.64 421.448 294.01 423.711 293.923C425.43 293.858 427.127 293.434 428.672 292.672C429.64 292.182 430.511 291.53 431.239 290.735C431.718 290.148 431.936 289.811 431.936 289.832Z" fill="#FAFAFA"/>
<path d="M429.259 268.834C429.194 268.91 429.129 268.975 429.053 269.03C428.911 269.139 428.715 269.323 428.411 269.53C427.54 270.118 426.583 270.564 425.571 270.847C422.949 271.652 418.771 271.521 414.256 269.606C412.004 268.66 409.675 267.354 407.151 266.049C404.518 264.569 401.679 263.514 398.73 262.904C395.444 262.382 392.082 262.469 388.829 263.155C385.315 263.873 381.866 264.884 378.515 266.179C375.044 267.452 371.672 268.758 368.299 269.737C365.067 270.738 361.716 271.293 358.333 271.369C352.588 271.293 346.952 269.846 341.882 267.147C338.455 265.396 335.169 263.35 332.09 261.044C331.002 260.217 330.175 259.575 329.62 259.118L329 258.607C328.859 258.487 328.783 258.422 328.794 258.411C328.804 258.4 328.881 258.411 329.033 258.563L329.686 259.031L332.221 260.859C335.321 263.089 338.596 265.069 342.013 266.788C347.039 269.4 352.61 270.781 358.278 270.847C361.597 270.749 364.893 270.194 368.07 269.204C371.4 268.235 374.772 266.919 378.243 265.646C381.616 264.351 385.097 263.339 388.644 262.611C391.963 261.914 395.39 261.838 398.741 262.393C401.744 263.035 404.627 264.134 407.293 265.657C409.817 266.984 412.123 268.301 414.343 269.258C418.76 271.195 422.851 271.38 425.43 270.662C426.811 270.303 428.106 269.683 429.259 268.834Z" fill="#FAFAFA"/>
<path d="M391.68 323.386C391.495 323.506 391.299 323.604 391.092 323.691C390.712 323.865 390.135 324.126 389.384 324.442C387.273 325.355 385.087 326.074 382.856 326.618C379.505 327.521 375.969 327.412 372.683 326.302C368.984 325.018 365.568 322.385 361.89 319.981C358.474 317.642 354.59 316.075 350.51 315.4C348.726 315.139 346.93 315.03 345.124 315.074C343.558 315.128 341.991 315.302 340.457 315.607C338.216 316.042 336.04 316.76 333.983 317.729C332.514 318.403 331.753 318.882 331.72 318.817C331.883 318.664 332.057 318.534 332.253 318.436C332.776 318.099 333.32 317.783 333.885 317.511C335.942 316.445 338.139 315.661 340.413 315.194C341.98 314.856 343.558 314.65 345.157 314.573C346.974 314.519 348.791 314.617 350.597 314.867C354.764 315.52 358.735 317.098 362.217 319.48C365.916 321.917 369.278 324.518 372.868 325.791C376.067 326.879 379.505 327.02 382.78 326.204C385 325.682 387.186 325.007 389.308 324.17L391.049 323.517C391.256 323.441 391.462 323.397 391.68 323.386Z" fill="#FAFAFA"/>
<path d="M391.495 344.004C391.495 344.004 390.723 343.852 389.319 343.645C387.339 343.373 385.326 343.318 383.335 343.492C380.387 343.764 377.482 344.319 374.631 345.124C371.367 346.006 367.885 347.192 364.121 348.225C360.585 349.259 356.929 349.825 353.241 349.89C350.216 349.89 347.224 349.292 344.428 348.127C342.546 347.333 340.849 346.191 339.402 344.755C339.01 344.363 338.651 343.939 338.314 343.492C338.194 343.34 338.085 343.188 337.998 343.014C338.052 343.014 338.509 343.623 339.532 344.591C341.001 345.951 342.709 347.018 344.57 347.757C347.322 348.845 350.26 349.389 353.219 349.368C356.853 349.27 360.454 348.693 363.947 347.67C367.69 346.659 371.204 345.494 374.479 344.624C377.373 343.83 380.332 343.318 383.324 343.09C385.348 342.959 387.382 343.068 389.373 343.427C389.917 343.525 390.451 343.656 390.973 343.819C391.158 343.852 391.332 343.917 391.495 344.004Z" fill="#FAFAFA"/>
<path d="M391.386 318.425C391.234 318.425 391.103 310.537 391.103 300.81C391.103 291.084 391.234 283.196 391.386 283.196C391.538 283.196 391.68 291.084 391.68 300.81C391.68 310.537 391.549 318.425 391.386 318.425Z" fill="#0F2830"/>
<path d="M383.476 329.087C383.335 329.142 383.183 329.164 383.03 329.153C382.726 329.153 382.29 329.218 381.714 329.207C380.103 329.207 378.493 329.066 376.916 328.739C366.09 326.705 357.68 318.12 355.874 307.251C355.591 305.663 355.46 304.053 355.504 302.442C355.504 301.866 355.569 301.43 355.591 301.137C355.591 300.984 355.613 300.832 355.667 300.68C355.689 302.867 355.896 305.053 356.265 307.208C358.267 317.805 366.438 326.161 376.992 328.38C379.135 328.794 381.3 329.022 383.476 329.087Z" fill="#0F2830"/>
<g opacity="0.3">
<path d="M339.249 355.841C351.424 348.595 367.744 349.825 378.7 340.849C383.868 336.616 387.219 330.524 389.232 324.159C391.245 317.794 391.995 311.103 392.746 304.499L394.835 341.404C394.977 343.917 395.031 346.713 393.388 348.639C392.006 350.26 389.765 350.815 387.687 351.272L360.987 357.212C353.763 358.812 346.049 360.389 339.14 357.734" fill="black"/>
</g>
<g opacity="0.2">
<path d="M374.076 264.123C371.78 266.952 369.452 269.846 368.201 273.273C366.95 276.7 366.961 280.791 369.147 283.707C371.53 286.884 376.013 287.928 379.908 287.156C383.803 286.383 387.219 284.077 390.309 281.596C391.854 280.356 393.573 278.996 395.521 279.039C396.674 279.203 397.816 279.453 398.937 279.801C402.147 280.367 405.323 278.278 407.151 275.59C408.979 272.903 409.795 269.683 410.829 266.593C411.862 263.503 413.277 260.38 415.888 258.433C418.314 256.627 421.698 255.898 423.199 253.275C425.092 250.011 422.623 245.594 419.152 244.06C415.681 242.526 411.71 243.048 407.967 243.581" fill="black"/>
</g>
<g opacity="0.2">
<path d="M379.864 328.663C380.071 328.979 379.81 329.631 378.939 330.393C377.655 331.416 376.132 332.09 374.511 332.34C372.085 332.754 369.604 332.525 367.287 331.699C364.491 330.665 361.999 328.968 360.008 326.759C358.104 324.659 356.581 322.244 355.493 319.622C354.644 317.598 354.013 315.498 353.6 313.344C352.958 309.699 353.088 307.403 353.817 307.186C354.546 306.968 355.841 308.927 357.408 312.071C358.975 315.215 360.944 319.459 364.164 322.951C365.611 324.561 367.33 325.899 369.256 326.9C370.834 327.684 372.531 328.184 374.283 328.38C377.34 328.696 379.407 327.967 379.864 328.663Z" fill="black"/>
</g>
<path d="M431.544 306.37C431.544 306.522 422.525 305.837 411.438 304.825C400.351 303.813 391.375 302.877 391.386 302.714C391.397 302.551 400.406 303.247 411.492 304.259C422.579 305.271 431.555 306.207 431.544 306.37Z" fill="#0F2830"/>
<path d="M365.046 148.751C369.996 153.103 373.826 156.52 379.07 159.827C384.314 163.135 389.743 167.084 391.691 172.981C393.105 177.257 392.583 182.338 395.423 185.841C397.849 188.833 401.951 189.715 405.356 191.521C411.427 194.861 415.202 201.226 415.224 208.156C415.224 212.508 413.712 217.121 415.757 220.94C417.542 224.269 421.535 225.901 423.515 229.122C425.495 232.342 425.125 236.085 424.505 239.632C423.558 245.072 421.545 250.925 416.693 253.537C413.277 255.19 409.316 255.288 405.813 253.83C402.364 252.362 399.263 250.186 396.728 247.422C391.68 242.276 387.741 236.15 385.152 229.416C382.062 221.386 381.007 212.737 379.516 204.261C376.774 188.714 372.531 173.471 366.841 158.75C365.448 155.16 362.968 151.983 365.067 148.751" fill="#0F2830"/>
<path d="M406.031 216.871C406.031 216.871 406.324 216.675 406.89 216.316C407.706 215.794 408.5 215.228 409.262 214.619C410.459 213.672 411.525 212.573 412.45 211.355C413.668 209.745 414.463 207.841 414.746 205.839C415.039 203.412 414.43 200.954 413.016 198.952C412.243 197.853 411.166 196.993 409.926 196.471C408.566 196.003 407.13 195.764 405.693 195.764C404.105 195.764 402.538 195.372 401.146 194.6C399.753 193.653 398.741 192.239 398.317 190.607C397.849 188.964 397.697 187.256 397.871 185.558C398.034 183.85 398.371 182.164 398.611 180.456C398.872 178.791 398.872 177.094 398.611 175.429C398.273 173.83 397.61 172.328 396.652 171.012C394.77 168.531 392.333 166.507 389.547 165.115C386.925 163.69 384.282 162.58 381.931 161.318C376.524 158.5 371.508 154.975 367.037 150.84C366.101 149.981 365.405 149.274 364.948 148.795L364.426 148.24C364.306 148.109 364.251 148.044 364.262 148.033L364.458 148.196L365.024 148.719C365.514 149.176 366.232 149.807 367.2 150.677C369.876 153.06 372.738 155.247 375.741 157.205C377.808 158.565 379.951 159.805 382.16 160.926C384.521 162.156 387.165 163.244 389.83 164.68C392.692 166.105 395.194 168.172 397.142 170.707C398.143 172.089 398.85 173.667 399.198 175.342C399.481 177.072 399.481 178.824 399.198 180.554C398.97 182.284 398.621 183.959 398.469 185.624C398.295 187.245 398.436 188.888 398.883 190.465C399.263 191.967 400.188 193.283 401.472 194.164C402.788 194.883 404.268 195.263 405.77 195.252C407.249 195.274 408.718 195.535 410.122 196.025C411.438 196.591 412.57 197.505 413.386 198.68C414.843 200.79 415.464 203.358 415.137 205.904C414.811 207.971 413.973 209.908 412.689 211.562C411.754 212.791 410.655 213.89 409.425 214.826C408.653 215.424 407.837 215.968 406.977 216.447C406.683 216.621 406.455 216.73 406.303 216.806C406.216 216.849 406.129 216.871 406.031 216.871Z" fill="#0F2830"/>
<g opacity="0.4">
<path d="M322.755 200.649L321.058 197.842C321.83 197.374 322.842 197.624 323.31 198.397C323.778 199.169 323.528 200.181 322.755 200.649Z" fill="black"/>
</g>
<path d="M332.058 155.584C318.501 160.034 310.831 174.363 314.65 188.115C317.609 198.778 321.004 210.31 323.593 216.991C329.631 232.527 342.404 231.907 342.404 231.907C342.404 231.907 344.798 241.939 346.898 251.491C348.889 260.609 358.452 266.44 368.266 264.547C377.971 262.665 384.303 253.885 382.465 244.822L366.449 174.972C363.142 160.589 348.791 151.613 334.419 154.931C333.624 155.116 332.841 155.334 332.058 155.584Z" fill="#B78876"/>
<path d="M320.851 193.468C321.112 194.578 322.178 195.296 323.299 195.122C324.409 194.97 325.181 193.947 325.018 192.837C325.018 192.826 325.018 192.815 325.018 192.804C324.79 191.684 323.713 190.955 322.581 191.151C321.482 191.292 320.699 192.304 320.84 193.403C320.84 193.425 320.84 193.446 320.84 193.468H320.851Z" fill="#0F2830"/>
<path d="M319.437 190.955C319.752 191.172 321.069 189.682 323.288 189.203C325.508 188.724 327.379 189.486 327.553 189.203C327.651 189.062 327.281 188.637 326.465 188.268C325.355 187.811 324.137 187.702 322.973 187.963C321.819 188.213 320.775 188.822 319.981 189.704C319.415 190.324 319.284 190.868 319.437 190.955Z" fill="#0F2830"/>
<path d="M343.59 189.41C343.819 190.531 344.896 191.26 346.027 191.064C347.126 190.922 347.91 189.91 347.768 188.812C347.768 188.79 347.768 188.768 347.768 188.746C347.507 187.636 346.441 186.918 345.32 187.092C344.221 187.245 343.449 188.257 343.59 189.356C343.59 189.377 343.59 189.388 343.59 189.41Z" fill="#0F2830"/>
<path d="M342.785 186.755C343.101 186.973 344.417 185.471 346.637 185.003C348.856 184.536 350.728 185.286 350.902 185.003C351 184.862 350.63 184.427 349.814 184.068C348.715 183.611 347.485 183.502 346.321 183.763C345.168 184.003 344.113 184.612 343.329 185.493C342.72 186.124 342.633 186.668 342.785 186.755Z" fill="#0F2830"/>
<path d="M338.281 204.968C337.03 204.859 335.778 204.903 334.538 205.099C333.961 205.164 333.396 205.164 333.211 204.794C333.037 204.218 333.037 203.608 333.211 203.032C333.45 201.552 333.689 199.985 333.951 198.353C334.952 191.706 335.55 186.287 335.278 186.244C335.006 186.2 333.983 191.564 332.982 198.212C332.754 199.844 332.525 201.411 332.319 202.901C332.101 203.663 332.166 204.468 332.503 205.186C332.754 205.545 333.156 205.784 333.591 205.817C333.929 205.839 334.255 205.817 334.582 205.741C335.844 205.643 337.084 205.393 338.281 204.968Z" fill="#0F2830"/>
<path d="M342.426 231.581C350.031 230.058 357.06 226.456 362.739 221.169C362.739 221.169 359.9 233.354 343.471 235.313L342.426 231.581Z" fill="#A36957"/>
<path d="M348.301 178.671C348.138 179.128 346.376 178.911 344.265 179.03C342.154 179.15 340.413 179.52 340.217 179.03C340.022 178.541 341.697 177.409 344.178 177.29C346.658 177.17 348.464 178.247 348.301 178.671Z" fill="#0F2830"/>
<path d="M325.562 180.771C325.562 181.25 323.767 181.685 321.634 182.327C319.502 182.969 317.728 183.546 317.478 183.132C317.228 182.719 318.773 181.38 321.156 180.695C323.538 180.01 325.562 180.314 325.562 180.771Z" fill="#0F2830"/>
<path d="M408.598 238.914C408.598 238.914 399.894 229.318 400.558 218.307C401.222 207.297 397.827 200.159 391.669 197.635C387.317 195.862 385.631 191.412 384.967 187.702C383.933 181.468 382.105 175.396 379.527 169.63C375.697 161.361 370.594 152.842 363.49 147.489C354.253 140.526 339.75 135.869 330.85 143.224C326.704 146.641 324.267 147.185 320.568 153.016C320.568 153.016 316.118 154.572 313.823 155.617C305.924 159.207 303.03 169.521 303.867 176.289C305.804 191.858 315.237 193.827 318.925 203.761C318.925 203.761 314.497 182.142 314.845 176.191C315.27 171.795 317.228 167.693 320.372 164.593C326.639 163.505 329.958 166.431 333.559 171.686C337.16 176.941 339.51 181.239 345.418 183.654C350.978 185.917 355.928 190.944 363.457 185.613C365.862 188.311 367.417 191.651 367.951 195.22C368.484 200.66 363.163 203.652 367.069 211.997C370.975 220.342 378.276 225.999 379.037 229.318" fill="#0F2830"/>
<path d="M342.372 209.451C342.905 208.406 343.949 207.721 345.113 207.623C345.951 207.536 346.789 207.786 347.431 208.33C348.073 208.852 348.301 209.734 348.018 210.506C347.54 211.3 346.637 211.725 345.723 211.594C344.787 211.453 343.884 211.137 343.079 210.648C342.84 210.55 342.622 210.397 342.437 210.212C342.263 210.028 342.208 209.756 342.306 209.516" fill="#CD5B45"/>
<path d="M346.397 205.349C346.093 205.349 346.484 207.395 345.059 209.168C343.634 210.941 341.436 211.137 341.48 211.42C341.523 211.703 342.035 211.714 342.948 211.562C344.123 211.344 345.19 210.713 345.951 209.788C346.68 208.896 347.039 207.754 346.941 206.611C346.854 205.763 346.528 205.306 346.397 205.349Z" fill="#0F2830"/>
<path d="M367.015 211.431C371.334 215.805 372.999 222.159 371.367 228.088C370.279 231.907 367.831 235.302 367.276 239.229C366.591 244.017 368.799 248.673 370.638 253.145C372.477 257.617 374.022 262.741 372.063 267.158C371.258 269.008 369.887 270.575 369.049 272.413C368.212 274.252 368.038 276.657 369.441 278.104C370.529 279.018 371.9 279.529 373.314 279.529C384.053 280.28 394.171 274.415 398.85 264.721L401.026 269.454C410.785 254.723 408.957 235.171 396.619 222.507" fill="#0F2830"/>
<path d="M360.585 188.899C360.345 187.811 362.532 185.145 363.588 184.862C366.025 184.231 370.268 184.285 372.205 190.977C374.979 200.54 365.1 200.268 365.002 199.996C364.904 199.724 361.423 192.663 360.585 188.899Z" fill="#B78876"/>
<path d="M366.264 195.699C366.264 195.699 366.46 195.775 366.786 195.818C367.233 195.873 367.679 195.753 368.038 195.481C368.941 194.817 369.322 192.968 368.875 191.238C368.669 190.411 368.288 189.638 367.744 188.986C367.385 188.431 366.787 188.083 366.123 188.061C365.699 188.083 365.35 188.387 365.274 188.801C365.22 189.116 365.339 189.279 365.274 189.312C365.209 189.345 365.024 189.214 364.98 188.801C364.97 188.55 365.035 188.3 365.187 188.093C365.394 187.821 365.698 187.637 366.036 187.582C366.884 187.506 367.711 187.876 368.212 188.561C368.854 189.268 369.322 190.128 369.55 191.053C370.051 193 369.55 195.089 368.321 195.894C367.842 196.199 367.254 196.264 366.721 196.079C366.351 195.927 366.232 195.731 366.264 195.699Z" fill="#A36957"/>
<path d="M412.047 216.251C411.927 216.251 412.047 215.794 412.047 215.021C412.08 213.901 411.873 212.791 411.438 211.757C410.752 210.158 409.664 208.755 408.294 207.677C406.368 206.296 404.246 205.24 401.983 204.533C399.056 203.652 396.228 202.477 393.54 201.041C391.963 200.127 390.581 198.897 389.493 197.439C388.405 195.894 387.567 194.186 387.001 192.391C386.392 190.639 385.913 188.866 385.228 187.212C384.64 185.591 383.683 184.133 382.432 182.958C379.897 180.706 375.904 180.216 371.954 180.521C368.005 180.826 363.86 181.827 359.627 181.489C357.528 181.326 355.482 180.771 353.589 179.846C351.837 178.976 350.205 177.877 348.736 176.582C346.191 174.2 343.84 171.61 341.719 168.836C339.945 166.529 337.943 164.419 335.735 162.525C332.656 159.74 328.532 158.402 324.398 158.848C323.277 159 322.2 159.338 321.199 159.86C320.492 160.208 320.111 160.426 320.057 160.349C320.002 160.273 320.242 159.914 320.884 159.381C321.841 158.609 322.951 158.054 324.148 157.76C326.052 157.303 328.043 157.27 329.958 157.673C332.503 158.217 334.897 159.327 336.943 160.937C339.347 162.819 341.534 164.952 343.471 167.313C345.592 169.913 347.899 172.339 350.39 174.591C352.98 176.974 356.287 178.443 359.801 178.758C363.457 179.03 367.417 178.106 371.693 177.736C373.869 177.54 376.067 177.638 378.221 178.051C380.441 178.454 382.519 179.444 384.227 180.913C385.783 182.392 386.98 184.22 387.698 186.244C388.416 188.115 388.884 189.921 389.428 191.586C389.885 193.163 390.57 194.654 391.473 196.025C392.343 197.254 393.453 198.288 394.737 199.082C397.261 200.529 399.916 201.737 402.658 202.694C405.062 203.576 407.293 204.86 409.262 206.502C410.752 207.819 411.851 209.527 412.439 211.431C412.809 212.628 412.863 213.901 412.569 215.119C412.352 215.924 412.112 216.283 412.047 216.251Z" fill="#014751"/>
<path d="M355.047 144.28C353.012 142.343 351.859 139.667 351.837 136.86C351.859 134.042 353.284 131.409 355.656 129.875C357.277 128.928 359.171 128.547 361.031 128.787C366.406 129.352 370.312 134.172 369.735 139.558C369.169 144.932 364.349 148.838 358.964 148.262C356.57 148.012 354.362 146.891 352.74 145.107" fill="#0F2830"/>
<path d="M364.556 146.934C363.903 147.108 363.229 147.152 362.554 147.065C360.922 146.956 359.323 146.543 357.843 145.846C356.363 145.15 355.036 144.182 353.915 142.996C353.415 142.539 353.023 141.984 352.751 141.364C355.776 144.726 360.03 146.739 364.556 146.934Z" fill="#CD5B45"/>
<path d="M313.986 197.907C313.975 197.331 313.997 196.743 314.062 196.166C314.029 194.589 313.812 193.011 313.398 191.488C312.713 189.236 311.875 187.027 310.874 184.895C309.623 182.262 308.633 179.509 307.904 176.691C307.567 175.201 307.436 173.667 307.512 172.143C307.61 170.718 307.947 169.315 308.524 168.009C309.482 165.789 311.005 163.864 312.93 162.406C314.236 161.416 315.705 160.676 317.282 160.23C317.707 160.11 318.131 160.012 318.566 159.969C318.871 159.925 319.023 159.925 319.023 159.969C319.023 160.034 318.414 160.11 317.348 160.469C313.605 161.753 310.58 164.571 309.046 168.216C308.502 169.478 308.187 170.816 308.111 172.187C308.045 173.645 308.176 175.114 308.502 176.539C309.22 179.324 310.2 182.044 311.418 184.655C312.408 186.82 313.213 189.051 313.834 191.347C314.225 192.913 314.388 194.524 314.334 196.134C314.28 196.7 314.193 197.146 314.149 197.439C314.106 197.733 314.008 197.918 313.986 197.907Z" fill="#014751"/>
<path d="M324.028 275.623C323.8 275.514 323.593 275.384 323.386 275.242C322.777 274.861 322.2 274.448 321.656 273.991C319.654 272.294 317.968 270.259 316.673 267.985C314.758 264.591 313.496 260.87 312.952 257.007C312.354 252.307 312.408 247.542 313.126 242.863C313.812 237.859 314.835 233.18 315.64 228.904C316.401 225.129 316.945 221.321 317.261 217.48C317.457 214.902 317.457 212.301 317.261 209.723C317.109 207.884 316.924 206.883 316.989 206.872C317.065 207.112 317.119 207.351 317.152 207.601C317.261 208.069 317.359 208.776 317.478 209.701C317.761 212.291 317.827 214.913 317.652 217.513C317.38 221.364 316.88 225.205 316.14 229.002C315.357 233.289 314.356 237.967 313.681 242.94C312.963 247.585 312.887 252.307 313.453 256.975C313.964 260.794 315.172 264.482 317.011 267.855C318.262 270.118 319.872 272.163 321.798 273.904C323.136 275.036 324.061 275.558 324.028 275.623Z" fill="#014751"/>
<path d="M372.542 273.349C372.542 273.349 372.542 273.273 372.738 273.153L373.358 272.631C373.913 272.174 374.718 271.543 375.73 270.607C378.602 268.105 381.192 265.276 383.433 262.197C386.795 257.649 388.862 252.275 389.406 246.639C389.711 243.331 389.308 239.991 388.231 236.847C387.143 233.583 384.913 230.689 383.085 227.457C382.138 225.869 381.431 224.139 380.985 222.344C380.604 220.581 380.463 218.786 380.561 216.991C380.702 213.476 381.333 210.169 381.398 206.992C381.496 203.989 381.159 200.975 380.397 198.07C379.723 195.535 378.591 193.142 377.057 191.02C374.827 187.93 371.628 185.656 367.962 184.579C366.612 184.231 365.22 184.046 363.827 184.013H364.915C365.96 184.035 367.004 184.177 368.016 184.427C371.77 185.45 375.077 187.713 377.384 190.846C378.972 193 380.147 195.427 380.854 198.005C381.659 200.954 382.029 204.011 381.942 207.068C381.942 210.332 381.268 213.596 381.137 217.078C381.039 218.819 381.181 220.57 381.551 222.278C381.986 224.03 382.671 225.706 383.596 227.251C385.391 230.427 387.654 233.354 388.775 236.727C389.874 239.948 390.276 243.353 389.95 246.737C389.384 252.46 387.241 257.91 383.77 262.491C381.485 265.57 378.842 268.377 375.893 270.836C374.805 271.706 374.033 272.348 373.456 272.772L372.792 273.251C372.716 273.295 372.629 273.327 372.542 273.349Z" fill="#014751"/>
<path d="M372.694 197.146C372.694 197.146 373.043 197.32 373.532 197.798C374.25 198.484 374.751 199.343 375.001 200.301C375.316 201.78 374.903 203.315 373.913 204.446C372.738 205.893 370.921 206.633 369.071 206.426C367.233 206.143 365.677 204.903 365.002 203.162C364.719 202.411 364.643 201.595 364.795 200.812C364.926 200.138 365.209 199.485 365.611 198.93C366.177 198.114 367.004 197.505 367.951 197.211C368.299 197.069 368.669 197.037 369.039 197.091C369.039 197.146 368.669 197.178 368.059 197.418C367.2 197.777 366.471 198.386 365.971 199.158C365.198 200.279 365.035 201.704 365.524 202.977C366.155 204.522 367.537 205.621 369.18 205.893C370.834 206.067 372.466 205.414 373.532 204.131C374.446 203.119 374.849 201.748 374.62 200.41C374.413 199.507 373.989 198.658 373.38 197.962C373.13 197.711 372.901 197.428 372.694 197.146Z" fill="#CD5B45"/>
<path d="M367.32 152.32C367.32 152.483 367.287 152.646 367.243 152.81C367.243 152.995 367.156 153.19 367.102 153.408L366.841 154.202C366.21 155.878 365.22 157.39 363.958 158.652C362.097 160.556 359.714 161.873 357.103 162.438C355.558 162.754 353.97 162.787 352.414 162.525C350.76 162.221 349.161 161.72 347.627 161.035C344.482 159.642 341.762 157.847 339.14 156.563C336.866 155.323 334.375 154.55 331.807 154.278C330.077 154.115 328.326 154.355 326.694 154.975C325.606 155.443 325.007 155.867 324.975 155.823C325.083 155.693 325.214 155.584 325.355 155.497C325.747 155.214 326.171 154.975 326.607 154.768C328.249 154.061 330.045 153.756 331.829 153.876C334.462 154.083 337.03 154.822 339.369 156.052C342.045 157.336 344.809 159.109 347.855 160.469C349.335 161.165 350.902 161.688 352.512 162.003C353.992 162.286 355.526 162.286 357.005 162.003C359.529 161.481 361.847 160.252 363.686 158.445C364.948 157.238 365.949 155.791 366.645 154.191L366.961 153.43L367.145 152.864C367.233 152.505 367.298 152.32 367.32 152.32Z" fill="#014751"/>
<path d="M345.875 389.809L277.592 422.808L152.418 388.677L213.868 355.101L345.875 389.809Z" fill="#0F2830"/>
<path d="M270.586 388.416L288.712 394.4L305.499 385.283L277.56 376.317L261.25 384.771L270.586 388.416Z" fill="#014751"/>
<path d="M136.49 296.502C137.055 298.776 152.418 388.677 152.418 388.677L277.538 422.808L261.12 326.65L136.49 296.502Z" fill="#0F2830"/>
<path d="M268.486 369.724C268.638 369.724 270.803 381.562 273.316 396.217C275.83 410.872 277.744 422.786 277.592 422.808C277.44 422.829 275.275 410.981 272.761 396.315C270.248 381.649 268.333 369.746 268.486 369.724Z" fill="#014751"/>
<path d="M203.045 362.236C206.43 360.925 207.939 356.674 206.415 352.741C204.892 348.807 200.913 346.681 197.529 347.991C194.144 349.302 192.636 353.553 194.159 357.487C195.683 361.42 199.661 363.547 203.045 362.236Z" fill="#014751"/>
<path d="M330.654 376.502C330.654 376.502 403.952 382.78 416.084 373.989C428.215 365.198 428.226 306.185 428.226 306.185L391.908 302.834L391.386 343.852C388.884 345.94 325.682 356.407 320.242 355.994C320.242 355.994 287.112 359.53 285.306 359.53C283.5 359.53 271.51 373.184 271.51 373.815C271.597 374.783 272.065 375.665 272.827 376.274C271.967 377.351 272.043 378.896 272.99 379.886C272.99 379.886 272.5 382.193 274.306 382.682C276.112 383.172 276.276 383.999 278.408 382.682C280.541 381.366 291.051 373.184 291.051 373.184L298.939 372.52C298.939 372.52 279.725 383.52 281.368 385.99C283.01 388.46 286.808 385.663 291.051 383.357C295.294 381.05 302.388 376.959 303.693 376.622C304.999 376.285 330.654 376.502 330.654 376.502Z" fill="#B78876"/>
<path d="M295.936 366.166C295.936 366.275 294.413 366.264 292.063 366.874C289.016 367.722 286.144 369.126 283.598 371.008C281.063 372.923 278.68 375.034 276.482 377.318C275.59 378.298 274.644 379.222 273.632 380.082C273.817 379.777 274.034 379.483 274.274 379.222C274.72 378.7 275.362 377.949 276.189 377.046C278.321 374.642 280.693 372.455 283.272 370.518C285.872 368.593 288.831 367.211 291.976 366.449C292.933 366.232 293.901 366.112 294.88 366.079C295.24 366.047 295.588 366.079 295.936 366.166Z" fill="#A36957"/>
<path d="M291.812 363.479C291.812 363.588 290.496 363.566 288.472 364.121C285.839 364.872 283.38 366.123 281.226 367.809C279.072 369.517 277.059 371.411 275.231 373.456C274.491 374.326 273.686 375.153 272.838 375.915C273.447 374.947 274.154 374.022 274.937 373.184C276.7 371.041 278.691 369.082 280.878 367.363C283.087 365.633 285.643 364.393 288.374 363.729C289.201 363.533 290.039 363.435 290.888 363.414C291.192 363.381 291.508 363.403 291.812 363.479Z" fill="#A36957"/>
<path d="M402.908 356.309C402.81 356.309 402.571 355.341 401.918 353.861C400.188 349.977 397.174 346.822 393.377 344.907C391.93 344.189 390.951 343.895 390.983 343.819C391.876 343.917 392.746 344.167 393.551 344.57C397.555 346.343 400.688 349.64 402.255 353.731C402.625 354.547 402.843 355.417 402.908 356.309Z" fill="#AA6550"/>
<path d="M276.961 433.318C273.773 434.101 272.348 438.214 273.414 441.315C274.481 444.415 277.299 446.57 280.149 448.18C288.755 453.021 300.179 454.164 308.176 448.376C311.679 445.852 314.421 441.369 312.974 437.3C311.712 433.742 307.806 431.86 304.161 430.902C294.326 428.28 283.892 429.086 274.589 433.209" fill="#E0E0E0"/>
<path d="M272.272 407.576C272.272 407.576 266.375 446.744 293.771 445.525C319.448 444.35 310.45 406.183 310.45 406.183L272.272 407.576Z" fill="#014751"/>
<path d="M306.142 434.656C310.515 437.539 316.032 438.094 320.895 436.136C325.726 434.09 329.185 429.717 330.056 424.538C330.817 419.337 328.772 414.115 324.67 410.829C320.481 407.63 314.889 406.999 310.091 409.164L309.699 413.636C312.691 412.276 316.184 412.678 318.795 414.669C321.352 416.726 322.636 419.979 322.157 423.232C321.602 426.463 319.448 429.194 316.434 430.478C313.399 431.686 309.96 431.349 307.23 429.553L306.142 434.656Z" fill="#014751"/>
<path d="M310.45 406.183C310.559 408.609 302.094 410.97 291.54 411.46C280.987 411.949 272.326 410.372 272.218 407.946C272.109 405.519 280.573 403.148 291.127 402.658C301.681 402.168 310.341 403.746 310.45 406.183Z" fill="#CD5B45"/>
<g opacity="0.2">
<path d="M311.592 413.048C309.308 413.875 307.708 415.953 307.491 418.369C307.404 420.762 307.958 423.134 309.101 425.245C309.416 425.898 309.96 426.648 310.678 426.518C311.396 426.387 311.614 425.528 311.69 424.831C312.245 420.98 312.212 417.063 311.581 413.222" fill="black"/>
</g>
<path d="M304.64 409.676C313.529 407.304 286.144 408.283 277.31 410.764C277.277 410.753 291.824 413.092 304.64 409.676Z" fill="#0F2830"/>
</svg>
