<svg width="552" height="368" viewBox="0 0 552 368" fill="none" xmlns="http://www.w3.org/2000/svg">
<path d="M129.831 58.5856H17.7378V133.658H129.831V58.5856Z" fill="white"/>
<path d="M129.83 133.658C129.83 133.658 129.83 133.216 129.83 132.259C129.83 131.302 129.83 130.051 129.83 128.285C129.83 124.826 129.83 119.747 129.757 113.197C129.757 100.17 129.683 81.4016 129.683 58.5856L129.83 58.7328L17.8113 58.8064L18.0321 58.5856C18.0321 85.3024 18.0321 110.768 18.0321 133.658L17.8849 133.51L98.6241 133.584L121.661 133.658H127.77H129.315H129.83H129.389H127.843H121.734L98.6977 133.731L17.8113 133.805H17.6641V133.658C17.6641 110.768 17.6641 85.3024 17.6641 58.5856V58.3648H17.8849L129.978 58.4384H130.125V58.5856C130.051 81.4752 130.051 100.243 130.051 113.344C130.051 119.821 129.978 124.973 129.978 128.432C129.978 130.125 129.978 131.45 129.978 132.333C129.978 133.216 129.83 133.658 129.83 133.658Z" fill="#E0E0E0"/>
<path d="M17.7378 65.2832C17.7378 65.136 42.8354 65.0624 73.7474 65.0624C104.659 65.0624 129.757 65.136 129.757 65.2832C129.757 65.4304 104.659 65.504 73.7474 65.504C42.8354 65.504 17.7378 65.3568 17.7378 65.2832Z" fill="#E0E0E0"/>
<g opacity="0.3">
<path d="M22.1536 61.8976C22.1536 62.4128 21.7856 62.7808 21.2704 62.7808C20.7552 62.7808 20.3872 62.4128 20.3872 61.8976C20.3872 61.3824 20.7552 61.0144 21.2704 61.0144C21.7856 61.0144 22.1536 61.3824 22.1536 61.8976Z" fill="#E0E0E0"/>
</g>
<g opacity="0.3">
<path d="M25.2449 61.8976C25.2449 62.4128 24.8769 62.7808 24.3617 62.7808C23.8465 62.7808 23.4785 62.4128 23.4785 61.8976C23.4785 61.3824 23.8465 61.0144 24.3617 61.0144C24.8769 61.0144 25.2449 61.3824 25.2449 61.8976Z" fill="#E0E0E0"/>
</g>
<g opacity="0.3">
<path d="M28.2625 61.8976C28.2625 62.4128 27.8945 62.7808 27.3793 62.7808C26.8641 62.7808 26.4961 62.4128 26.4961 61.8976C26.4961 61.3824 26.8641 61.0144 27.3793 61.0144C27.8945 61.0144 28.2625 61.3824 28.2625 61.8976Z" fill="#E0E0E0"/>
</g>
<path d="M57.261 73.0848H27.3794V102.966H57.261V73.0848Z" fill="#E0E0E0"/>
<path d="M114.448 81.5488C114.448 81.696 102.746 81.7696 88.3938 81.7696C74.0418 81.7696 62.3394 81.696 62.3394 81.5488C62.3394 81.4016 73.9682 81.328 88.3938 81.328C102.819 81.328 114.448 81.4752 114.448 81.5488Z" fill="#E0E0E0"/>
<path d="M114.448 87.1424C114.448 87.2896 102.746 87.3632 88.3938 87.3632C74.0418 87.3632 62.3394 87.2896 62.3394 87.1424C62.3394 86.9952 73.9682 86.9216 88.3938 86.9216C102.819 86.9216 114.448 86.9952 114.448 87.1424Z" fill="#E0E0E0"/>
<path d="M114.448 92.6624C114.448 92.8096 102.746 92.8832 88.3938 92.8832C74.0418 92.8832 62.3394 92.8096 62.3394 92.6624C62.3394 92.5152 73.9682 92.4416 88.3938 92.4416C102.819 92.4416 114.448 92.5888 114.448 92.6624Z" fill="#E0E0E0"/>
<path d="M93.1778 98.256C92.8098 98.3296 92.3682 98.3296 92.0002 98.3296L88.6882 98.4032C85.8914 98.4032 82.0642 98.4768 77.7954 98.4768C73.5266 98.4768 69.6994 98.4768 66.9026 98.4032L63.5906 98.3296C63.149 98.3296 62.781 98.3296 62.3394 98.256C62.7074 98.1824 63.149 98.1824 63.5906 98.1824L66.9026 98.1088C69.6994 98.0352 73.5266 98.0352 77.7954 98.0352C82.0642 98.0352 85.8914 98.0352 88.6882 98.1088L92.0002 98.1824C92.3682 98.1088 92.7362 98.1824 93.1778 98.256Z" fill="#E0E0E0"/>
<path d="M43.2768 113.05H29.2192V127.107H43.2768V113.05Z" fill="#E0E0E0"/>
<path d="M68.7427 113.05H54.6851V127.107H68.7427V113.05Z" fill="#E0E0E0"/>
<path d="M94.2817 113.05H80.2241V127.107H94.2817V113.05Z" fill="#E0E0E0"/>
<path d="M119.747 113.05H105.689V127.107H119.747V113.05Z" fill="#E0E0E0"/>
<path d="M242.954 22.08H146.391V61.3088H242.954V22.08Z" fill="white"/>
<path d="M242.954 61.3088C242.954 61.3088 242.954 61.088 242.954 60.5728C242.954 60.0576 242.954 59.3952 242.954 58.512C242.954 56.7456 242.954 54.096 242.954 50.7104C242.954 43.9392 242.954 34.1504 242.88 22.0064L242.954 22.08L146.39 22.1536L146.538 22.0064C146.538 35.7696 146.538 49.0176 146.538 61.2352L146.39 61.088L215.648 61.1616L235.741 61.2352L215.722 61.3088L146.39 61.3824H146.243V61.2352C146.243 49.0176 146.243 35.7696 146.243 22.0064V21.8592H146.39L242.954 21.9328H243.027V22.08C243.027 34.224 242.954 44.0128 242.954 50.8576C242.954 54.2432 242.954 56.8928 242.954 58.6592C242.954 59.5424 242.954 60.2048 242.954 60.6464C242.954 61.088 242.954 61.3088 242.954 61.3088Z" fill="#E0E0E0"/>
<path d="M146.464 27.3792C146.464 27.3056 168.029 27.232 194.672 27.232C221.315 27.232 242.88 27.3056 242.88 27.3792C242.88 27.4528 221.315 27.5264 194.672 27.5264C168.029 27.5264 146.464 27.4528 146.464 27.3792Z" fill="#E0E0E0"/>
<g opacity="0.3">
<path d="M150.512 25.024C150.512 25.392 150.218 25.6864 149.776 25.6864C149.408 25.6864 149.114 25.392 149.114 24.9504C149.114 24.5824 149.408 24.288 149.776 24.288C150.144 24.288 150.512 24.656 150.512 25.024Z" fill="#EBEBEB"/>
</g>
<g opacity="0.3">
<path d="M152.941 25.024C152.941 25.392 152.647 25.76 152.279 25.76C151.911 25.76 151.616 25.4656 151.616 25.024C151.616 24.656 151.911 24.288 152.279 24.288C152.573 24.3616 152.867 24.656 152.941 25.024Z" fill="#EBEBEB"/>
</g>
<g opacity="0.3">
<path d="M154.56 25.6864C154.926 25.6864 155.222 25.3898 155.222 25.024C155.222 24.6582 154.926 24.3616 154.56 24.3616C154.194 24.3616 153.897 24.6582 153.897 25.024C153.897 25.3898 154.194 25.6864 154.56 25.6864Z" fill="#EBEBEB"/>
</g>
<path d="M177.891 33.7824H154.56V57.1136H177.891V33.7824Z" fill="#E0E0E0"/>
<path d="M236.256 40.0384C236.256 40.112 224.259 40.1856 209.466 40.1856C194.672 40.1856 182.675 40.112 182.675 40.0384C182.675 39.9648 194.672 39.8912 209.466 39.8912C224.259 39.8912 236.256 39.9648 236.256 40.0384Z" fill="#E0E0E0"/>
<path d="M236.256 44.7488C236.256 44.8224 224.259 44.896 209.466 44.896C194.672 44.896 182.675 44.8224 182.675 44.7488C182.675 44.6752 194.672 44.6016 209.466 44.6016C224.259 44.6016 236.256 44.6752 236.256 44.7488Z" fill="#E0E0E0"/>
<path d="M217.12 49.5328C216.973 49.5328 216.899 49.5328 216.752 49.5328H215.721L212.041 49.6064L199.824 49.68H187.606L183.926 49.6064L187.606 49.5328L199.824 49.4592L212.041 49.5328L215.721 49.6064H216.752C216.899 49.5328 216.973 49.5328 217.12 49.5328Z" fill="#E0E0E0"/>
<path d="M503.424 74.4832C503.571 74.2624 503.792 74.0416 503.939 73.8944C504.381 73.4528 504.896 72.9376 505.559 72.2752C506.883 70.9504 508.797 69.1104 510.858 67.1232L510.931 67.0496V67.344C508.797 65.3568 506.883 63.5904 505.559 62.2656L503.939 60.72C503.719 60.5728 503.571 60.352 503.351 60.1312C503.571 60.2784 503.792 60.4256 504.013 60.6464L505.706 62.1184C507.104 63.3696 509.018 65.136 511.152 67.1232L511.299 67.2704L511.152 67.4176L511.079 67.4912C509.018 69.4784 507.031 71.3184 505.706 72.5696L504.013 74.1152C503.866 74.1152 503.645 74.336 503.424 74.4832Z" fill="#E0E0E0"/>
<path d="M487.159 60.0576C487.011 60.2784 486.791 60.4992 486.643 60.6464L485.098 62.2656C483.773 63.5904 481.859 65.4304 479.799 67.4176L479.725 67.4912V67.1968C481.859 69.184 483.773 70.9504 485.098 72.2752L486.717 73.8208C486.938 73.968 487.085 74.1888 487.306 74.4096C487.085 74.2624 486.864 74.1152 486.643 73.8944L484.951 72.4224C483.552 71.1712 481.639 69.4048 479.504 67.4176L479.357 67.2704L479.504 67.1232L479.578 67.0496C481.639 65.0624 483.626 63.2224 484.951 61.9712L486.57 60.4992C486.717 60.4256 486.938 60.2048 487.159 60.0576Z" fill="#E0E0E0"/>
<path d="M491.354 77.8688C491.28 77.7952 492.973 73.0112 495.181 67.1232C497.389 61.2352 499.229 56.4512 499.376 56.5248C499.523 56.5984 497.757 61.3824 495.549 67.2704C493.341 73.1584 491.427 77.8688 491.354 77.8688Z" fill="#E0E0E0"/>
<path d="M521.971 88.0992C521.971 88.0992 521.971 87.8048 521.971 87.2896C521.971 86.7744 521.971 85.9648 521.971 85.008C521.971 82.9472 521.971 80.0032 521.971 76.2496C521.971 68.7424 521.898 57.9232 521.898 44.896L522.045 45.0432H469.053L469.2 44.896C469.2 60.4992 469.2 75.2928 469.2 88.0992L469.053 87.952L507.325 88.0256L518.144 88.0992H521.014H522.045H521.824H521.088H518.218L507.398 88.1728L468.979 88.2464H468.832V88.0992C468.832 75.2928 468.832 60.4992 468.832 44.896V44.7488H469.053H522.045H522.192V44.896C522.192 57.9232 522.118 68.7424 522.118 76.3232C522.118 80.0768 522.118 83.0208 522.118 85.0816C522.118 86.0384 522.118 86.848 522.118 87.3632C522.118 87.8784 521.971 88.0992 521.971 88.0992Z" fill="#E0E0E0"/>
<path d="M522.413 51.3728C522.413 51.4464 510.416 51.52 495.696 51.52C480.976 51.52 468.979 51.4464 468.979 51.3728C468.979 51.2992 480.976 51.2256 495.696 51.2256C510.416 51.2256 522.413 51.2256 522.413 51.3728Z" fill="#E0E0E0"/>
<path d="M473.248 48.208C473.248 48.6496 472.953 48.944 472.512 48.944C472.07 48.944 471.776 48.6496 471.776 48.208C471.776 47.7664 472.07 47.472 472.512 47.472C472.953 47.472 473.248 47.7664 473.248 48.208Z" fill="#E0E0E0"/>
<path d="M475.898 48.208C475.898 48.6496 475.603 48.944 475.162 48.944C474.72 48.944 474.426 48.6496 474.426 48.208C474.426 47.7664 474.72 47.472 475.162 47.472C475.603 47.472 475.898 47.7664 475.898 48.208Z" fill="#E0E0E0"/>
<path d="M478.473 48.208C478.473 48.6496 478.179 48.944 477.737 48.944C477.296 48.944 477.001 48.6496 477.001 48.208C477.001 47.7664 477.296 47.472 477.737 47.472C478.179 47.472 478.473 47.7664 478.473 48.208Z" fill="#E0E0E0"/>
<path d="M509.754 278.134C512.845 276.589 516.451 276.368 519.837 276.883C521.677 277.178 523.59 277.693 524.842 279.091C526.093 280.49 526.314 282.845 524.915 284.096C523.958 284.685 522.854 284.979 521.75 284.906C519.101 284.906 516.157 284.39 514.022 286.01C512.771 286.893 512.035 288.438 510.563 288.88C509.091 289.248 507.546 288.512 506.81 287.187C506.147 285.862 506 284.317 506.368 282.845C506.662 280.858 507.914 279.091 509.754 278.134Z" fill="#EBEBEB"/>
<path d="M502.688 264.592C504.528 267.242 508.208 266.358 509.901 264.739C511.594 263.12 512.33 260.765 512.992 258.483C514.464 253.331 515.936 247.885 514.832 242.659C514.538 241.04 513.875 239.568 512.771 238.317C511.667 237.066 510.048 236.55 508.429 236.845C506.589 237.36 505.485 239.126 504.602 240.819C502.173 245.898 500.922 251.418 500.848 257.011C500.995 259.661 501.29 262.384 502.688 264.592Z" fill="#EBEBEB"/>
<path d="M497.609 268.419C499.67 265.99 500.038 262.458 499.155 259.44C498.125 256.422 496.285 253.773 493.856 251.712C491.059 249.21 487.821 247.37 484.361 246.118C483.037 245.603 481.565 245.309 480.093 245.382C478.621 245.456 477.222 246.339 476.486 247.59C475.529 249.504 476.486 251.786 477.517 253.699C479.357 257.011 481.417 260.176 483.773 263.194C485.613 265.622 487.821 267.978 490.617 269.082C493.414 270.186 496.432 270.038 497.977 268.051" fill="#EBEBEB"/>
<path d="M502.614 304.925C502.688 304.557 502.762 304.115 502.762 303.674C502.835 302.79 502.982 301.686 503.056 300.362C503.13 299.037 503.424 297.344 503.792 295.504C504.234 293.517 504.822 291.603 505.558 289.763C506.294 287.923 507.251 286.157 508.502 284.538C509.459 283.286 510.71 282.182 512.182 281.446C513.139 280.931 514.243 280.637 515.274 280.49C515.715 280.49 516.083 280.416 516.451 280.342C516.01 280.269 515.642 280.269 515.2 280.342C514.096 280.416 512.992 280.71 511.962 281.152C510.416 281.888 509.091 282.918 508.061 284.243C506.81 285.862 505.779 287.629 505.043 289.542C504.307 291.456 503.718 293.37 503.277 295.357C502.982 296.976 502.762 298.669 502.614 300.288C502.541 301.686 502.467 302.864 502.467 303.6C502.541 304.115 502.541 304.557 502.614 304.925Z" fill="#E0E0E0"/>
<path d="M502.835 302.422C502.835 302.202 502.835 302.054 502.835 301.834V300.214C502.835 298.816 502.835 296.755 502.909 294.253C503.056 289.248 503.498 283.875 504.307 276.294C505.117 269.155 506.147 260.838 507.251 255.466C507.472 254.214 507.767 253.11 507.987 252.154C508.208 251.197 508.355 250.314 508.576 249.651C508.797 248.989 508.871 248.474 508.944 248.106C509.018 247.958 509.018 247.738 509.018 247.517C508.944 247.664 508.871 247.885 508.797 248.032C508.65 248.4 508.503 248.915 508.355 249.578C508.135 250.24 507.914 251.05 507.693 252.08C507.472 253.11 507.178 254.141 506.883 255.392C505.485 261.795 504.455 268.272 503.792 274.749C502.983 282.33 502.615 289.322 502.541 294.326C502.541 296.829 502.541 298.89 502.615 300.288C502.688 300.95 502.688 301.466 502.688 301.907C502.762 302.054 502.762 302.202 502.835 302.422Z" fill="#E0E0E0"/>
<path d="M502.835 289.027C502.909 288.438 502.909 287.923 502.835 287.334C502.762 286.23 502.614 284.685 502.32 282.771C501.952 280.563 501.437 278.355 500.848 276.147C500.112 273.424 499.229 270.848 498.051 268.272C496.138 263.562 493.341 259.293 489.882 255.539C489.293 254.877 488.63 254.288 487.968 253.773C487.674 253.552 487.379 253.258 487.158 253.037L486.422 252.522C485.981 252.154 485.466 251.859 485.024 251.638C486.643 252.89 488.189 254.288 489.661 255.76C493.046 259.514 495.696 263.782 497.61 268.419C498.714 270.922 499.67 273.571 500.406 276.221C500.995 278.355 501.51 280.563 501.878 282.771C502.246 284.685 502.467 286.23 502.541 287.261C502.688 287.923 502.762 288.512 502.835 289.027Z" fill="#E0E0E0"/>
<path d="M489.955 312.579L491.28 330.979H514.832L516.157 312.579H489.955Z" fill="#E0E0E0"/>
<path d="M519.027 305.366H487.674V312.579H519.027V305.366Z" fill="#E0E0E0"/>
<path d="M487.674 330.243V332.23H489.146H518.512V330.243H487.674Z" fill="#EBEBEB"/>
<path d="M490.544 335.763L489.146 332.23H517.334L515.715 335.763H490.544Z" fill="#E0E0E0"/>
<path d="M515.789 318.614C515.789 318.614 515.789 318.688 515.642 318.762L515.274 319.203L513.875 320.97L513.802 321.043L513.728 320.97C512.845 319.792 511.741 318.173 510.343 316.333H510.563L507.251 321.043L507.178 321.19L507.031 321.043L503.13 316.333H503.351L503.13 316.627L499.597 321.043L499.45 321.19L499.376 321.043C498.199 319.35 497.021 317.805 496.064 316.333H496.285L492.237 320.97L492.163 321.043L492.09 320.97L490.839 318.835L490.471 318.246C490.397 318.173 490.397 318.099 490.397 318.026C490.397 318.026 490.471 318.099 490.544 318.173L490.912 318.762L492.237 320.896H492.09L496.138 316.186L496.211 316.038L496.285 316.186L499.671 320.896H499.45L502.983 316.48L503.203 316.186L503.351 316.038L503.498 316.186L507.399 320.896H507.104L510.49 316.186L510.563 316.038L510.637 316.186L513.949 320.896H513.802L515.2 319.203L515.568 318.762C515.642 318.688 515.715 318.614 515.789 318.614Z" fill="#F5F5F5"/>
<path d="M516.525 312.506C516.525 312.579 510.637 312.653 503.351 312.653C496.064 312.653 490.176 312.579 490.176 312.506C490.176 312.432 496.064 312.358 503.351 312.358C510.637 312.358 516.525 312.432 516.525 312.506Z" fill="#F5F5F5"/>
<path d="M517.703 332.451C517.703 332.525 511.299 332.598 503.351 332.598C495.402 332.598 488.999 332.525 488.999 332.451C488.999 332.378 495.402 332.304 503.351 332.304C511.299 332.304 517.703 332.378 517.703 332.451Z" fill="#F5F5F5"/>
<path d="M80.2976 76.6176H456.32C459.043 76.6176 461.251 78.8256 461.251 81.5488V321.632C461.251 327.52 456.467 332.378 450.506 332.378H85.376C79.488 332.378 74.6304 327.594 74.6304 321.706V82.2848C74.6304 79.1936 77.1328 76.6176 80.2976 76.6176Z" fill="#455A64"/>
<path d="M58.4385 313.389H477.37V325.68C477.37 331.274 472.88 335.763 467.286 335.763H68.5217C62.9281 335.763 58.4385 331.274 58.4385 325.68V313.389Z" fill="#455A64"/>
<path d="M449.844 86.7744H85.0083V302.717H449.844V86.7744Z" fill="#E0E0E0"/>
<path d="M229.853 313.389L235.079 321.706H308.163L313.021 313.389H229.853Z" fill="#263238"/>
<path d="M439.907 99.2864H95.8271V302.717H439.907V99.2864Z" fill="#263238"/>
<path d="M122.249 296.755C122.102 296.755 121.955 253.405 121.955 199.971C121.955 146.538 122.102 103.187 122.249 103.187C122.397 103.187 122.544 146.538 122.544 199.971C122.544 253.405 122.397 296.755 122.249 296.755Z" fill="#E0E0E0"/>
<path d="M115.258 120.778C115.258 120.925 112.755 121.072 109.664 121.072C106.573 121.072 104.07 120.925 104.07 120.778C104.07 120.63 106.573 120.483 109.664 120.483C112.755 120.483 115.258 120.557 115.258 120.778Z" fill="#E0E0E0"/>
<path d="M115.699 109.738C115.699 109.885 113.197 110.032 110.106 110.032C107.015 110.032 104.512 109.885 104.512 109.738C104.512 109.59 107.015 109.443 110.106 109.443C113.197 109.443 115.699 109.59 115.699 109.738Z" fill="#E0E0E0"/>
<path d="M115.258 132.554C115.258 132.701 112.755 132.848 109.664 132.848C106.573 132.848 104.07 132.701 104.07 132.554C104.07 132.406 106.573 132.259 109.664 132.259C112.755 132.259 115.258 132.406 115.258 132.554Z" fill="#E0E0E0"/>
<path d="M115.258 144.403C115.258 144.55 112.755 144.698 109.664 144.698C106.573 144.698 104.07 144.55 104.07 144.403C104.07 144.256 106.573 144.109 109.664 144.109C112.755 144.109 115.258 144.256 115.258 144.403Z" fill="#E0E0E0"/>
<path d="M115.258 156.253C115.258 156.4 112.755 156.547 109.664 156.547C106.573 156.547 104.07 156.4 104.07 156.253C104.07 156.106 106.573 155.958 109.664 155.958C112.755 155.958 115.258 156.106 115.258 156.253Z" fill="#E0E0E0"/>
<path d="M115.258 168.102C115.258 168.25 112.755 168.397 109.664 168.397C106.573 168.397 104.07 168.25 104.07 168.102C104.07 167.955 106.573 167.808 109.664 167.808C112.755 167.808 115.258 167.955 115.258 168.102Z" fill="#E0E0E0"/>
<path d="M115.258 179.952C115.258 180.099 112.755 180.246 109.664 180.246C106.573 180.246 104.07 180.099 104.07 179.952C104.07 179.805 106.573 179.658 109.664 179.658C112.755 179.658 115.258 179.731 115.258 179.952Z" fill="#E0E0E0"/>
<path d="M115.258 191.802C115.258 191.949 112.755 192.096 109.664 192.096C106.573 192.096 104.07 191.949 104.07 191.802C104.07 191.654 106.573 191.507 109.664 191.507C112.755 191.507 115.258 191.581 115.258 191.802Z" fill="#E0E0E0"/>
<path d="M115.258 203.578C115.258 203.725 112.755 203.872 109.664 203.872C106.573 203.872 104.07 203.725 104.07 203.578C104.07 203.43 106.573 203.283 109.664 203.283C112.755 203.283 115.258 203.43 115.258 203.578Z" fill="#E0E0E0"/>
<path d="M115.258 215.427C115.258 215.574 112.755 215.722 109.664 215.722C106.573 215.722 104.07 215.574 104.07 215.427C104.07 215.28 106.573 215.133 109.664 215.133C112.755 215.133 115.258 215.28 115.258 215.427Z" fill="#E0E0E0"/>
<path d="M115.258 227.277C115.258 227.424 112.755 227.571 109.664 227.571C106.573 227.571 104.07 227.424 104.07 227.277C104.07 227.13 106.573 226.982 109.664 226.982C112.755 226.982 115.258 227.13 115.258 227.277Z" fill="#E0E0E0"/>
<path d="M115.258 239.126C115.258 239.274 112.755 239.421 109.664 239.421C106.573 239.421 104.07 239.274 104.07 239.126C104.07 238.979 106.573 238.832 109.664 238.832C112.755 238.832 115.258 238.906 115.258 239.126Z" fill="#E0E0E0"/>
<path d="M115.258 250.976C115.258 251.123 112.755 251.27 109.664 251.27C106.573 251.27 104.07 251.123 104.07 250.976C104.07 250.829 106.573 250.682 109.664 250.682C112.755 250.682 115.258 250.755 115.258 250.976Z" fill="#E0E0E0"/>
<path d="M115.258 262.826C115.258 262.973 112.755 263.12 109.664 263.12C106.573 263.12 104.07 262.973 104.07 262.826C104.07 262.678 106.573 262.531 109.664 262.531C112.755 262.531 115.258 262.605 115.258 262.826Z" fill="#E0E0E0"/>
<path d="M115.258 274.602C115.258 274.749 112.755 274.896 109.664 274.896C106.573 274.896 104.07 274.749 104.07 274.602C104.07 274.454 106.573 274.307 109.664 274.307C112.755 274.307 115.258 274.454 115.258 274.602Z" fill="#E0E0E0"/>
<path d="M115.258 286.451C115.258 286.598 112.755 286.746 109.664 286.746C106.573 286.746 104.07 286.598 104.07 286.451C104.07 286.304 106.573 286.157 109.664 286.157C112.755 286.157 115.258 286.304 115.258 286.451Z" fill="#E0E0E0"/>
<path d="M160.08 120.042C160.08 120.189 153.603 120.336 145.581 120.336C137.558 120.336 131.082 120.189 131.082 120.042C131.082 119.894 137.558 119.747 145.581 119.747C153.603 119.747 160.08 119.894 160.08 120.042Z" fill="#CD5B45"/>
<path d="M160.08 286.451C160.08 286.598 153.603 286.746 145.581 286.746C137.558 286.746 131.082 286.598 131.082 286.451C131.082 286.304 137.558 286.157 145.581 286.157C153.603 286.157 160.08 286.304 160.08 286.451Z" fill="#CD5B45"/>
<path d="M200.487 144.403C200.487 144.55 188.343 144.698 173.328 144.698C158.314 144.698 146.17 144.55 146.17 144.403C146.17 144.256 158.314 144.109 173.328 144.109C188.343 144.109 200.487 144.256 200.487 144.403Z" fill="#CD5B45"/>
<path d="M263.267 144.403C263.267 144.55 251.123 144.698 236.109 144.698C221.095 144.698 208.951 144.55 208.951 144.403C208.951 144.256 221.095 144.109 236.109 144.109C251.123 144.109 263.267 144.256 263.267 144.403Z" fill="#E0E0E0"/>
<path d="M239.274 156.253C239.274 156.4 221.389 156.547 199.309 156.547C177.229 156.547 159.344 156.4 159.344 156.253C159.344 156.106 177.229 155.958 199.309 155.958C221.389 155.958 239.274 156.106 239.274 156.253Z" fill="#E0E0E0"/>
<path d="M239.274 168.102C239.274 168.25 221.389 168.397 199.309 168.397C177.229 168.397 159.344 168.25 159.344 168.102C159.344 167.955 177.229 167.808 199.309 167.808C221.389 167.808 239.274 167.955 239.274 168.102Z" fill="#E0E0E0"/>
<path d="M294.326 203.578C294.326 203.725 276.442 203.872 254.362 203.872C232.282 203.872 214.323 203.725 214.323 203.578C214.323 203.43 232.208 203.283 254.362 203.283C276.515 203.283 294.326 203.43 294.326 203.578Z" fill="#E0E0E0"/>
<path d="M270.554 179.952C270.554 180.099 252.669 180.246 230.589 180.246C208.509 180.246 190.55 180.099 190.55 179.952C190.55 179.805 208.435 179.658 230.589 179.658C252.742 179.658 270.554 179.731 270.554 179.952Z" fill="#E0E0E0"/>
<path d="M368.295 179.952C368.295 180.099 350.41 180.246 328.33 180.246C306.25 180.246 288.292 180.099 288.292 179.952C288.292 179.805 306.176 179.658 328.33 179.658C350.484 179.658 368.295 179.731 368.295 179.952Z" fill="#E0E0E0"/>
<path d="M334.291 156.253C334.291 156.4 316.407 156.547 294.327 156.547C272.247 156.547 254.362 156.4 254.362 156.253C254.362 156.106 272.247 155.958 294.327 155.958C316.407 155.958 334.291 156.106 334.291 156.253Z" fill="#FAFAFA"/>
<path d="M389.565 203.578C389.565 203.725 371.68 203.872 349.6 203.872C327.52 203.872 309.635 203.725 309.635 203.578C309.635 203.43 327.52 203.283 349.6 203.283C371.68 203.283 389.565 203.43 389.565 203.578Z" fill="#FAFAFA"/>
<path d="M378.525 168.102C378.525 168.25 350.704 168.397 316.406 168.397C282.109 168.397 254.288 168.25 254.288 168.102C254.288 167.955 282.109 167.808 316.406 167.808C350.704 167.808 378.525 167.955 378.525 168.102Z" fill="#455A64"/>
<path d="M160.08 132.554C160.08 132.701 153.603 132.848 145.581 132.848C137.558 132.848 131.082 132.701 131.082 132.554C131.082 132.406 137.558 132.259 145.581 132.259C153.603 132.259 160.08 132.406 160.08 132.554Z" fill="#FAFAFA"/>
<path d="M160.08 274.602C160.08 274.749 153.603 274.896 145.581 274.896C137.558 274.896 131.082 274.749 131.082 274.602C131.082 274.454 137.558 274.307 145.581 274.307C153.603 274.307 160.08 274.454 160.08 274.602Z" fill="#FAFAFA"/>
<path d="M174.432 179.952C174.432 180.099 167.955 180.246 159.933 180.246C151.91 180.246 145.434 180.099 145.434 179.952C145.434 179.805 151.91 179.658 159.933 179.658C167.955 179.658 174.432 179.731 174.432 179.952Z" fill="#FAFAFA"/>
<path d="M406.934 179.952C406.934 180.099 400.458 180.246 392.435 180.246C384.413 180.246 377.936 180.099 377.936 179.952C377.936 179.805 384.413 179.658 392.435 179.658C400.458 179.658 406.934 179.731 406.934 179.952Z" fill="#CD5B45"/>
<path d="M200.487 227.203C200.487 227.35 188.343 227.498 173.328 227.498C158.314 227.498 146.17 227.35 146.17 227.203C146.17 227.056 158.314 226.909 173.328 226.909C188.343 226.909 200.487 227.056 200.487 227.203Z" fill="#CD5B45"/>
<path d="M263.267 227.203C263.267 227.35 251.123 227.498 236.109 227.498C221.095 227.498 208.951 227.35 208.951 227.203C208.951 227.056 221.095 226.909 236.109 226.909C251.123 226.909 263.267 227.056 263.267 227.203Z" fill="#E0E0E0"/>
<path d="M239.274 239.053C239.274 239.2 221.389 239.347 199.309 239.347C177.229 239.347 159.344 239.2 159.344 239.053C159.344 238.906 177.229 238.758 199.309 238.758C221.389 238.758 239.274 238.906 239.274 239.053Z" fill="#E0E0E0"/>
<path d="M239.274 250.902C239.274 251.05 221.389 251.197 199.309 251.197C177.229 251.197 159.344 251.05 159.344 250.902C159.344 250.755 177.229 250.608 199.309 250.608C221.389 250.608 239.274 250.682 239.274 250.902Z" fill="#E0E0E0"/>
<path d="M270.554 262.752C270.554 262.899 252.669 263.046 230.589 263.046C208.509 263.046 190.55 262.899 190.55 262.752C190.55 262.605 208.435 262.458 230.589 262.458C252.742 262.458 270.554 262.531 270.554 262.752Z" fill="#E0E0E0"/>
<path d="M368.295 262.752C368.295 262.899 350.41 263.046 328.33 263.046C306.25 263.046 288.292 262.899 288.292 262.752C288.292 262.605 306.176 262.458 328.33 262.458C350.484 262.458 368.295 262.531 368.295 262.752Z" fill="#E0E0E0"/>
<path d="M334.291 239.053C334.291 239.2 316.407 239.347 294.327 239.347C272.247 239.347 254.362 239.2 254.362 239.053C254.362 238.906 272.247 238.758 294.327 238.758C316.407 238.758 334.291 238.906 334.291 239.053Z" fill="#FAFAFA"/>
<path d="M378.525 250.902C378.525 251.05 350.704 251.197 316.406 251.197C282.109 251.197 254.288 251.05 254.288 250.902C254.288 250.755 282.109 250.608 316.406 250.608C350.704 250.608 378.525 250.682 378.525 250.902Z" fill="#455A64"/>
<path d="M174.432 262.752C174.432 262.899 167.955 263.046 159.933 263.046C151.91 263.046 145.434 262.899 145.434 262.752C145.434 262.605 151.91 262.458 159.933 262.458C167.955 262.458 174.432 262.531 174.432 262.752Z" fill="#FAFAFA"/>
<path d="M406.934 262.752C406.934 262.899 400.458 263.046 392.435 263.046C384.413 263.046 377.936 262.899 377.936 262.752C377.936 262.605 384.413 262.458 392.435 262.458C400.458 262.458 406.934 262.531 406.934 262.752Z" fill="#CD5B45"/>
<path d="M414.662 320.896C414.662 320.97 340.621 321.117 249.21 321.117C157.798 321.117 83.7568 321.043 83.7568 320.896C83.7568 320.749 157.798 320.675 249.21 320.675C340.621 320.675 414.662 320.749 414.662 320.896Z" fill="#263238"/>
<path d="M71.466 255.981C61.0148 245.53 45.7796 241.334 31.354 244.941C43.3508 253.11 57.4084 257.526 71.9076 257.6" fill="#2E9999"/>
<path d="M57.85 207.846C59.5428 196.07 54.906 182.749 46.074 174.138C45.7796 185.914 50.7108 199.088 57.85 207.846Z" fill="#2E9999"/>
<path d="M64.9155 230.147C58.5123 218.003 48.3555 208.288 35.9907 202.474C39.9651 216.31 51.0787 226.982 65.0627 230.294" fill="#2E9999"/>
<path d="M66.3872 234.49C59.248 234.71 52.0352 234.416 45.1168 232.65C38.1984 230.883 31.648 227.35 27.0112 221.83C40.9952 221.904 54.6112 226.026 66.24 233.827" fill="#2E9999"/>
<path d="M62.7808 220.285C66.3872 206.742 72.3488 197.322 83.0208 189.741C84.7136 203.504 76.1024 216.458 62.7808 220.285Z" fill="#2E9999"/>
<path d="M89.7186 243.69C89.7922 235.594 84.9346 228.234 77.501 225.069C78.0898 232.134 83.6098 240.23 89.7186 243.69Z" fill="#2E9999"/>
<path d="M93.104 232.282C94.1344 220.653 101.789 210.717 112.682 206.742C110.253 218.077 103.702 227.498 93.104 232.282Z" fill="#2E9999"/>
<path d="M87.9521 252.595C90.4545 248.989 94.5762 246.781 98.845 245.677C103.114 244.573 107.53 244.499 111.946 244.352C105.911 250.902 97.2993 254.509 88.3937 254.214" fill="#2E9999"/>
<path d="M82.874 281.52C99.434 276.368 117.245 284.832 123.796 300.877C108.928 298.08 94.282 291.456 82.874 281.52Z" fill="#2E9999"/>
<path d="M66.5344 271.437C68.9632 278.723 68.5216 287.555 63.0016 293.811C60.8672 286.23 62.1184 277.987 66.5344 271.437Z" fill="#2E9999"/>
<path d="M56.893 267.389C56.0834 276.957 50.3426 285.421 41.7314 289.69C41.3634 289.91 40.8482 290.058 40.4066 289.91C39.7442 289.616 39.6706 288.733 39.7442 287.997C40.8482 278.65 47.7666 269.597 56.893 267.389Z" fill="#2E9999"/>
<path d="M50.637 266.432C42.173 275.558 27.9682 276.074 18.8418 267.683C18.4738 267.315 18.1058 267.021 17.7378 266.653C28.189 265.475 40.2594 264.666 50.637 266.432Z" fill="#2E9999"/>
<path d="M49.0913 182.896C49.0913 182.896 49.0913 182.97 49.1649 183.19L49.4593 184.074C49.7537 184.883 50.1953 185.987 50.7105 187.459C51.2257 188.931 51.9617 190.698 52.6977 192.832L53.8753 196.218L55.2001 199.971C57.0401 205.27 59.1009 211.6 61.3089 218.666C63.5169 225.731 65.7985 233.533 68.0065 241.85C70.2145 250.166 72.2017 258.042 73.8945 265.254C75.5873 272.467 76.9121 279.018 77.9425 284.538C78.2369 285.936 78.4577 287.261 78.6785 288.438C78.8993 289.69 79.1201 290.867 79.2673 291.971C79.6353 294.179 79.9297 296.019 80.1505 297.638C80.3713 299.258 80.5921 300.362 80.6657 301.245C80.7393 301.613 80.8129 301.907 80.8129 302.202C80.8129 302.275 80.8129 302.422 80.8865 302.496C80.8865 302.422 80.8865 302.275 80.8865 302.202C80.8865 301.981 80.8129 301.686 80.7393 301.245C80.5921 300.435 80.4449 299.184 80.2977 297.638C80.1505 296.093 79.7825 294.179 79.4145 291.971C79.2673 290.867 79.0465 289.69 78.8257 288.438C78.6049 287.187 78.3841 285.862 78.0897 284.464C77.1329 278.944 75.7345 272.394 74.1153 265.181C72.4961 257.968 70.6561 250.019 68.4481 241.702C66.2401 233.386 63.8849 225.658 61.6769 218.592C59.4689 211.526 57.3345 205.197 55.4945 199.898C54.9793 198.573 54.5377 197.322 54.1697 196.144L52.9185 192.832C52.1825 190.771 51.4465 188.931 50.8577 187.459C50.2689 185.987 49.8273 184.883 49.5329 184.074C49.3857 183.706 49.2385 183.411 49.1649 183.19C49.1649 183.117 49.0913 182.97 49.0913 182.896Z" fill="#263238"/>
<path d="M106.499 212.778C106.499 212.778 106.426 212.851 106.352 212.925L105.837 213.44C105.395 213.882 104.806 214.618 103.997 215.501C101.789 218.077 99.728 220.8 97.8144 223.67C95.0176 227.939 92.8832 232.576 91.4112 237.434C89.7184 242.88 88.6144 249.136 87.584 255.686C85.4496 268.714 82.8736 280.416 80.96 288.806C80.0032 293.002 79.2672 296.387 78.6784 298.816C78.4576 299.994 78.2368 300.877 78.0896 301.539C78.016 301.834 77.9424 302.054 77.9424 302.275C77.9424 302.349 77.9424 302.422 77.9424 302.496C77.9424 302.496 77.9424 302.422 78.016 302.275C78.0896 302.128 78.1632 301.834 78.1632 301.539L78.8256 298.816C79.4144 296.461 80.224 293.002 81.1808 288.88C83.168 280.416 85.8176 268.787 87.952 255.76C88.9824 249.21 90.0864 243.027 91.7792 237.581C93.2512 232.723 95.3856 228.16 98.1088 223.891C99.9488 221.021 101.936 218.224 104.144 215.648C104.88 214.691 105.542 214.029 105.91 213.514L106.352 212.925L106.499 212.778Z" fill="#263238"/>
<path d="M47.5459 265.99C47.6931 266.064 47.7667 266.064 47.9139 266.064L49.0179 266.211L49.8275 266.285L50.7843 266.432C51.4467 266.506 52.1827 266.653 52.9923 266.8L54.3171 267.094L55.7155 267.462C56.6723 267.683 57.7027 268.051 58.7331 268.346C61.0147 269.155 63.2227 270.112 65.3571 271.29C67.4915 272.467 69.4787 273.866 71.3187 275.411C72.1283 276.074 72.8643 276.81 73.6003 277.619C74.2627 278.282 74.8515 278.944 75.3667 279.68C75.8083 280.269 76.3235 280.858 76.6915 281.52C77.0595 281.962 77.3539 282.477 77.5747 282.992L78.1635 283.949C78.3107 284.17 78.3843 284.243 78.3843 284.243C78.3843 284.096 78.3107 284.022 78.2371 283.875L77.7219 282.918C77.5011 282.403 77.2067 281.888 76.8387 281.446C76.4707 280.784 76.0291 280.195 75.5139 279.533C74.9987 278.797 74.3363 278.061 73.7475 277.398C73.0115 276.589 72.2755 275.853 71.4659 275.19C69.6259 273.571 67.6387 272.099 65.5043 270.848C63.3699 269.67 61.0883 268.714 58.8067 267.904C57.7027 267.61 56.7459 267.242 55.7155 267.021L54.3171 266.653L52.9923 266.432C52.1827 266.285 51.3731 266.211 50.7107 266.138L49.7539 266.064H48.9443L47.8403 265.99C47.7667 265.99 47.6195 265.99 47.5459 265.99Z" fill="#263238"/>
<path d="M44.5283 213.072C44.7491 213.366 44.9699 213.587 45.2643 213.808L47.3987 215.648C49.2387 217.194 51.7411 219.328 54.6115 221.683C57.4819 224.038 59.9843 226.099 61.8979 227.645L64.1059 229.411C64.4003 229.632 64.6947 229.853 64.9891 230C64.7683 229.706 64.5475 229.485 64.2531 229.264L62.1187 227.424C60.2787 225.878 57.7763 223.744 54.9059 221.389C52.0355 219.034 49.5331 216.973 47.6195 215.427L45.4115 213.661C45.1171 213.44 44.8227 213.219 44.5283 213.072Z" fill="#263238"/>
<path d="M41.9521 226.835C41.9521 226.909 47.3985 228.675 54.2433 230.662C61.0881 232.65 66.6081 234.195 66.6081 234.122C66.6081 234.048 61.1618 232.282 54.317 230.294C47.4722 228.307 42.0257 226.762 41.9521 226.835Z" fill="#263238"/>
<path d="M62.1924 221.389C62.4132 221.168 62.634 220.874 62.7812 220.579L64.2532 218.371C65.5044 216.531 67.1972 213.955 69.258 211.306C71.3188 208.656 73.306 206.227 74.778 204.608L76.5444 202.621C76.7652 202.4 76.986 202.179 77.1332 201.885C76.8388 202.106 76.618 202.326 76.3972 202.547C75.9556 202.989 75.2932 203.651 74.5572 204.461C73.0116 206.08 71.0244 208.435 68.9636 211.085C66.9028 213.734 65.21 216.384 64.0324 218.298C63.4436 219.254 63.002 220.064 62.7076 220.579C62.4868 220.8 62.3396 221.021 62.1924 221.389Z" fill="#263238"/>
<path d="M81.2544 229.043C81.6224 229.779 82.064 230.515 82.5792 231.178C83.3888 232.502 84.4928 234.269 85.6704 236.256C86.848 238.243 87.8048 240.157 88.4672 241.482C88.8352 242.218 89.2032 242.954 89.6448 243.69C89.424 242.88 89.1296 242.144 88.7616 241.408C88.1728 240.01 87.216 238.096 86.0384 236.109C84.8608 234.122 83.7568 232.282 82.8736 231.03C82.3584 230.294 81.8432 229.632 81.2544 229.043Z" fill="#263238"/>
<path d="M87.8052 252.963C87.8052 253.037 88.9092 252.522 90.602 251.712C92.2948 250.902 94.7236 249.946 97.3732 248.989C100.023 248.032 102.599 247.37 104.439 246.854C106.279 246.339 107.383 246.118 107.383 246.118C107.088 246.118 106.868 246.118 106.573 246.192C106.058 246.266 105.322 246.413 104.365 246.634C99.5812 247.664 94.8708 249.283 90.4548 251.491C89.5716 251.933 88.9092 252.301 88.4676 252.522C88.2468 252.595 88.026 252.742 87.8052 252.963Z" fill="#263238"/>
<path d="M82.6528 281.52C82.6528 281.52 82.8 281.594 83.0208 281.667L83.9776 281.888L87.6576 282.698C91.7056 283.507 95.68 284.611 99.5808 285.862C103.482 287.187 107.235 288.954 110.694 291.088C112.019 291.898 113.05 292.707 113.786 293.222C114.154 293.517 114.522 293.811 114.89 294.032C114.89 294.032 114.816 293.958 114.669 293.738C114.522 293.517 114.227 293.37 113.933 293.075C112.976 292.266 111.946 291.53 110.915 290.867C107.456 288.586 103.702 286.819 99.8016 285.494C95.9008 284.243 91.8528 283.213 87.8048 282.477L84.1248 281.741C83.6096 281.594 83.168 281.594 82.6528 281.52Z" fill="#263238"/>
<path d="M64.1059 288.586C64.2531 288.586 64.8419 284.758 65.5779 279.974C66.3139 275.19 66.7555 271.363 66.6083 271.29C66.4611 271.216 65.8723 275.117 65.1363 279.901C64.4003 284.685 64.0323 288.586 64.1059 288.586Z" fill="#263238"/>
<path d="M44.749 281.594C45.4114 280.931 45.9266 280.269 46.5154 279.533C47.5458 278.208 49.0178 276.442 50.637 274.454C52.2562 272.467 53.8018 270.774 54.9058 269.523C55.5682 268.861 56.157 268.198 56.6722 267.462C56.4514 267.61 56.3042 267.757 56.0834 267.904C55.7154 268.198 55.2738 268.714 54.685 269.302C53.5074 270.48 51.9618 272.246 50.3426 274.16C48.7234 276.074 47.2514 277.914 46.2946 279.312C45.7794 279.974 45.4114 280.563 45.117 280.931C45.0434 281.152 44.8962 281.373 44.749 281.594Z" fill="#263238"/>
<path d="M95.9008 299.478V309.046H93.5456L85.0816 335.837H66.24L57.9968 309.267L54.832 309.046V299.478H95.9008Z" fill="#CD5B45"/>
<g opacity="0.3">
<path d="M95.9008 299.478V309.046H93.5456L85.0816 335.837H66.24L57.9968 309.267L54.832 309.046V299.478H95.9008Z" fill="black"/>
</g>
<path d="M56.3779 309.267C56.3779 309.341 64.6947 309.488 74.9251 309.488C85.1555 309.488 93.4723 309.414 93.4723 309.267C93.4723 309.12 85.1555 309.046 74.9251 309.046C64.6947 309.046 56.3779 309.194 56.3779 309.267Z" fill="#263238"/>
<path d="M42.8354 247.885C43.2034 248.032 43.645 248.106 44.013 248.179L47.3251 248.989C50.1219 249.651 53.9491 250.755 58.0707 252.08C62.1923 253.405 65.8722 254.95 68.5219 256.054L71.6131 257.453C71.9811 257.674 72.3491 257.821 72.7907 257.894C72.4227 257.674 72.0547 257.453 71.6867 257.306C70.9507 256.938 69.9202 256.422 68.5954 255.834C65.2098 254.288 61.677 252.89 58.1442 251.712C54.6114 250.534 51.0051 249.504 47.3251 248.694C45.9267 248.4 44.749 248.179 44.013 248.032C43.7186 247.958 43.277 247.885 42.8354 247.885Z" fill="#263238"/>
<path d="M62.6338 324.208C62.6338 324.282 68.4482 324.429 75.661 324.429C82.8738 324.429 88.6882 324.355 88.6882 324.208C88.6882 324.061 82.8738 323.987 75.661 323.987C68.4482 323.987 62.6338 324.061 62.6338 324.208Z" fill="#FAFAFA"/>
<path d="M61.8979 321.926C61.8979 322 68.0804 322.147 75.7348 322.147C83.3891 322.147 89.5715 322.074 89.5715 321.926C89.5715 321.779 83.3891 321.706 75.7348 321.706C68.0804 321.706 61.8979 321.853 61.8979 321.926Z" fill="#FAFAFA"/>
<path d="M522.192 335.984C522.192 336.058 410.026 336.205 271.658 336.205C133.29 336.205 21.0498 336.131 21.0498 335.984C21.0498 335.837 133.29 335.763 271.658 335.763C410.026 335.763 522.192 335.837 522.192 335.984Z" fill="#263238"/>
<path d="M453.376 56.0096H256.128V178.186H422.243L432.474 201.811L441.6 178.186H453.376V56.0096Z" fill="#FAFAFA"/>
<path d="M453.376 56.0096C453.376 57.1872 453.45 103.114 453.523 178.186V178.333H441.6L441.747 178.259C438.877 185.693 435.859 193.642 432.621 201.885L432.474 202.253L432.327 201.885C429.088 194.451 425.629 186.502 422.023 178.259L422.17 178.333H272.026H255.981V178.112C255.981 134.614 255.981 93.2512 255.981 55.936V55.7888H256.128L453.376 56.0096L256.128 56.1568L256.275 56.0096C256.275 93.3248 256.275 134.614 256.275 178.186L256.055 177.965H271.952H422.096H422.243L422.317 178.038L432.621 201.664H432.327L441.453 178.038V177.965H453.376L453.229 178.112C453.376 103.114 453.376 57.1872 453.376 56.0096Z" fill="#263238"/>
<path d="M453.302 67.9328C453.302 68.08 409.216 68.2272 354.899 68.2272C300.582 68.2272 256.496 68.08 256.496 67.9328C256.496 67.7856 300.509 67.712 354.899 67.712C409.29 67.712 453.302 67.7856 453.302 67.9328Z" fill="#263238"/>
<path d="M266.653 62.56C266.653 63.4432 265.917 64.1792 265.034 64.1792C264.151 64.1792 263.415 63.4432 263.415 62.56C263.415 61.6768 264.151 60.9408 265.034 60.9408C265.917 60.9408 266.653 61.6768 266.653 62.56Z" fill="#263238"/>
<path d="M272.467 62.56C272.467 63.4432 271.731 64.1792 270.848 64.1792C269.965 64.1792 269.229 63.4432 269.229 62.56C269.229 61.6768 269.965 60.9408 270.848 60.9408C271.805 60.9408 272.467 61.6768 272.467 62.56Z" fill="#263238"/>
<path d="M278.356 62.56C278.356 63.4432 277.62 64.1792 276.736 64.1792C275.853 64.1792 275.117 63.4432 275.117 62.56C275.117 61.6768 275.853 60.9408 276.736 60.9408C277.62 60.9408 278.356 61.6768 278.356 62.56Z" fill="#263238"/>
<path d="M402.224 92.5152C402.224 92.6624 373.079 92.8096 337.088 92.8096C301.098 92.8096 271.952 92.6624 271.952 92.5152C271.952 92.368 301.098 92.2208 337.088 92.2208C373.079 92.2208 402.224 92.368 402.224 92.5152Z" fill="#455A64"/>
<path d="M423.494 92.8832C423.494 93.0304 420.698 93.1776 417.238 93.1776C413.779 93.1776 410.982 93.0304 410.982 92.8832C410.982 92.736 413.779 92.5888 417.238 92.5888C420.698 92.5888 423.494 92.736 423.494 92.8832Z" fill="#263238"/>
<path d="M441.747 92.8832C441.747 93.0304 438.656 93.1776 434.902 93.1776C431.149 93.1776 428.058 93.0304 428.058 92.8832C428.058 92.736 431.149 92.5888 434.902 92.5888C438.656 92.5888 441.747 92.736 441.747 92.8832Z" fill="#263238"/>
<path d="M354.899 103.482C354.899 103.629 336.352 103.776 313.536 103.776C290.72 103.776 272.173 103.629 272.173 103.482C272.173 103.334 290.72 103.187 313.536 103.187C336.352 103.187 354.899 103.334 354.899 103.482Z" fill="#455A64"/>
<path d="M354.31 144.403C354.31 144.55 335.763 144.698 312.947 144.698C290.131 144.698 271.584 144.55 271.584 144.403C271.584 144.256 290.131 144.109 312.947 144.109C335.763 144.109 354.31 144.33 354.31 144.403Z" fill="#455A64"/>
<path d="M385.002 103.482C385.002 103.629 379.997 103.776 373.741 103.776C367.485 103.776 362.48 103.629 362.48 103.482C362.48 103.334 367.558 103.187 373.741 103.187C379.923 103.187 385.002 103.334 385.002 103.482Z" fill="#263238"/>
<path d="M384.781 144.403C384.781 144.55 379.776 144.698 373.52 144.698C367.264 144.698 362.259 144.55 362.259 144.403C362.259 144.256 367.338 144.109 373.52 144.109C379.702 144.182 384.781 144.33 384.781 144.403Z" fill="#263238"/>
<path d="M277.546 109.075C277.546 109.222 276.295 109.37 274.749 109.37C273.203 109.37 271.952 109.222 271.952 109.075C271.952 108.928 273.203 108.781 274.749 108.781C276.295 108.781 277.546 108.928 277.546 109.075Z" fill="#CD5B45"/>
<path d="M296.829 109.222C296.829 109.37 294.106 109.517 290.794 109.517C287.482 109.517 284.759 109.37 284.759 109.222C284.759 109.075 287.482 108.928 290.794 108.928C294.106 108.928 296.829 109.075 296.829 109.222Z" fill="#263238"/>
<path d="M309.12 109.222C309.12 109.37 306.765 109.517 303.895 109.517C301.024 109.517 298.669 109.37 298.669 109.222C298.669 109.075 301.024 108.928 303.895 108.928C306.765 108.928 309.12 109.075 309.12 109.222Z" fill="#263238"/>
<path d="M324.723 109.222C324.723 109.37 322.368 109.517 319.424 109.517C316.48 109.517 314.125 109.37 314.125 109.222C314.125 109.075 316.48 108.928 319.424 108.928C322.368 108.928 324.723 109.075 324.723 109.222Z" fill="#263238"/>
<path d="M338.413 109.222C338.413 109.37 336.278 109.517 333.629 109.517C330.979 109.517 328.845 109.37 328.845 109.222C328.845 109.075 330.979 108.928 333.629 108.928C336.278 108.928 338.413 109.075 338.413 109.222Z" fill="#263238"/>
<path d="M383.677 109.222C383.677 109.37 374.182 109.517 362.48 109.517C350.778 109.517 341.283 109.37 341.283 109.222C341.283 109.075 350.778 108.928 362.48 108.928C374.182 108.928 383.677 109.075 383.677 109.222Z" fill="#263238"/>
<path d="M276.81 116.214C276.81 116.362 275.706 116.509 274.381 116.509C273.056 116.509 271.952 116.362 271.952 116.214C271.952 116.067 273.056 115.92 274.381 115.92C275.706 115.92 276.81 116.067 276.81 116.214Z" fill="#CD5B45"/>
<path d="M277.031 123.501C277.031 123.648 275.927 123.795 274.528 123.795C273.13 123.795 272.026 123.648 272.026 123.501C272.026 123.354 273.13 123.206 274.528 123.206C275.927 123.206 277.031 123.354 277.031 123.501Z" fill="#CD5B45"/>
<path d="M277.031 131.818C277.031 131.965 275.927 132.112 274.528 132.112C273.13 132.112 272.026 131.965 272.026 131.818C272.026 131.67 273.13 131.523 274.528 131.523C275.927 131.523 277.031 131.67 277.031 131.818Z" fill="#CD5B45"/>
<path d="M322.589 131.376C322.589 131.523 314.199 131.67 303.895 131.67C293.591 131.67 285.2 131.523 285.2 131.376C285.2 131.229 293.591 131.082 303.895 131.082C314.199 131.082 322.589 131.229 322.589 131.376Z" fill="#263238"/>
<path d="M319.35 123.501C319.35 123.648 311.402 123.795 301.539 123.795C291.677 123.795 283.728 123.648 283.728 123.501C283.728 123.354 291.677 123.206 301.539 123.206C311.402 123.206 319.35 123.354 319.35 123.501Z" fill="#263238"/>
<path d="M405.389 115.846C405.389 115.994 378.231 116.141 344.743 116.141C311.255 116.141 284.096 115.994 284.096 115.846C284.096 115.699 311.255 115.552 344.743 115.552C378.231 115.552 405.389 115.626 405.389 115.846Z" fill="#263238"/>
<path d="M465.52 105.984V209.76L449.402 223.229H465.52H467.139H533.821V105.984H465.52Z" fill="#FAFAFA"/>
<path d="M465.52 105.984C465.52 105.984 465.888 105.984 466.698 105.984H470.23H483.846L533.821 105.91H533.968V106.058C533.968 137.411 533.968 178.333 534.042 223.302V223.523H522.045H449.475H448.96L449.328 223.229L465.446 209.76L465.373 209.907C465.373 178.848 465.446 152.941 465.446 134.688C465.446 125.562 465.446 118.422 465.52 113.565C465.52 111.136 465.52 109.296 465.52 107.971C465.52 107.382 465.52 106.867 465.52 106.573C465.52 106.278 465.52 106.131 465.52 106.131C465.52 106.131 465.52 106.278 465.52 106.646C465.52 107.014 465.52 107.456 465.52 108.118C465.52 109.37 465.52 111.283 465.52 113.712C465.52 118.57 465.52 125.782 465.594 134.909C465.594 153.088 465.667 179.069 465.667 210.054V210.128L465.594 210.202L449.475 223.67L449.328 223.376H521.898H533.747L533.526 223.597C533.526 178.554 533.526 137.632 533.6 106.352L533.747 106.499L483.846 106.426L470.304 105.984H466.771H465.52Z" fill="#263238"/>
<path d="M471.703 111.136C471.703 111.872 471.114 112.534 470.304 112.534C469.568 112.534 468.906 111.946 468.906 111.136C468.906 110.4 469.495 109.738 470.304 109.738C471.114 109.738 471.703 110.4 471.703 111.136Z" fill="#263238"/>
<path d="M476.707 111.136C476.707 111.872 476.119 112.534 475.309 112.534C474.573 112.534 473.911 111.946 473.911 111.136C473.911 110.4 474.499 109.738 475.309 109.738C476.119 109.738 476.707 110.4 476.707 111.136Z" fill="#263238"/>
<path d="M481.712 111.136C481.712 111.872 481.124 112.534 480.314 112.534C479.578 112.534 478.916 111.946 478.916 111.136C478.916 110.4 479.504 109.738 480.314 109.738C481.124 109.738 481.712 110.4 481.712 111.136Z" fill="#263238"/>
<path d="M515.053 143.152C515.053 143.299 506.368 143.373 495.696 143.373C485.024 143.373 476.339 143.299 476.339 143.152C476.339 143.005 485.024 142.931 495.696 142.931C506.368 142.931 515.053 143.005 515.053 143.152Z" fill="#CD5B45"/>
<path d="M523.075 152.499C523.075 152.646 512.55 152.72 499.523 152.72C486.496 152.72 475.971 152.646 475.971 152.499C475.971 152.352 486.496 152.278 499.523 152.278C512.55 152.278 523.075 152.426 523.075 152.499Z" fill="#CD5B45"/>
<path d="M524.989 187.533C524.989 187.68 513.728 187.754 499.892 187.754C486.055 187.754 474.794 187.68 474.794 187.533C474.794 187.386 486.055 187.312 499.892 187.312C513.728 187.312 524.989 187.459 524.989 187.533Z" fill="#CD5B45"/>
<path d="M480.019 157.283C478.474 157.578 476.855 157.578 475.235 157.283C476.781 156.989 478.4 156.989 480.019 157.283Z" fill="#CD5B45"/>
<path d="M496.432 157.43C496.432 157.578 494.077 157.651 491.28 157.651C488.483 157.651 486.128 157.578 486.128 157.43C489.587 157.136 493.12 157.136 496.432 157.43Z" fill="#CD5B45"/>
<path d="M507.031 157.43C507.031 157.578 505.044 157.651 502.615 157.651C500.186 157.651 498.199 157.578 498.199 157.43C501.069 157.062 504.087 157.062 507.031 157.43Z" fill="#CD5B45"/>
<path d="M479.357 163.392C478.032 163.686 476.56 163.686 475.235 163.392C476.56 163.098 477.959 163.098 479.357 163.392Z" fill="#CD5B45"/>
<path d="M479.504 169.648C478.106 169.942 476.634 169.942 475.235 169.648C476.634 169.354 478.106 169.354 479.504 169.648Z" fill="#CD5B45"/>
<path d="M479.504 176.714C478.106 177.008 476.634 177.008 475.235 176.714C476.634 176.419 478.106 176.419 479.504 176.714Z" fill="#CD5B45"/>
<path d="M518.512 176.419C518.512 176.566 511.373 176.64 502.541 176.64C493.709 176.64 486.57 176.566 486.57 176.419C486.57 176.272 493.709 176.198 502.541 176.198C511.373 176.198 518.512 176.272 518.512 176.419Z" fill="#CD5B45"/>
<path d="M515.716 169.648C515.716 169.795 508.871 169.869 500.48 169.869C492.09 169.869 485.245 169.795 485.245 169.648C485.245 169.501 492.09 169.427 500.48 169.427C508.871 169.427 515.716 169.501 515.716 169.648Z" fill="#CD5B45"/>
<path d="M482.595 196.88C481.197 197.174 479.725 197.174 478.327 196.88C479.725 196.586 481.197 196.586 482.595 196.88Z" fill="#CD5B45"/>
<path d="M482.595 204.019C481.197 204.314 479.725 204.314 478.327 204.019C479.725 203.725 481.197 203.725 482.595 204.019Z" fill="#CD5B45"/>
<path d="M521.677 203.651C521.677 203.798 514.538 203.872 505.706 203.872C496.874 203.872 489.734 203.798 489.734 203.651C489.734 203.504 496.874 203.43 505.706 203.43C514.538 203.43 521.677 203.504 521.677 203.651Z" fill="#CD5B45"/>
<path d="M518.88 196.88C518.88 197.027 512.035 197.101 503.645 197.101C495.254 197.101 488.41 197.027 488.41 196.88C488.41 196.733 495.254 196.659 503.645 196.659C512.035 196.659 518.88 196.806 518.88 196.88Z" fill="#CD5B45"/>
<path d="M527.05 163.098C527.05 163.245 517.776 163.318 506.295 163.318C494.813 163.318 485.54 163.245 485.54 163.098C485.54 162.95 494.813 162.877 506.295 162.877C517.776 162.877 527.05 162.95 527.05 163.098Z" fill="#CD5B45"/>
<path d="M533.159 116.582C533.159 116.73 518.144 116.803 499.671 116.803C481.197 116.803 466.183 116.73 466.183 116.582C466.183 116.435 481.197 116.362 499.671 116.362C518.144 116.362 533.159 116.435 533.159 116.582Z" fill="#263238"/>
<path d="M490.471 137.485C485.76 137.779 481.05 137.779 476.339 137.485C476.339 137.338 479.504 137.264 483.405 137.264C487.306 137.264 490.471 137.338 490.471 137.485Z" fill="#CD5B45"/>
<path d="M482.448 124.678C482.448 124.826 480.976 124.899 479.136 124.899C477.296 124.899 475.824 124.826 475.824 124.678C478.032 124.384 480.24 124.384 482.448 124.678Z" fill="#CD5B45"/>
<path d="M423.421 275.853L438.214 261.206L411.792 215.942C409.069 212.778 405.536 210.349 401.635 208.877L392.288 205.344L369.104 201.075L352.691 207.552C348.57 209.171 345.993 213.44 346.509 217.856L350.777 254.067L353.28 301.171L412.969 290.794L406.934 273.35L407.155 246.192L423.421 275.853Z" fill="#5242A1"/>
<path d="M407.67 272.173C407.817 272.173 407.817 262.752 407.744 251.123C407.67 239.494 407.449 230.074 407.302 230.074C407.155 230.074 407.155 239.494 407.229 251.123C407.302 262.752 407.523 272.173 407.67 272.173Z" fill="#263238"/>
<path d="M405.462 279.091L369.398 264.592C366.454 263.414 364.467 260.691 364.246 257.6L361.597 223.008C361.597 223.008 361.891 208.288 352.691 207.552L347.465 209.613C340.694 213.219 339.001 223.082 339.958 230.662C341.283 241.482 341.798 256.717 343.27 266.064C344.448 273.718 349.085 279.754 356.371 282.403L400.825 292.045L405.462 279.091Z" fill="#5242A1"/>
<path d="M362.112 228.234C362.185 228.528 362.185 228.749 362.185 229.043C362.259 229.632 362.332 230.368 362.406 231.325C362.553 233.386 362.848 236.182 363.142 239.715C363.436 243.248 363.804 247.517 364.246 252.154C364.32 253.331 364.467 254.509 364.54 255.76C364.614 257.011 364.761 258.189 364.982 259.44C365.203 260.691 365.865 261.795 366.748 262.678C367.705 263.562 368.883 264.224 370.06 264.739C379.996 269.082 389.196 272.614 395.82 275.117L403.696 278.061L405.83 278.87C406.051 278.944 406.345 279.018 406.566 279.165C406.345 279.091 406.051 279.018 405.83 278.944L403.622 278.208C401.709 277.546 398.985 276.662 395.673 275.411C388.976 272.982 379.776 269.523 369.84 265.181C368.588 264.666 367.411 263.93 366.38 263.046C365.424 262.09 364.761 260.912 364.467 259.587C364.246 258.336 364.099 257.085 364.025 255.834C363.952 254.582 363.804 253.405 363.731 252.227C363.363 247.517 363.068 243.322 362.774 239.789C362.48 236.256 362.332 233.459 362.185 231.398C362.112 230.442 362.112 229.706 362.038 229.117C362.112 228.749 362.112 228.454 362.112 228.234Z" fill="#263238"/>
<path d="M341.504 247.002C341.578 247.149 341.578 247.296 341.578 247.443C341.578 247.811 341.651 248.253 341.725 248.768C341.798 250.019 342.019 251.638 342.166 253.699C342.313 255.76 342.608 258.262 342.976 260.986C343.344 263.93 343.859 266.874 344.595 269.744C344.963 271.216 345.552 272.614 346.362 273.939C347.171 275.117 348.054 276.221 349.085 277.251C350.777 279.018 352.691 280.49 354.899 281.594C356.886 282.624 359.021 283.286 361.229 283.654C361.081 283.654 360.934 283.654 360.787 283.654C360.346 283.654 359.904 283.581 359.462 283.507C357.843 283.213 356.224 282.624 354.752 281.888C352.544 280.784 350.557 279.312 348.79 277.546C347.76 276.515 346.803 275.411 345.994 274.16C345.11 272.835 344.522 271.363 344.154 269.818C343.418 266.947 342.902 263.93 342.534 260.986C342.166 258.262 341.945 255.76 341.798 253.699C341.651 251.638 341.578 249.946 341.504 248.768C341.504 248.253 341.504 247.811 341.504 247.443C341.43 247.37 341.504 247.222 341.504 247.002Z" fill="#263238"/>
<path d="M356.886 271.216C356.96 270.554 357.181 269.891 357.549 269.302C359.021 266.285 361.67 264.077 364.835 263.046C365.497 262.826 366.16 262.678 366.822 262.678C366.822 262.752 366.086 262.899 364.909 263.341C363.437 263.93 362.038 264.739 360.787 265.77C359.609 266.8 358.579 268.051 357.769 269.45C357.254 270.554 356.96 271.29 356.886 271.216Z" fill="#263238"/>
<g opacity="0.3">
<path d="M395.085 274.97C391.258 272.762 387.43 271.142 383.456 269.302C379.482 267.462 375.434 265.107 372.858 261.574C367.853 254.877 368.442 245.162 363.363 238.538L364.394 251.859C364.688 255.907 364.099 259.955 366.675 262.752C368.883 265.107 373.226 266.874 376.243 267.904C382.352 269.965 388.976 272.982 395.085 274.97Z" fill="black"/>
</g>
<path opacity="0.3" d="M407.376 232.723L410.467 251.933L407.523 246.486L407.376 232.723Z" fill="black"/>
<path d="M361.082 220.8C360.787 220.874 360.493 220.874 360.272 220.874L357.99 220.947C356.077 221.021 353.427 221.094 350.483 221.315C347.539 221.536 344.963 221.83 343.05 222.051L340.768 222.346C340.474 222.419 340.179 222.419 339.958 222.419C340.253 222.346 340.474 222.272 340.768 222.198C341.283 222.125 342.093 221.978 342.976 221.83C344.89 221.536 347.539 221.242 350.483 221.021C353.427 220.8 356.077 220.726 357.99 220.8C358.947 220.8 359.757 220.8 360.272 220.874C360.493 220.726 360.787 220.726 361.082 220.8Z" fill="#A091ED"/>
<path d="M362.112 239.274C362.112 239.347 357.401 239.862 351.513 240.304C345.625 240.746 340.915 241.114 340.915 240.966C340.915 240.819 345.625 240.378 351.513 239.862C357.401 239.347 362.112 239.126 362.112 239.274Z" fill="#A091ED"/>
<path d="M363.805 258.63C363.584 258.778 363.363 258.925 363.069 259.072C362.554 259.366 361.891 259.661 360.934 260.029C356.15 262.016 351.072 263.194 345.92 263.414C344.89 263.488 344.154 263.488 343.565 263.414C343.27 263.414 342.976 263.414 342.682 263.341C342.976 263.267 343.27 263.267 343.565 263.267C344.154 263.267 344.89 263.194 345.92 263.12C348.496 262.973 350.998 262.605 353.501 262.016C356.003 261.427 358.432 260.691 360.861 259.808C361.744 259.44 362.554 259.146 363.069 258.925C363.29 258.778 363.584 258.704 363.805 258.63Z" fill="#A091ED"/>
<path d="M376.684 268.566C375.36 269.376 374.182 270.333 373.078 271.437C372.121 272.614 371.238 273.939 370.576 275.264C370.649 274.822 370.723 274.381 370.944 273.939C371.827 271.878 373.372 270.186 375.36 269.082C375.801 268.787 376.169 268.64 376.684 268.566Z" fill="#A091ED"/>
<path d="M389.712 281.299C390.301 278.65 391.626 276.147 393.539 274.234C393.613 274.307 392.509 275.706 391.405 277.619C390.301 279.533 389.786 281.299 389.712 281.299Z" fill="#A091ED"/>
<path d="M369.104 209.981C367.411 210.496 365.718 210.864 364.026 211.085C362.333 211.453 360.64 211.674 358.874 211.821C360.566 211.306 362.259 210.938 363.952 210.717C365.718 210.349 367.411 210.128 369.104 209.981Z" fill="#A091ED"/>
<path d="M403.696 211.526C401.341 211.453 398.985 211.232 396.63 210.864C394.275 210.643 391.92 210.275 389.638 209.834C391.993 209.907 394.349 210.128 396.704 210.496C398.985 210.717 401.341 211.085 403.696 211.526Z" fill="#A091ED"/>
<path d="M406.64 227.645C406.493 227.645 406.346 227.645 406.198 227.645H404.874H400.09C396.042 227.645 390.522 227.645 384.413 227.792C378.304 227.939 372.71 228.234 368.736 228.454L363.952 228.675L362.627 228.749C362.48 228.749 362.333 228.749 362.186 228.749C362.333 228.749 362.48 228.675 362.627 228.675L363.952 228.528C365.056 228.454 366.675 228.307 368.736 228.16C372.784 227.866 378.304 227.571 384.413 227.424C390.522 227.277 396.115 227.277 400.09 227.35C402.077 227.35 403.696 227.424 404.874 227.498L406.198 227.571C406.346 227.571 406.493 227.571 406.64 227.645Z" fill="#A091ED"/>
<path d="M407.082 247.958C407.082 248.032 397.661 248.768 385.959 249.504C374.256 250.24 364.762 250.829 364.762 250.682C364.762 250.534 374.256 249.872 385.885 249.136C397.587 248.4 407.008 247.885 407.082 247.958Z" fill="#A091ED"/>
<path d="M406.051 265.917C405.83 266.064 405.536 266.138 405.241 266.285C404.726 266.506 403.99 266.726 403.033 267.021C401.12 267.61 398.47 268.419 395.526 269.155C392.582 269.891 389.859 270.406 387.945 270.701C386.989 270.848 386.179 270.995 385.59 271.069C385.296 271.142 385.001 271.142 384.707 271.142C385.001 271.069 385.296 270.995 385.59 270.922L387.872 270.48C389.859 270.112 392.509 269.523 395.453 268.861C398.397 268.198 401.046 267.389 402.96 266.874L405.241 266.211C405.462 265.99 405.757 265.917 406.051 265.917Z" fill="#A091ED"/>
<path d="M421.213 233.386C418.931 234.195 416.65 234.858 414.368 235.373C412.086 236.035 409.731 236.55 407.376 236.992C409.658 236.182 411.939 235.52 414.221 235.005C416.502 234.342 418.858 233.827 421.213 233.386Z" fill="#A091ED"/>
<path d="M414 219.622C413.043 219.99 412.013 220.211 410.982 220.358C409.952 220.579 408.922 220.726 407.891 220.726C408.848 220.358 409.878 220.138 410.909 219.99C411.865 219.77 412.896 219.622 414 219.622Z" fill="#A091ED"/>
<path d="M362.259 223.891C362.185 223.891 362.038 222.64 361.376 220.8C359.609 215.869 355.488 212.189 350.409 210.938C348.496 210.496 347.245 210.496 347.245 210.422C347.539 210.349 347.833 210.349 348.128 210.422C348.937 210.422 349.673 210.57 350.483 210.717C355.709 211.821 359.977 215.648 361.597 220.726C361.817 221.462 362.038 222.272 362.112 223.008C362.259 223.302 362.259 223.597 362.259 223.891Z" fill="#263238"/>
<path d="M405.241 214.102C405.83 216.31 406.198 218.592 406.492 220.8C406.934 223.082 407.228 225.29 407.376 227.571C406.86 225.363 406.419 223.082 406.124 220.874C405.683 218.666 405.388 216.384 405.241 214.102Z" fill="#263238"/>
<path d="M445.427 322.589C445.427 322.589 473.174 330.243 474.278 330.685C475.971 331.274 475.677 337.382 473.101 337.309C471.85 337.235 451.83 338.045 449.254 337.898C446.678 337.75 439.098 334.733 439.098 334.733L445.427 322.589Z" fill="#CD5B45"/>
<path d="M456.982 333.187C457.129 333.187 457.276 331.715 458.233 330.243C459.19 328.771 460.294 327.814 460.22 327.667C460.147 327.52 458.822 328.33 457.865 329.949C456.908 331.568 456.909 333.187 456.982 333.187Z" fill="#263238"/>
<path d="M454.112 331.862C454.259 331.862 454.553 330.538 455.289 329.139C456.025 327.741 456.909 326.71 456.761 326.563C455.878 327.152 455.216 327.962 454.848 328.918C454.112 330.464 453.965 331.862 454.112 331.862Z" fill="#263238"/>
<path d="M451.389 331.126C451.536 331.126 451.389 329.728 452.051 328.182C452.713 326.637 453.67 325.68 453.597 325.606C453.523 325.533 452.272 326.342 451.683 328.035C451.094 329.728 451.315 331.2 451.389 331.126Z" fill="#263238"/>
<path d="M451.904 327.52C452.125 326.858 452.272 326.122 452.198 325.459C452.198 324.723 452.125 323.914 451.904 323.178C451.83 322.736 451.683 322.294 451.462 321.853C451.389 321.558 451.241 321.338 451.021 321.19C450.726 320.97 450.358 320.97 450.064 321.264C449.843 321.485 449.696 321.779 449.696 322.074C449.696 322.294 449.696 322.589 449.696 322.81C449.696 323.251 449.769 323.693 449.843 324.208C450.064 324.944 450.285 325.68 450.726 326.342C451.021 327.005 451.462 327.52 451.977 328.035C452.051 327.962 451.609 327.373 451.021 326.195C450.726 325.533 450.432 324.87 450.285 324.134C450.211 323.693 450.137 323.325 450.137 322.883C450.137 322.442 450.137 321.926 450.358 321.706C450.432 321.632 450.653 321.632 450.726 321.706C450.873 321.853 450.947 322 451.021 322.221C451.168 322.589 451.315 323.03 451.462 323.472C451.683 324.208 451.757 324.87 451.83 325.606C451.977 326.784 451.83 327.52 451.904 327.52Z" fill="#263238"/>
<path d="M451.904 327.226C451.315 327.005 450.726 326.858 450.137 326.931C449.475 326.931 448.812 327.005 448.15 327.152C447.782 327.226 447.34 327.373 447.046 327.594C446.604 327.814 446.31 328.33 446.457 328.845C446.604 329.36 446.972 329.728 447.488 329.802C447.929 329.875 448.297 329.875 448.739 329.802C449.401 329.654 449.99 329.36 450.505 328.918C451.02 328.55 451.462 328.109 451.83 327.667C451.315 327.962 450.8 328.33 450.358 328.698C449.843 329.066 449.254 329.286 448.665 329.434C448.297 329.507 448.003 329.507 447.635 329.434C447.34 329.36 447.046 329.066 446.972 328.771C446.899 328.477 447.12 328.109 447.414 327.962C447.708 327.814 448.076 327.667 448.444 327.594C449.033 327.446 449.696 327.299 450.284 327.299C451.168 327.226 451.83 327.373 451.904 327.226Z" fill="#263238"/>
<path d="M461.251 333.482C461.398 333.482 461.251 332.304 461.766 330.979C462.281 329.654 463.238 328.918 463.091 328.771C462.944 328.624 461.913 329.286 461.325 330.758C460.736 332.23 461.177 333.482 461.251 333.482Z" fill="#263238"/>
<path d="M441.895 334.733C442.263 334.954 442.557 335.101 442.999 335.248C444.029 335.616 445.059 335.984 446.09 336.205C449.549 336.941 453.082 337.309 456.688 337.235C460.883 337.162 464.563 337.014 467.287 336.867L470.525 336.72C470.893 336.72 471.335 336.646 471.703 336.573C471.335 336.499 470.893 336.499 470.525 336.499H467.287L456.688 336.72C453.155 336.794 449.623 336.499 446.163 335.837C443.514 335.322 441.968 334.659 441.895 334.733Z" fill="#263238"/>
<path d="M441.084 335.395C441.084 335.469 441.894 335.027 443.145 334.438C444.764 333.629 446.604 333.334 448.371 333.555C450.137 333.923 451.756 334.88 452.934 336.278C453.449 336.867 453.964 337.382 454.553 337.898C454.185 337.235 453.744 336.573 453.228 336.058C452.713 335.395 452.051 334.806 451.388 334.365C450.505 333.702 449.548 333.334 448.518 333.187C446.678 332.966 444.764 333.334 443.072 334.218C442.336 334.438 441.673 334.88 441.084 335.395Z" fill="#263238"/>
<path d="M412.675 316.112C412.675 316.112 386.4 333.261 385.517 333.997C384.118 335.101 385.738 340.179 388.166 339.296C389.344 338.854 411.35 332.746 413.706 331.862C416.061 330.979 422.464 325.754 422.464 325.754L412.675 316.112Z" fill="#CD5B45"/>
<path d="M404.873 329.728C405.021 329.728 404.505 328.182 403.107 326.931C401.709 325.68 400.163 325.312 400.163 325.459C400.163 325.606 401.488 326.122 402.813 327.299C404.137 328.477 404.726 329.802 404.873 329.728Z" fill="#263238"/>
<path d="M407.229 327.594C407.376 327.594 406.861 326.195 405.61 325.018C404.358 323.84 403.107 323.251 403.034 323.398C402.96 323.546 404.138 324.208 405.242 325.386C406.346 326.563 407.082 327.667 407.229 327.594Z" fill="#263238"/>
<path d="M409.584 326.048C409.731 326.048 409.584 324.576 408.406 323.178C407.228 321.779 405.83 321.338 405.83 321.485C405.83 321.632 407.008 322.221 408.038 323.472C409.068 324.723 409.436 326.122 409.584 326.048Z" fill="#263238"/>
<path d="M408.038 322.81C408.112 322.81 407.744 322.074 407.449 320.822C407.302 320.086 407.155 319.35 407.155 318.614C407.155 318.173 407.155 317.731 407.155 317.29C407.155 317.069 407.229 316.922 407.302 316.701C407.376 316.554 407.523 316.554 407.67 316.627C407.965 316.774 408.112 317.29 408.259 317.658C408.406 318.026 408.48 318.467 408.48 318.909C408.553 319.645 408.553 320.381 408.406 321.117C408.259 322.368 407.965 323.104 408.038 323.178C408.406 322.589 408.627 321.926 408.701 321.19C408.848 320.454 408.921 319.645 408.848 318.909C408.848 318.467 408.701 318.026 408.627 317.584C408.553 317.363 408.48 317.142 408.406 316.922C408.259 316.627 408.112 316.406 407.817 316.259C407.523 316.112 407.081 316.186 406.934 316.48C406.787 316.701 406.713 316.995 406.713 317.29C406.713 317.731 406.713 318.173 406.713 318.614C406.787 319.35 406.934 320.086 407.155 320.822C407.229 321.632 407.523 322.294 408.038 322.81Z" fill="#263238"/>
<path d="M407.965 322.515C407.965 322.589 408.627 322.294 409.658 322C410.246 321.853 410.909 321.779 411.498 321.706C411.866 321.706 412.234 321.706 412.602 321.779C412.896 321.853 413.19 322.074 413.19 322.368C413.19 322.736 413.043 323.03 412.749 323.178C412.454 323.325 412.086 323.472 411.792 323.472C411.203 323.546 410.541 323.472 409.952 323.325C409.363 323.104 408.848 322.957 408.259 322.81C408.774 323.178 409.29 323.472 409.878 323.619C410.541 323.84 411.203 323.987 411.866 323.914C412.307 323.914 412.675 323.766 413.043 323.546C413.485 323.251 413.706 322.81 413.706 322.294C413.632 321.779 413.264 321.338 412.749 321.264C412.381 321.19 411.939 321.19 411.571 321.19C410.909 321.264 410.246 321.338 409.584 321.558C408.995 321.853 408.406 322.147 407.965 322.515Z" fill="#263238"/>
<path d="M391.478 338.339C391.478 338.413 391.92 338.045 392.141 337.309C392.361 336.352 392.141 335.322 391.625 334.438C391.331 333.997 391.037 333.555 390.742 333.114C390.521 332.746 390.227 332.451 389.859 332.157C389.638 331.936 389.344 331.862 389.049 331.789C388.829 331.789 388.681 331.862 388.755 331.862C389.123 331.936 389.417 332.157 389.712 332.378C390.006 332.672 390.227 332.966 390.448 333.334C390.742 333.776 391.037 334.144 391.257 334.586C391.699 335.322 391.92 336.278 391.846 337.162C391.699 337.603 391.552 337.971 391.478 338.339Z" fill="#263238"/>
<path d="M400.899 331.274C401.046 331.274 400.973 329.949 400.016 328.771C399.059 327.594 397.734 327.299 397.734 327.446C397.734 327.594 398.765 328.035 399.722 329.066C400.678 330.096 400.752 331.347 400.899 331.274Z" fill="#263238"/>
<path d="M419.667 326.637C419.226 326.858 418.858 327.152 418.49 327.446C417.459 328.182 416.355 328.845 415.251 329.434C413.558 330.317 411.866 331.053 410.099 331.715C408.112 332.451 405.904 333.187 403.549 333.85C398.838 335.248 394.57 336.426 391.478 337.382L387.798 338.486C387.357 338.634 386.915 338.781 386.474 338.928C386.915 338.854 387.43 338.781 387.872 338.634L391.552 337.677C394.643 336.867 398.912 335.616 403.696 334.291C406.051 333.629 408.259 332.893 410.32 332.083C412.086 331.421 413.779 330.611 415.472 329.654C416.576 328.992 417.68 328.33 418.637 327.52C419.005 327.299 419.373 327.005 419.667 326.637Z" fill="#263238"/>
<path d="M420.697 327.005C419.961 326.71 419.225 326.49 418.489 326.416C416.649 326.048 414.736 326.269 412.969 327.078C412.013 327.594 411.203 328.256 410.614 329.139C410.099 329.802 409.731 330.538 409.363 331.347C408.995 332.083 408.774 332.819 408.627 333.555C408.995 332.893 409.363 332.23 409.657 331.494C410.246 330.243 411.277 328.477 413.19 327.52C414.809 326.784 416.649 326.563 418.489 326.784C419.814 326.858 420.624 327.078 420.697 327.005Z" fill="#263238"/>
<path d="M467.213 273.203C467.213 273.203 475.088 276 475.088 284.832C475.162 301.76 440.938 320.381 440.938 320.381L395.379 290.205L392.509 289.027C392.509 289.027 454.038 265.917 467.213 273.203Z" fill="#263238"/>
<path d="M418.416 305.44C418.858 305.219 419.226 304.925 419.594 304.63C420.33 304.115 421.434 303.306 422.685 302.275C425.261 300.288 428.867 297.418 432.621 294.106C436.374 290.794 439.834 287.776 442.189 285.494C443.366 284.39 444.323 283.434 444.986 282.771C445.354 282.477 445.648 282.109 445.942 281.741C445.574 282.035 445.206 282.33 444.838 282.624L441.968 285.2C439.539 287.408 436.154 290.426 432.326 293.738C428.499 297.05 425.04 299.92 422.464 301.981L419.446 304.41C419.152 304.778 418.784 305.072 418.416 305.44Z" fill="#455A64"/>
<path d="M454.333 279.459C452.861 279.238 451.315 279.386 449.917 279.827C447.562 280.49 445.942 281.814 446.016 281.888C446.09 281.962 447.782 280.931 450.064 280.269C452.346 279.606 454.333 279.606 454.333 279.459Z" fill="#455A64"/>
<path d="M450.432 276.81C449.328 277.178 448.371 277.914 447.708 278.87C446.457 280.342 446.163 281.888 446.31 281.962C446.457 282.035 446.972 280.563 448.076 279.165C449.18 277.766 450.505 276.957 450.432 276.81Z" fill="#455A64"/>
<path d="M469.715 330.39C469.715 330.317 469.2 330.243 468.537 330.758C467.801 331.421 467.36 332.378 467.212 333.408C467.065 334.438 467.212 335.469 467.654 336.352C467.948 337.014 468.316 337.382 468.39 337.309C468.464 337.235 468.243 336.867 467.948 336.205C467.654 335.322 467.58 334.365 467.728 333.482C467.801 332.598 468.169 331.715 468.832 330.979C469.2 330.464 469.715 330.464 469.715 330.39Z" fill="#263238"/>
<path d="M463.901 249.136L450.947 284.096C450.211 286.083 448.298 287.408 446.163 287.408L374.845 286.451V281.005L401.341 281.962L412.602 247.149C412.97 245.971 414.074 245.162 415.325 245.162L461.325 245.309C462.87 245.309 464.122 246.634 464.122 248.179C464.122 248.547 464.048 248.842 463.901 249.136Z" fill="#E0E0E0"/>
<path d="M463.9 249.136C463.9 249.136 463.9 249.136 463.9 249.062C463.974 248.989 463.974 248.842 463.974 248.768C464.048 248.326 464.048 247.885 463.974 247.443C463.68 246.266 462.649 245.456 461.398 245.382C460.883 245.382 460.368 245.382 459.779 245.382H440.569H427.1H419.52H415.545C414.883 245.309 414.22 245.456 413.632 245.824C413.043 246.192 412.675 246.707 412.454 247.37L401.267 282.182V282.256H401.193L374.697 281.299L374.844 281.152V286.598L374.771 286.525L419.593 287.114L439.097 287.408L443.587 287.482H445.795C446.531 287.555 447.193 287.408 447.856 287.187C449.18 286.746 450.211 285.715 450.726 284.464C451.168 283.213 451.683 281.962 452.124 280.784C455.731 271.069 458.675 263.267 460.662 257.821C461.692 255.098 462.428 253.037 463.017 251.565C463.606 250.093 463.974 249.21 463.9 249.136C463.9 249.21 463.68 249.946 463.164 251.418L460.883 257.6C458.896 263.046 455.952 270.848 452.419 280.563L451.02 284.317C450.505 285.642 449.401 286.672 448.076 287.187C447.414 287.408 446.678 287.555 445.942 287.482H443.734L439.244 287.408L419.74 287.187L374.844 286.598H374.771V280.931H374.918L401.414 281.888L401.267 281.962L412.528 247.222C412.748 246.56 413.19 245.971 413.779 245.603C414.368 245.235 415.104 245.088 415.766 245.162H419.74H427.321L440.79 245.235L460 245.309C460.588 245.309 461.104 245.309 461.619 245.309C462.87 245.382 463.9 246.266 464.195 247.443C464.268 247.885 464.268 248.326 464.195 248.768C464.048 248.915 463.974 248.989 463.9 249.136Z" fill="#263238"/>
<path d="M432.326 262.384C433.43 261.795 434.829 261.942 435.785 262.752C436.595 263.562 436.889 264.739 436.448 265.843C436.006 266.874 434.976 267.61 433.872 267.683C432.621 267.757 431.517 267.021 431.149 265.843C430.781 264.666 431.075 262.973 432.326 262.384Z" fill="white"/>
<path d="M448.592 322.294C448.592 322.294 384.339 281.152 381.469 279.533C379.04 278.134 372.563 274.16 366.233 275.926C359.904 277.693 354.163 283.434 351.293 291.75C349.673 296.534 348.864 304.63 348.496 310.739C347.981 318.026 350.409 325.238 355.12 330.832C357.181 333.408 359.977 335.395 363.142 336.499C363.805 336.72 364.541 336.867 365.203 337.014C377.347 339.664 389.859 334.218 396.704 323.766L398.176 321.485C398.176 321.485 440.275 336.941 440.937 336.72L448.592 322.294Z" fill="#263238"/>
<path d="M384.781 281.741C384.781 281.741 384.707 281.741 384.634 281.667L384.192 281.373C383.824 281.078 383.235 280.71 382.426 280.195C380.291 278.797 378.01 277.619 375.581 276.736C373.962 276.147 372.195 275.779 370.429 275.632C368.442 275.558 366.381 275.853 364.541 276.589C362.48 277.398 360.566 278.576 358.874 280.048C357.99 280.784 357.107 281.667 356.371 282.55C355.562 283.434 354.899 284.464 354.31 285.494C353.133 287.555 352.176 289.837 351.514 292.118C350.925 294.326 350.41 296.608 349.968 298.669C349.085 302.349 348.643 306.176 348.496 309.93C348.422 312.506 348.643 315.082 349.085 317.584C349.232 318.467 349.379 319.13 349.453 319.645L349.526 320.16C349.526 320.234 349.526 320.307 349.526 320.307C349.526 320.234 349.453 320.16 349.453 320.16C349.453 320.013 349.379 319.866 349.306 319.645C349.158 319.203 349.011 318.541 348.864 317.584C348.349 315.082 348.128 312.506 348.128 309.93C348.202 306.102 348.717 302.349 349.526 298.595C349.968 296.461 350.483 294.253 351.072 292.045C351.734 289.69 352.691 287.482 353.869 285.347C354.458 284.243 355.194 283.286 356.003 282.33C356.813 281.446 357.622 280.563 358.579 279.827C360.272 278.355 362.259 277.178 364.394 276.368C366.307 275.632 368.368 275.338 370.429 275.411C372.195 275.558 373.962 275.926 375.654 276.589C378.083 277.546 380.365 278.723 382.499 280.195C383.235 280.71 383.824 281.152 384.192 281.446L384.634 281.814C384.707 281.667 384.781 281.667 384.781 281.741Z" fill="#455A64"/>
<path d="M369.03 310.666C369.177 310.739 369.251 310.813 369.398 310.813L370.429 311.254L374.477 312.874L389.638 318.614C396.115 321.043 403.769 323.84 412.454 327.005C421.139 330.17 430.707 333.629 440.937 337.088L441.158 337.162L441.232 337.014C442.851 333.923 444.544 330.685 446.237 327.446L448.813 322.515L448.886 322.294L448.739 322.221L399.648 290.867L384.928 281.594L380.953 279.091L379.923 278.429C379.776 278.355 379.702 278.282 379.555 278.208C379.555 278.208 379.702 278.282 379.923 278.429L380.953 279.091L384.928 281.667L399.574 291.088L448.592 322.368L448.518 322.074C447.709 323.619 446.825 325.312 445.942 326.931L440.937 336.499L441.232 336.352C431.001 332.893 421.36 329.434 412.749 326.342L389.933 318.026L374.697 312.432L370.576 310.96L369.472 310.592L369.03 310.666Z" fill="#455A64"/>
<path d="M372.342 174.064C371.164 171.93 370.208 169.574 369.472 167.219C368.809 164.79 368.883 162.288 369.84 159.933C370.428 158.608 371.385 157.43 371.827 156.106C372.489 154.192 372.195 151.984 373.372 150.365C375.212 147.862 379.113 148.451 381.91 147.126C384.118 146.096 385.664 143.888 387.945 143.152C389.932 142.49 392.14 143.152 394.128 143.962C396.115 144.771 397.955 145.875 400.089 146.096C401.561 146.17 403.107 146.17 404.652 146.096C406.198 146.022 407.67 146.538 408.848 147.568C409.878 148.598 410.099 150.586 408.995 151.616C411.644 151.174 414.147 153.824 414.073 156.474C414 159.123 412.012 161.478 409.584 162.656C407.155 163.834 404.358 163.834 401.708 163.613C394.128 163.024 386.547 160.154 381.395 154.56" fill="#CD5B45"/>
<path d="M373.961 164.57L368.809 202.032C367.926 208.141 372.269 213.882 378.377 214.691C378.598 214.691 378.745 214.765 378.966 214.765C384.928 215.28 390.301 211.011 391.11 205.123C391.478 202.326 391.846 199.971 391.846 199.677C391.846 199.677 401.488 200.118 403.475 190.771C404.432 186.282 405.683 176.787 406.64 168.25C407.744 159.05 401.561 150.586 392.509 148.746L391.625 148.598C381.763 147.126 375.065 154.707 373.961 164.57Z" fill="#FFBE9D"/>
<path d="M391.92 199.456C387.578 198.646 383.603 196.659 380.438 193.568C380.438 193.568 381.984 200.854 391.478 201.885L391.92 199.456Z" fill="#EB996E"/>
<path d="M402.445 176.125C402.298 176.861 401.635 177.302 400.899 177.229C400.163 177.155 399.648 176.493 399.795 175.757C399.942 175.021 400.605 174.579 401.341 174.653C402.003 174.726 402.518 175.389 402.445 176.125Z" fill="#263238"/>
<path d="M403.696 172.371C403.475 172.518 402.665 171.562 401.193 171.267C399.721 170.973 398.544 171.488 398.47 171.267C398.397 171.194 398.617 170.899 399.206 170.678C399.869 170.384 400.678 170.31 401.414 170.458C402.15 170.605 402.813 170.973 403.401 171.562C403.769 171.93 403.843 172.298 403.696 172.371Z" fill="#263238"/>
<path d="M389.049 173.77C388.902 174.506 388.24 174.947 387.504 174.874C386.768 174.8 386.252 174.138 386.4 173.402C386.547 172.666 387.209 172.224 387.945 172.298C388.608 172.371 389.123 173.034 389.049 173.77Z" fill="#263238"/>
<path d="M389.564 169.795C389.344 169.942 388.46 168.986 387.062 168.691C385.664 168.397 384.412 168.912 384.339 168.691C384.265 168.618 384.486 168.323 385.075 168.102C385.737 167.808 386.547 167.734 387.283 167.882C388.019 168.029 388.681 168.397 389.27 168.986C389.564 169.354 389.638 169.722 389.564 169.795Z" fill="#263238"/>
<path d="M392.656 181.498C393.465 181.424 394.275 181.424 395.085 181.571C395.453 181.645 395.821 181.571 395.968 181.35C396.115 180.982 396.115 180.614 395.968 180.173C395.821 179.216 395.6 178.186 395.453 177.155C394.717 172.886 394.275 169.354 394.496 169.354C394.717 169.354 395.379 172.739 396.115 177.082C396.262 178.112 396.409 179.142 396.63 180.099C396.777 180.614 396.704 181.13 396.557 181.571C396.409 181.792 396.115 181.939 395.821 182.013C395.6 182.013 395.379 182.013 395.158 181.939C394.201 181.939 393.392 181.718 392.656 181.498Z" fill="#263238"/>
<path d="M388.166 181.645C388.387 181.645 388.093 183.264 389.197 184.589C390.301 185.914 391.993 186.134 391.993 186.355C391.993 186.429 391.552 186.576 390.889 186.429C390.006 186.282 389.123 185.766 388.534 185.03C387.946 184.368 387.725 183.485 387.798 182.528C387.872 181.939 388.093 181.645 388.166 181.645Z" fill="#263238"/>
<path d="M391.037 164.202C390.816 164.57 389.418 164.128 387.725 163.981C386.032 163.834 384.56 164.054 384.413 163.613C384.339 163.392 384.634 163.098 385.296 162.803C386.989 162.141 388.829 162.362 390.375 163.245C390.89 163.686 391.11 164.054 391.037 164.202Z" fill="#CD5B45"/>
<path d="M404.064 168.102C403.769 168.397 402.813 167.808 401.635 167.587C400.457 167.366 399.427 167.366 399.206 166.998C399.133 166.778 399.353 166.483 399.869 166.262C401.193 165.747 402.739 166.115 403.769 167.146C404.064 167.587 404.211 167.955 404.064 168.102Z" fill="#CD5B45"/>
<path d="M373.299 171.635C373.152 171.562 367.264 168.47 366.16 174.874C365.056 181.277 371.754 181.056 371.827 180.909C371.901 180.762 373.299 171.635 373.299 171.635Z" fill="#FFBE9D"/>
<path d="M370.281 178.186C370.281 178.186 370.134 178.259 369.987 178.259C369.693 178.333 369.398 178.259 369.177 178.112C368.515 177.744 368.147 176.566 368.294 175.389C368.368 174.8 368.589 174.285 368.883 173.843C369.104 173.475 369.472 173.181 369.84 173.107C370.134 173.107 370.355 173.254 370.429 173.549C370.502 173.77 370.429 173.843 370.429 173.843C370.429 173.843 370.576 173.77 370.576 173.475C370.576 173.328 370.502 173.181 370.429 173.034C370.281 172.886 370.061 172.739 369.84 172.739C369.251 172.739 368.809 173.034 368.515 173.549C368.147 174.064 367.926 174.653 367.853 175.315C367.705 176.64 368.147 177.965 369.03 178.333C369.398 178.48 369.766 178.48 370.061 178.333C370.281 178.333 370.281 178.186 370.281 178.186Z" fill="#EB996E"/>
<path d="M408.48 159.491C407.376 161.846 401.709 162.803 397.514 161.552C393.686 160.374 392.288 157.946 389.859 155.811C388.314 154.486 388.314 154.486 385.811 154.192C383.751 153.971 382.131 156.032 380.586 157.357C381.469 162.509 379.187 167.514 376.979 172.224C376.759 172.739 376.39 173.254 375.949 173.549C375.066 173.99 374.035 173.328 373.52 172.445C372.784 171.046 372.49 169.501 372.637 167.955C372.637 164.422 373.373 160.89 374.771 157.578C376.17 154.266 378.525 151.469 381.469 149.482C385.296 147.126 389.859 146.39 394.275 147.347C398.618 148.378 402.592 150.733 405.463 154.045C406.861 155.59 407.965 157.43 408.48 159.491Z" fill="#CD5B45"/>
<path d="M395.379 175.021C395.453 175.021 395.379 174.432 395.674 173.549C396.042 172.224 396.851 171.046 397.955 170.237C399.574 169.059 401.709 168.691 403.623 169.427C404.726 169.869 405.683 170.531 406.419 171.562C407.965 173.696 407.965 176.493 406.419 178.627C405.757 179.584 404.726 180.32 403.623 180.762C401.709 181.498 399.574 181.13 397.955 179.952C396.851 179.142 396.042 177.965 395.674 176.64C395.453 175.61 395.453 175.094 395.379 175.021C395.379 175.242 395.379 175.315 395.379 175.462C395.379 175.83 395.453 176.198 395.527 176.64C395.821 178.038 396.63 179.29 397.808 180.173C400.605 182.307 404.653 181.792 406.787 178.995C406.787 178.922 406.861 178.922 406.861 178.848C408.554 176.566 408.554 173.475 406.861 171.194C404.8 168.323 400.752 167.734 397.882 169.795C397.808 169.795 397.808 169.869 397.734 169.942C396.557 170.826 395.821 172.077 395.453 173.475C395.379 173.843 395.306 174.211 395.306 174.653C395.379 174.726 395.379 174.874 395.379 175.021Z" fill="#263238"/>
<path d="M380.144 172.371C380.217 172.371 380.144 171.782 380.438 170.899C380.806 169.574 381.616 168.397 382.72 167.587C384.339 166.336 386.474 166.042 388.387 166.778C389.491 167.219 390.448 167.882 391.184 168.838C392.729 170.973 392.729 173.77 391.184 175.904C390.521 176.861 389.491 177.597 388.387 177.965C386.474 178.701 384.339 178.333 382.72 177.155C381.616 176.346 380.806 175.168 380.438 173.843C380.144 172.96 380.217 172.371 380.144 172.371C380.144 172.518 380.144 172.666 380.144 172.813C380.144 173.181 380.218 173.549 380.291 173.99C380.586 175.389 381.395 176.64 382.573 177.523C385.369 179.731 389.417 179.216 391.552 176.419C391.552 176.346 391.625 176.346 391.625 176.272C393.318 173.99 393.318 170.899 391.625 168.618C389.565 165.747 385.517 165.158 382.646 167.219C382.573 167.219 382.573 167.293 382.499 167.366C381.322 168.25 380.585 169.501 380.217 170.899C380.144 171.267 380.07 171.635 380.07 172.077C380.144 172.15 380.144 172.224 380.144 172.371Z" fill="#263238"/>
<path d="M392.729 172.592C392.803 172.739 393.613 172.298 394.569 172.666C395.526 173.034 395.968 173.696 396.115 173.622C396.262 173.549 396.115 173.328 395.968 173.034C395.379 172.15 394.201 171.856 393.245 172.224C392.877 172.298 392.656 172.518 392.729 172.592Z" fill="#263238"/>
<path d="M371.459 170.678C371.459 170.826 373.52 170.899 376.022 170.899C378.525 170.899 380.585 170.752 380.585 170.605C380.585 170.458 378.525 170.384 376.022 170.384C373.52 170.384 371.459 170.531 371.459 170.678Z" fill="#263238"/>
<path d="M411.497 153.309C411.497 153.53 411.497 153.75 411.424 153.898C411.277 154.413 410.909 154.928 410.467 155.296C409.805 155.811 408.995 156.179 408.112 156.253C407.081 156.326 406.051 156.253 405.021 156.106C403.181 155.811 401.341 155.443 399.574 155.002C398.912 154.854 398.323 154.634 397.955 154.56L397.513 154.413L397.366 154.339C397.366 154.339 397.44 154.339 397.513 154.339L397.955 154.413L399.574 154.854C400.973 155.149 402.886 155.59 405.021 155.885C406.051 156.106 407.008 156.106 408.038 156.032C408.848 155.958 409.657 155.664 410.32 155.149C410.761 154.781 411.129 154.339 411.277 153.824C411.497 153.53 411.497 153.309 411.497 153.309Z" fill="white"/>
<path d="M412.97 154.781C412.896 155.37 412.675 155.958 412.381 156.547C411.056 159.344 408.186 161.037 405.094 160.89C404.506 160.89 403.843 160.742 403.254 160.522C403.402 160.522 403.549 160.595 403.77 160.595C404.211 160.669 404.653 160.742 405.094 160.742C408.112 160.816 410.909 159.197 412.234 156.474C412.454 156.106 412.602 155.664 412.749 155.222C412.822 155.075 412.896 154.928 412.97 154.781Z" fill="white"/>
</svg>
