<?xml version="1.0" encoding="utf-8"?>
<!-- Generator: Adobe Illustrator 27.0.1, SVG Export Plug-In . SVG Version: 6.00 Build 0)  -->
<svg version="1.1" id="Capa_1" xmlns="http://www.w3.org/2000/svg" xmlns:xlink="http://www.w3.org/1999/xlink" x="0px" y="0px"
	 viewBox="0 0 344 96" style="enable-background:new 0 0 344 96;" xml:space="preserve">
<style type="text/css">
	.st0{fill:#FAFAFA;}
	.st1{fill:#CD5B45;}
	.st2{opacity:0.1;fill:#0F2830;enable-background:new    ;}
	.st3{opacity:0.4;fill:#0F2830;enable-background:new    ;}
	.st4{fill:#0F2830;}
</style>
<rect class="st0" width="344" height="96"/>
<circle class="st1" cx="48" cy="48" r="9"/>
<path class="st2" d="M82.2,59.3L74.9,56l-15-6.9c0.4-4.2-1.5-8.6-5.4-11.2c-3.7-2.4-8.4-2.5-12.3-0.4c-6.3,3.5-8.1,11.6-4.1,17.4
	c1.7,2.3,4.1,4,6.8,4.7L46.3,76l0.7,8c-11.3-0.4-22.2-5.9-29-16.1c-10.8-16.2-6.5-38.6,9.6-49.6c16.3-11.1,38.5-7.1,49.8,9
	C84.3,37,85.6,48.9,82.2,59.3z"/>
<path class="st3" d="M34.2,28.3c-10.8,7.6-13.5,22.6-5.9,33.4c4.2,6,10.8,9.5,17.6,10.1l-0.2-2c-6.2-0.6-12-3.8-15.8-9.3
	c-7-10-4.5-23.7,5.4-30.6s23.7-4.5,30.6,5.4c3.8,5.5,4.8,12,3.3,18l1.8,0.8c1.8-6.6,0.7-14-3.5-20C60.1,23.4,45.1,20.8,34.2,28.3
	L34.2,28.3z"/>
<path class="st4" d="M80.8,25.1C67.6,6.2,40.9,2.2,22.7,17C7.3,29.5,3.5,51.9,13.9,68.8C21.7,81.6,35.3,88.3,49.1,88h0.1l0,0
	c1,0,1.8-0.8,1.9-1.7c0-0.1,0-0.3,0-0.4c0,0,0,0,0-0.1l-0.8-10.1l-1.4-17.2c-0.1-1.3-1.1-2.4-2.4-2.7c-2.4-0.5-4.5-2-5.7-4.4
	c-1.5-3.2-0.8-7.1,1.9-9.5c3.7-3.2,9.2-2.5,11.8,1.4c1.2,1.8,1.7,3.9,1.3,5.9c-0.2,1.3,0.5,2.6,1.7,3.1l15.6,7.2l9.2,4.2
	c0,0,0,0,0.1,0c0.1,0.1,0.3,0.1,0.4,0.1c0.9,0.2,1.9-0.3,2.3-1.2l0,0v-0.1C89.9,50.6,88.7,36.4,80.8,25.1L80.8,25.1z M82.2,59.3
	L74.9,56l-15-6.9c0.4-4.2-1.5-8.6-5.4-11.2c-3.7-2.4-8.4-2.5-12.3-0.4c-6.3,3.5-8.1,11.6-4.1,17.4c1.7,2.3,4.1,4,6.8,4.7L46.3,76
	l0.7,8c-11.3-0.4-22.2-5.9-29-16.1c-10.8-16.2-6.5-38.6,9.6-49.6c16.3-11.1,38.5-7.1,49.8,9C84.3,37,85.6,48.9,82.2,59.3z"/>
<g>
	<circle class="st4" cx="67" cy="73" r="5"/>
	<circle class="st4" cx="80" cy="74" r="4"/>
	<path class="st4" d="M77,89H57c-0.5,0-1-0.4-1-1c0-5,4.9-9,11-9s11,4,11,9C78,88.6,77.6,89,77,89z"/>
	<path class="st4" d="M89,86c0,0.6-0.4,1-1,1h-8.1c-0.3-2.8-1.9-5.4-4.2-7.2C77,79.3,78.4,79,80,79C85,79,89,82.1,89,86z"/>
</g>
<g>
	<path class="st4" d="M129.9,68.3V46.4h14.4v3.8h-9.8v5.2h8.9v3.8h-8.9v9H129.9z"/>
	<path class="st4" d="M149.6,49.8c-0.7,0-1.3-0.2-1.7-0.7c-0.5-0.4-0.7-1-0.7-1.6c0-0.6,0.2-1.2,0.7-1.6c0.5-0.5,1.1-0.7,1.7-0.7
		c0.7,0,1.3,0.2,1.7,0.7s0.7,1,0.7,1.6c0,0.6-0.2,1.2-0.7,1.6S150.3,49.8,149.6,49.8z M147.4,68.3V51.9h4.5v16.4H147.4z"/>
	<path class="st4" d="M160.1,58.8v9.5h-4.5V51.9h4.3v2.9h0.2c0.4-1,1-1.7,1.8-2.3c0.9-0.6,1.9-0.8,3.1-0.8c1.1,0,2.1,0.2,3,0.7
		c0.8,0.5,1.5,1.2,2,2.1c0.5,0.9,0.7,2,0.7,3.3v10.4h-4.5v-9.6c0-1-0.2-1.8-0.8-2.3c-0.5-0.6-1.2-0.8-2.1-0.8
		c-0.6,0-1.1,0.1-1.6,0.4c-0.5,0.3-0.8,0.6-1.1,1.1C160.2,57.5,160.1,58.1,160.1,58.8z"/>
	<path class="st4" d="M180.2,68.5c-1.2,0-2.4-0.3-3.4-1c-1-0.6-1.8-1.6-2.4-2.8c-0.6-1.3-0.9-2.8-0.9-4.6c0-1.9,0.3-3.4,0.9-4.7
		s1.4-2.2,2.4-2.8s2.1-0.9,3.3-0.9c0.9,0,1.7,0.2,2.3,0.5s1.1,0.7,1.5,1.2s0.7,0.9,0.9,1.3h0.1v-8.2h4.5v21.8H185v-2.6h-0.2
		c-0.2,0.5-0.5,0.9-0.9,1.3c-0.4,0.4-0.9,0.8-1.5,1.1C181.8,68.4,181.1,68.5,180.2,68.5z M181.6,64.9c0.7,0,1.4-0.2,1.9-0.6
		s0.9-1,1.2-1.7s0.4-1.6,0.4-2.5s-0.1-1.8-0.4-2.5c-0.3-0.7-0.7-1.3-1.2-1.7s-1.1-0.6-1.9-0.6c-0.7,0-1.4,0.2-1.9,0.6
		c-0.5,0.4-0.9,1-1.2,1.7c-0.3,0.7-0.4,1.5-0.4,2.5c0,1,0.1,1.8,0.4,2.5c0.3,0.7,0.7,1.3,1.2,1.7C180.3,64.7,180.9,64.9,181.6,64.9z
		"/>
	<path class="st4" d="M200.3,46.4h5.7l6,14.7h0.3l6-14.7h5.7v21.8h-4.5V54.1h-0.2l-5.6,14.1h-3L204.9,54h-0.2v14.3h-4.5V46.4z"/>
	<path class="st4" d="M230.4,74.4c-0.6,0-1.1,0-1.6-0.1s-0.9-0.2-1.2-0.3l1-3.4c0.5,0.2,1,0.3,1.4,0.3c0.4,0,0.8-0.1,1.1-0.3
		c0.3-0.2,0.6-0.6,0.8-1.1l0.3-0.7l-5.9-16.8h4.8l3.4,12h0.2l3.4-12h4.8L236.5,70c-0.3,0.9-0.7,1.6-1.2,2.3c-0.5,0.7-1.2,1.2-2,1.5
		C232.5,74.2,231.6,74.4,230.4,74.4z"/>
	<path class="st4" d="M251.4,50.3v-3.8h17.9v3.8h-6.7v18h-4.6v-18H251.4z"/>
	<path class="st4" d="M277.3,68.6c-1.7,0-3.1-0.3-4.3-1c-1.2-0.7-2.1-1.7-2.8-2.9c-0.7-1.3-1-2.8-1-4.5c0-1.7,0.3-3.2,1-4.4
		s1.6-2.3,2.8-3c1.2-0.7,2.6-1.1,4.2-1.1c1.1,0,2.1,0.2,3,0.5c0.9,0.3,1.8,0.9,2.5,1.5c0.7,0.7,1.2,1.6,1.6,2.6
		c0.4,1,0.6,2.3,0.6,3.6v1.2H271v-2.8h9.5c0-0.7-0.1-1.2-0.4-1.7c-0.3-0.5-0.7-0.9-1.2-1.2c-0.5-0.3-1.1-0.4-1.7-0.4
		c-0.7,0-1.3,0.2-1.8,0.5s-0.9,0.7-1.2,1.3s-0.5,1.1-0.5,1.8v2.7c0,0.8,0.2,1.5,0.5,2.1c0.3,0.6,0.7,1,1.3,1.4
		c0.6,0.3,1.2,0.5,2,0.5c0.5,0,1-0.1,1.4-0.2c0.4-0.1,0.8-0.4,1.1-0.6c0.3-0.3,0.5-0.6,0.7-1l4.2,0.3c-0.2,1-0.6,1.9-1.3,2.6
		s-1.5,1.3-2.5,1.7C279.8,68.4,278.6,68.6,277.3,68.6z"/>
	<path class="st4" d="M292.4,68.6c-1,0-2-0.2-2.8-0.5c-0.8-0.4-1.5-0.9-1.9-1.6c-0.5-0.7-0.7-1.6-0.7-2.7c0-0.9,0.2-1.7,0.5-2.3
		c0.3-0.6,0.8-1.1,1.4-1.5c0.6-0.4,1.2-0.7,2-0.9c0.7-0.2,1.5-0.3,2.3-0.4c1-0.1,1.7-0.2,2.3-0.3s1-0.2,1.3-0.4s0.4-0.4,0.4-0.8
		v-0.1c0-0.7-0.2-1.2-0.6-1.6c-0.4-0.4-1-0.6-1.8-0.6c-0.8,0-1.5,0.2-2,0.5c-0.5,0.4-0.8,0.8-1,1.3l-4.2-0.3c0.2-1,0.6-1.9,1.3-2.6
		c0.6-0.7,1.4-1.3,2.4-1.7c1-0.4,2.1-0.6,3.4-0.6c0.9,0,1.8,0.1,2.6,0.3c0.8,0.2,1.6,0.5,2.2,1c0.6,0.4,1.2,1,1.5,1.7
		c0.4,0.7,0.6,1.5,0.6,2.5v11h-4.3V66h-0.1c-0.3,0.5-0.6,1-1.1,1.3c-0.4,0.4-1,0.7-1.6,0.9C293.9,68.5,293.2,68.6,292.4,68.6z
		 M293.7,65.4c0.7,0,1.3-0.1,1.8-0.4c0.5-0.3,0.9-0.6,1.2-1.1c0.3-0.5,0.4-1,0.4-1.5v-1.7c-0.1,0.1-0.3,0.2-0.6,0.2
		s-0.5,0.1-0.8,0.2c-0.3,0.1-0.6,0.1-0.9,0.2c-0.3,0-0.6,0.1-0.8,0.1c-0.5,0.1-1,0.2-1.4,0.4c-0.4,0.2-0.7,0.4-0.9,0.7
		c-0.2,0.3-0.3,0.6-0.3,1.1c0,0.6,0.2,1.1,0.7,1.4S293,65.4,293.7,65.4z"/>
	<path class="st4" d="M305.2,68.3V51.9h4.3v2.9h0.2c0.3-1,0.9-1.7,1.7-2.3c0.8-0.6,1.7-0.8,2.9-0.8c1.1,0,2.1,0.3,2.9,0.8
		c0.8,0.6,1.3,1.3,1.6,2.3h0.2c0.3-0.9,0.9-1.7,1.8-2.3c0.9-0.6,1.9-0.8,3.1-0.8c1.5,0,2.8,0.5,3.7,1.5c1,1,1.4,2.3,1.4,4.1v11h-4.5
		V58.2c0-0.9-0.2-1.6-0.7-2c-0.5-0.5-1.1-0.7-1.8-0.7c-0.8,0-1.5,0.3-1.9,0.8c-0.5,0.5-0.7,1.2-0.7,2.1v10h-4.4V58.1
		c0-0.8-0.2-1.4-0.7-1.9c-0.5-0.5-1.1-0.7-1.8-0.7c-0.5,0-1,0.1-1.4,0.4s-0.7,0.6-1,1.1s-0.4,1-0.4,1.6v9.8H305.2z"/>
</g>
</svg>
