<?xml version="1.0" encoding="UTF-8"?>
<svg id="Capa_1" data-name="Capa 1" xmlns="http://www.w3.org/2000/svg" viewBox="0 0 96 96">
  <defs>
    <style>
      .cls-1, .cls-2 {
        fill: #333;
      }

      .cls-2 {
        opacity: .7;
      }

      .cls-3 {
        fill: #989898;
        opacity: .4;
      }
    </style>
  </defs>
  <circle class="cls-1" cx="48" cy="48" r="9"/>
  <path class="cls-3" d="M82.17,59.34l-7.26-3.35-14.97-6.89c.39-4.25-1.48-8.61-5.44-11.19-3.66-2.38-8.44-2.55-12.27-.44-6.35,3.5-8.11,11.63-4.06,17.41,1.65,2.35,4.07,4,6.78,4.71l1.35,16.42,.66,7.96c-11.24-.33-22.19-5.9-28.94-16.05C7.19,51.67,11.53,29.35,27.66,18.3c16.26-11.14,38.5-7.13,49.83,9.05,6.79,9.69,8.13,21.56,4.68,31.99Z"/>
  <path class="cls-2" d="M34.23,28.34c-10.84,7.59-13.48,22.59-5.89,33.43,4.23,6.05,10.78,9.54,17.62,10.14l-.16-2.01c-6.15-.62-12-3.82-15.82-9.27-6.97-9.95-4.55-23.67,5.4-30.64s23.67-4.55,30.64,5.4c3.82,5.46,4.83,12.05,3.3,18.04l1.83,.84c1.78-6.63,.73-13.98-3.5-20.02-7.59-10.84-22.59-13.48-33.43-5.89Z"/>
  <path d="M80.77,25.06C67.56,6.19,40.9,2.22,22.71,17.01,7.29,29.54,3.48,51.91,13.86,68.85c7.82,12.77,21.48,19.47,35.22,19.13,.03,0,.07,0,.1,0h.04c1-.03,1.79-.79,1.9-1.74,.02-.14,.02-.29,.01-.44,0-.02,0-.04-.01-.07l-.83-10.05-1.43-17.16c-.11-1.32-1.07-2.44-2.37-2.68-2.36-.45-4.53-1.95-5.72-4.39-1.55-3.18-.75-7.13,1.91-9.46,3.65-3.2,9.15-2.46,11.85,1.41,1.25,1.78,1.67,3.9,1.33,5.88-.22,1.3,.52,2.57,1.71,3.13l15.63,7.21,9.16,4.22s.04,.02,.06,.03c.14,.06,.27,.11,.41,.14,.93,.22,1.92-.27,2.28-1.19v-.04s.03-.07,.04-.1c4.74-12.07,3.56-26.23-4.43-37.63Zm1.4,34.28l-7.26-3.35-14.97-6.89c.39-4.25-1.48-8.61-5.44-11.19-3.66-2.38-8.44-2.55-12.27-.44-6.35,3.5-8.11,11.63-4.06,17.41,1.65,2.35,4.07,4,6.78,4.71l1.35,16.42,.66,7.96c-11.24-.33-22.19-5.9-28.94-16.05C7.19,51.67,11.53,29.35,27.66,18.3c16.26-11.14,38.5-7.13,49.83,9.05,6.79,9.69,8.13,21.56,4.68,31.99Z"/>
  <g>
    <circle cx="67" cy="73" r="5"/>
    <circle cx="80" cy="74" r="4"/>
    <path d="M77,89h-20c-.55,0-1-.45-1-1,0-4.96,4.93-9,11-9s11,4.04,11,9c0,.55-.45,1-1,1Z"/>
    <path d="M89,86c0,.55-.45,1-1,1h-8.06c-.29-2.83-1.87-5.36-4.23-7.16,1.28-.54,2.74-.84,4.29-.84,4.96,0,9,3.14,9,7Z"/>
  </g>
</svg>
