<?xml version="1.0" encoding="utf-8"?>
<!-- Generator: Adobe Illustrator 27.0.1, SVG Export Plug-In . SVG Version: 6.00 Build 0)  -->
<svg version="1.1" id="Capa_1" xmlns="http://www.w3.org/2000/svg" xmlns:xlink="http://www.w3.org/1999/xlink" x="0px" y="0px"
	 viewBox="0 0 120 120" style="enable-background:new 0 0 120 120;" xml:space="preserve">
<style type="text/css">
	.st0{fill:#FAFAFA;}
	.st1{fill:#CD5B45;}
	.st2{opacity:0.1;fill:#0F2830;enable-background:new    ;}
	.st3{opacity:0.4;fill:#0F2830;enable-background:new    ;}
	.st4{fill:#0F2830;}
</style>
<circle class="st0" cx="60" cy="60" r="60"/>
<circle class="st1" cx="60" cy="60" r="9"/>
<path class="st2" d="M94.2,71.3L86.9,68l-15-6.9c0.4-4.2-1.5-8.6-5.4-11.2c-3.7-2.4-8.4-2.5-12.3-0.4c-6.3,3.5-8.1,11.6-4.1,17.4
	c1.7,2.3,4.1,4,6.8,4.7L58.3,88l0.7,8c-11.3-0.4-22.2-5.9-29-16.1c-10.8-16.2-6.5-38.6,9.6-49.6c16.3-11.1,38.5-7.1,49.8,9
	C96.3,49,97.6,60.9,94.2,71.3z"/>
<path class="st3" d="M46.2,40.3c-10.8,7.6-13.5,22.6-5.9,33.4c4.2,6,10.8,9.5,17.6,10.1l-0.2-2c-6.2-0.6-12-3.8-15.8-9.3
	c-7-10-4.5-23.7,5.4-30.6s23.7-4.5,30.6,5.4c3.8,5.5,4.8,12,3.3,18l1.8,0.8c1.8-6.6,0.7-14-3.5-20C72.1,35.4,57.1,32.8,46.2,40.3
	L46.2,40.3z"/>
<path class="st4" d="M92.8,37.1C79.6,18.2,52.9,14.2,34.7,29c-15.4,12.5-19.2,34.9-8.8,51.8c7.8,12.8,21.4,19.5,35.2,19.2h0.1l0,0
	c1,0,1.8-0.8,1.9-1.7c0-0.1,0-0.3,0-0.4c0,0,0,0,0-0.1l-0.8-10.1l-1.4-17.2c-0.1-1.3-1.1-2.4-2.4-2.7c-2.4-0.5-4.5-2-5.7-4.4
	c-1.5-3.2-0.8-7.1,1.9-9.5c3.7-3.2,9.2-2.5,11.8,1.4c1.2,1.8,1.7,3.9,1.3,5.9c-0.2,1.3,0.5,2.6,1.7,3.1l15.6,7.2l9.2,4.2
	c0,0,0,0,0.1,0c0.1,0.1,0.3,0.1,0.4,0.1c0.9,0.2,1.9-0.3,2.3-1.2l0,0v-0.1C101.9,62.6,100.7,48.4,92.8,37.1L92.8,37.1z M94.2,71.3
	L86.9,68l-15-6.9c0.4-4.2-1.5-8.6-5.4-11.2c-3.7-2.4-8.4-2.5-12.3-0.4c-6.3,3.5-8.1,11.6-4.1,17.4c1.7,2.3,4.1,4,6.8,4.7L58.3,88
	l0.7,8c-11.3-0.4-22.2-5.9-29-16.1c-10.8-16.2-6.5-38.6,9.6-49.6c16.3-11.1,38.5-7.1,49.8,9C96.3,49,97.6,60.9,94.2,71.3z"/>
<g>
	<circle class="st4" cx="79" cy="85" r="5"/>
	<circle class="st4" cx="92" cy="86" r="4"/>
	<path class="st4" d="M89,101H69c-0.5,0-1-0.4-1-1c0-5,4.9-9,11-9s11,4,11,9C90,100.6,89.6,101,89,101z"/>
	<path class="st4" d="M101,98c0,0.6-0.4,1-1,1h-8.1c-0.3-2.8-1.9-5.4-4.2-7.2C89,91.3,90.4,91,92,91C97,91,101,94.1,101,98z"/>
</g>
</svg>
